<svg width="14" height="16" viewBox="0 0 14 16" fill="none" xmlns="http://www.w3.org/2000/svg">
<path d="M13.5215 13.7558L12.9902 4.25093H10.3778V3.48346C10.3778 3.01117 10.2843 2.56347 10.0974 2.14038C9.91044 1.71728 9.66199 1.3483 9.35205 1.03344C9.04211 0.71858 8.67559 0.472594 8.25249 0.295485C7.8294 0.108536 7.37678 0.0150614 6.89465 0.0150614C6.42236 0.0150614 5.97467 0.108536 5.55157 0.295485C5.12848 0.472594 4.7595 0.71858 4.44464 1.03344C4.12977 1.3483 3.88379 1.71728 3.70668 2.14038C3.51973 2.56347 3.42626 3.01117 3.42626 3.48346V4.25093H0.695815L0.238281 13.8001V13.8149C0.238281 13.992 0.270259 14.1617 0.334216 14.324C0.398172 14.4864 0.494106 14.6266 0.622019 14.7447C0.740092 14.8628 0.880304 14.9562 1.04265 15.0251C1.205 15.094 1.36982 15.1284 1.53709 15.1284H12.2227C12.3998 15.1284 12.5695 15.094 12.7319 15.0251C12.8942 14.9562 13.0394 14.8578 13.1673 14.7299C13.2854 14.5922 13.3764 14.4397 13.4403 14.2724C13.5043 14.1051 13.5313 13.9329 13.5215 13.7558ZM4.32656 3.48346C4.32656 2.77502 4.57747 2.1699 5.07928 1.66809C5.58109 1.16627 6.18621 0.915369 6.89465 0.915369C7.60309 0.915369 8.20822 1.16627 8.71003 1.66809C9.21184 2.1699 9.46274 2.77502 9.46274 3.48346V4.25093H4.32656V3.48346ZM12.5031 14.0953C12.4638 14.1346 12.4195 14.1666 12.3703 14.1912C12.3211 14.2158 12.2719 14.2281 12.2227 14.2281H1.53709C1.48789 14.2281 1.43869 14.2183 1.38949 14.1986C1.3403 14.1789 1.29602 14.1494 1.25666 14.11C1.22714 14.0707 1.20254 14.0289 1.18287 13.9846C1.16319 13.9403 1.15335 13.8887 1.15335 13.8296L1.55184 5.166H3.42626V6.30245C3.42626 6.43037 3.47053 6.5386 3.55909 6.62716C3.64764 6.71571 3.75588 6.75999 3.88379 6.75999C4.00186 6.75999 4.10518 6.71571 4.19373 6.62716C4.28229 6.5386 4.32656 6.43037 4.32656 6.30245V5.166H9.46274V6.30245C9.46274 6.43037 9.50702 6.5386 9.59558 6.62716C9.68413 6.71571 9.79236 6.75999 9.92028 6.75999C10.0482 6.75999 10.1564 6.71571 10.245 6.62716C10.3335 6.5386 10.3778 6.43037 10.3778 6.30245V5.166H12.1341L12.6064 13.8149C12.6163 13.8641 12.6114 13.9132 12.5917 13.9624C12.572 14.0116 12.5425 14.0559 12.5031 14.0953Z" fill="#1F1F1F"/>
</svg>
