<svg width="14" height="15" viewBox="0 0 14 15" fill="none" xmlns="http://www.w3.org/2000/svg">
<path d="M6.89832 7.57149C7.76419 7.57149 8.50018 7.26833 9.10629 6.66201C9.7124 6.05569 10.0155 5.31944 10.0155 4.45327C10.0155 3.5871 9.7124 2.85085 9.10629 2.24453C8.50018 1.63821 7.76419 1.33505 6.89832 1.33505C6.03245 1.33505 5.29646 1.63821 4.69036 2.24453C4.08425 2.85085 3.78119 3.5871 3.78119 4.45327C3.78119 5.31944 4.08425 6.05569 4.69036 6.66201C5.29646 7.26833 6.03245 7.57149 6.89832 7.57149ZM6.89832 8.6109C6.32468 8.6109 5.78352 8.50263 5.27482 8.28608C4.77694 8.06954 4.3386 7.77179 3.95978 7.39284C3.58096 7.01389 3.28332 6.57539 3.06685 6.07735C2.85038 5.56847 2.74215 5.02711 2.74215 4.45327C2.74215 3.87943 2.85038 3.33808 3.06685 2.8292C3.28332 2.33115 3.58096 1.89265 3.95978 1.5137C4.3386 1.13475 4.77694 0.837003 5.27482 0.62046C5.78352 0.403916 6.32468 0.295645 6.89832 0.295645C7.47196 0.295645 8.01313 0.403916 8.52183 0.62046C9.0197 0.837003 9.45805 1.13475 9.83687 1.5137C10.2157 1.89265 10.5133 2.33115 10.7298 2.8292C10.9463 3.33808 11.0545 3.87943 11.0545 4.45327C11.0545 5.02711 10.9463 5.56847 10.7298 6.07735C10.5133 6.57539 10.2157 7.01389 9.83687 7.39284C9.45805 7.77179 9.0197 8.06954 8.52183 8.28608C8.01313 8.50263 7.47196 8.6109 6.89832 8.6109ZM12.0935 13.8079V12.2488C12.0935 11.8157 11.942 11.4476 11.639 11.1445C11.3359 10.8413 10.9679 10.6897 10.535 10.6897H3.26167C2.82874 10.6897 2.46074 10.8413 2.15769 11.1445C1.85463 11.4476 1.70311 11.8157 1.70311 12.2488V13.8079C1.70311 13.9487 1.65169 14.0705 1.54887 14.1733C1.44605 14.2762 1.32429 14.3276 1.18358 14.3276C1.04288 14.3276 0.921117 14.2762 0.818295 14.1733C0.715473 14.0705 0.664062 13.9487 0.664062 13.8079V12.2488C0.664062 11.5342 0.918412 10.9225 1.42711 10.4136C1.93581 9.90474 2.54733 9.65031 3.26167 9.65031H10.535C11.2493 9.65031 11.8608 9.90474 12.3695 10.4136C12.8782 10.9225 13.1326 11.5342 13.1326 12.2488V13.8079C13.1326 13.9487 13.0812 14.0705 12.9783 14.1733C12.8755 14.2762 12.7538 14.3276 12.6131 14.3276C12.4724 14.3276 12.3506 14.2762 12.2478 14.1733C12.1449 14.0705 12.0935 13.9487 12.0935 13.8079Z" fill="#1F1F1F"/>
</svg>
