<svg width="1440" height="300" viewBox="0 0 1440 300" fill="none" xmlns="http://www.w3.org/2000/svg">
<g style="mix-blend-mode:darken" clip-path="url(#clip0_156_2973)">
<rect width="1440" height="300" fill="white"/>
<rect width="1440" height="875" fill="#29514B"/>
<path d="M1346.95 984.844C1343.13 986.954 1341.2 986.276 1339.54 981.759C1327.14 948.328 1317.43 914.088 1307.94 879.769C1305.53 870.97 1302.79 862.207 1300.33 853.414C1299.48 850.262 1297.23 848.723 1294.81 847.149C1281.05 838.228 1266.37 831.315 1250.82 825.451C1246.35 829.538 1244.09 835.729 1237.75 838.18C1220.7 844.804 1209 835.707 1198.27 824.43C1192.92 818.761 1187.34 816.87 1180.33 819.228C1178.22 819.914 1176.12 821.215 1174.42 822.694C1163.5 832.156 1151.96 831.328 1140.16 824.651C1137.24 823.02 1134.44 821.04 1131.66 819.169C1128.58 817.109 1126 817.008 1122.44 818.976C1111.23 825.391 1097.45 823.081 1087.53 813.782C1076.89 803.839 1068.35 802.393 1056.38 810.798C1044.2 819.337 1031.23 820.351 1017.55 817.918C1013.58 817.244 1010.87 817.438 1007.86 820.353C998.283 829.663 986.583 832.718 973.847 829.953C963.75 827.787 955.404 829.512 947.474 836.397C940.442 842.509 931.412 844.478 922.364 844.826C912.174 845.246 907.533 838.042 911.079 828.179C913.702 820.828 918.424 815.592 925.757 813.142C929.712 811.801 932.624 809.457 934.293 805.797C939.563 794.228 949.461 789.753 960.873 788.523C968.441 787.67 974.573 785.243 979.725 779.455C988.121 769.886 998.944 770.234 1009.59 773.906C1017.05 776.481 1021.91 774.366 1027.68 769.684C1041.86 758.063 1057.56 754.054 1074.87 762.911C1079.46 765.249 1083.97 764.013 1088.16 761.805C1103.55 753.631 1117.93 753.467 1131.51 766.215C1135.92 770.366 1141.91 770.586 1147.58 768.38C1163.25 762.246 1177.02 765.902 1188.39 777.947C1193.11 782.903 1197.69 784.235 1204.11 783.399C1228.02 780.314 1241.87 789.167 1250.34 812.348C1251.99 816.864 1255.36 820.013 1259.06 821.835C1270.41 827.332 1282.1 832.006 1294.93 837.559C1291.1 823.432 1285.84 810.698 1284.42 797.587C1281.62 771.642 1261.28 764.527 1244.14 753.747C1241.12 755.151 1240.2 757.718 1238.69 759.793C1226.45 776.571 1211.41 776.753 1198.72 760.21C1191.28 750.576 1191.13 750.201 1180.38 755.333C1171.39 759.594 1163.38 757.473 1155.56 752.698C1152.91 751.092 1150.24 749.21 1148.23 746.916C1139.85 737.11 1130.86 733.084 1117.69 738.151C1108.08 741.81 1096.92 734.052 1092.96 724.195C1089.94 716.752 1083.29 716.046 1076.92 716.371C1068.21 716.793 1059.5 717.719 1050.97 719.295C1039.67 721.465 1030.18 718.391 1021.86 710.593C1018.99 707.949 1016.12 705.305 1013.35 702.537C1008.71 697.852 1004.02 696.477 997.344 698.965C984.107 703.929 972.415 699.255 962.927 689.349C953.566 679.597 943.816 675.152 929.453 676.434C911.139 678.106 893.256 672.898 879.265 658.964C876.123 655.846 873.306 654.652 868.973 656.036C860.523 658.78 852.603 656.985 845.876 651.191C837.998 644.408 829.078 640.541 818.923 638.83C805.137 636.464 798.957 629.209 799.691 617.703C800.48 605.24 810.373 595.838 823.393 595.77C830.832 595.716 838.47 595.975 845.052 599.993C850.635 603.395 855.402 602.466 860.861 599.891C874.687 593.35 885.487 595.437 895.133 607.732C904.267 619.358 915.121 623.398 929.044 620.149C938.752 617.88 947.655 620.628 953.015 628.871C959.438 638.787 967.758 639.753 977.102 636.684C993.258 631.392 1005.7 637.381 1016.4 649.278C1026.22 660.21 1027.36 660.586 1040.87 654.696C1055.12 648.499 1066.17 650.837 1075.91 663.01C1081.64 670.148 1089.13 671.095 1096.11 668.405C1114.74 661.266 1129.12 667.878 1142.14 681.024C1144.92 683.847 1147.51 684.955 1151.72 683.472C1169.61 677.033 1183.19 681.942 1193.18 698.231C1195.79 702.473 1198.73 704.269 1203.88 703.856C1225.05 702.2 1240.28 715.041 1243.41 737.031C1244.03 741.608 1245.68 744.559 1249.47 747.155C1258.25 753.165 1266.64 759.666 1275.72 766.371C1277.15 762.57 1274.8 759.699 1274.24 756.627C1269.92 732.811 1265.07 709.112 1261.57 685.206C1259.78 673.2 1256.45 663.552 1244.72 658.546C1235.87 654.784 1228.48 646.994 1217.65 648.998C1214.32 649.597 1211.3 650.442 1208.25 652.073C1195.7 658.751 1182.88 660.643 1170.32 652.147C1163.39 647.496 1156.77 646.507 1149.45 650.579C1144.19 653.468 1139.06 652.142 1133.98 649.747C1127.45 646.676 1120.96 643.487 1114.34 640.594C1109.85 638.636 1105.1 638.275 1101.15 641.576C1086.14 654.186 1072.21 649.541 1058.44 639.053C1055.75 637.005 1053.15 634.834 1050.45 632.786C1047.04 630.147 1042.91 628.036 1038.96 629.881C1024.44 636.557 1012.17 631.613 1001.24 622.037C987.574 610.026 971.838 606.872 954.352 605.203C935.046 603.403 916.515 596.812 904.744 578.764C900.248 571.879 894.398 567.555 886.441 565.428C873.858 562.086 864.444 554.3 858.853 542.051C855.31 534.387 849.708 528.859 841.945 525.534C837.69 523.718 833.691 521.256 829.699 518.851C819.311 512.63 815.749 504.8 818.615 494.734C821.913 483.163 831.53 475.696 842.347 475.989C855.796 476.322 866.231 482.481 873.459 493.705C879.876 503.565 887.062 510.035 899.786 509.273C908.106 508.783 914.87 514.908 919.618 521.597C925.863 530.412 934.013 532.797 943.835 532.027C963.465 530.374 978.339 537.546 987.498 556.224C992.396 566.199 1002.5 565.06 1011.21 566.094C1019.43 567.073 1027.1 565.2 1035.18 562.609C1050.14 557.844 1062.69 565.781 1073.87 575.16C1079.43 579.797 1084.74 584.183 1092.26 583.391C1096.31 582.934 1100.44 582.134 1104.21 580.644C1119.52 574.608 1133.18 578.276 1143.65 590.087C1151.54 598.997 1160.17 600.768 1170.48 598.99C1185.46 596.35 1199 598.52 1210.65 609.583C1216.66 615.345 1220.97 622.027 1223.54 629.855C1226.21 638.01 1230.72 643.998 1238.62 647.642C1244.69 650.431 1250.23 654.454 1256.05 659.958C1256.81 654.049 1255.94 649.219 1254.98 644.568C1252.1 631.118 1250.84 617.485 1249.04 603.912C1247.16 590.07 1238.38 581.596 1227.06 575.368C1222.27 572.716 1217.6 574.53 1213.09 576.774C1198.26 584.101 1182.12 581.217 1171.25 568.778C1163.53 559.962 1154.74 560.727 1145.25 563.925C1128.73 569.426 1117.44 565.883 1105.76 552.473C1098.09 543.705 1089.59 539.176 1077.05 543.556C1062.57 548.604 1048.75 545.962 1037.65 533.437C1028.76 523.409 1023.95 522.551 1012.67 528.358C1006.05 531.791 999.035 533.198 991.824 532.834C983.404 532.439 976.811 528.815 972.946 520.235C968.361 510.113 963.692 508.511 952.511 508.875C935.106 509.381 918.756 506.127 906.691 491.304C902.816 486.534 897.361 485.244 891.827 483.74C882.456 481.212 873.903 477.193 868.565 468.163C864.435 461.125 865.617 455.561 872.392 451.549C888.611 441.938 904.701 438.501 920.628 452.609C926.156 457.474 932.749 456.227 939.034 454.679C953.635 451.13 966.373 454.398 977.037 465.515C988.189 477.081 998.906 479.401 1013.33 473.352C1024.06 468.896 1035.68 472.009 1043.87 481.558C1051.74 490.694 1056.22 492.093 1066.75 486.371C1083.4 477.271 1100.62 482.386 1110.55 494.762C1116.46 502.047 1124.07 504.045 1133.41 500.417C1151.14 493.548 1165.65 498.464 1175.99 514.993C1180.46 522.105 1185.72 523.584 1192.88 521.545C1203.11 518.6 1213.21 522.277 1219.1 531.301C1223.06 537.295 1225.62 544.006 1225.45 551.248C1225.22 560.008 1228.94 566.254 1235.44 571.512C1238.99 574.36 1242.07 577.877 1245.38 581.087C1246.79 580.425 1246.27 579.251 1246.17 578.311C1242.42 549.839 1241.01 521.217 1240.91 492.558C1240.88 484.443 1233.23 481.162 1227.73 478.533C1217.61 473.683 1206.98 469.673 1195.12 471.849C1183.64 473.926 1173.99 468.91 1165.58 461.236C1158.37 454.6 1151.49 449.832 1140.4 450.522C1129.31 451.212 1119.63 443.511 1110.44 437.212C1103.74 432.647 1097.3 431.357 1089.36 433.819C1083.07 435.76 1076.15 434.636 1069.66 432.848C1066.21 431.893 1062.75 430.771 1059.38 429.527C1048.07 425.369 1037.21 421.274 1024.53 425.838C1011.43 430.562 998.162 425.506 985.387 421.906C979.961 420.39 975.088 420.379 969.644 422.112C956.747 426.197 944.377 425.239 933.365 415.897C923.679 407.637 924.148 396.218 934.445 388.954C939.467 385.42 945.26 383.872 950.946 382.839C956.633 381.806 960.613 379.23 964.522 375.038C973.942 364.849 984.072 362.924 997.429 369.258C1004.66 372.699 1010.57 373.153 1017.42 368.349C1028.42 360.558 1039.89 363.241 1049.76 370.696C1059.8 378.244 1069.77 380.201 1081.54 376.858C1092.52 373.717 1101.72 379.568 1110.08 385.793C1116.6 390.714 1123.06 392.169 1130.96 390.887C1151.67 387.602 1169.07 393.369 1181.24 412.043C1184.14 416.475 1187.83 420.54 1193.1 421.681C1208.41 424.884 1216.93 435.01 1219.85 449.8C1222.39 462.617 1227.65 472.887 1239.71 479.368C1242.58 474.284 1240.36 468.095 1240.5 462.536C1240.8 449.175 1240.67 435.807 1240.92 422.397C1241.08 411.683 1224.44 390.712 1214.12 388.012C1211.02 387.241 1208.04 388.024 1205.09 389.029C1186.43 395.443 1176.34 391.821 1165.74 374.985C1163.94 372.108 1162.29 369.102 1160.44 366.287C1157.41 361.757 1153.42 358.343 1147.78 358.362C1133.99 358.404 1123 352.14 1113.7 342.437C1106.93 335.36 1099.62 331.145 1089.46 330.834C1076.66 330.428 1067.46 322.618 1061.08 311.634C1058.09 306.427 1054.46 303.42 1048.28 303.389C1034.15 303.357 1024.23 294.956 1015.93 284.468C1011.97 279.427 1007.72 276.154 1001.21 276.16C999.457 276.19 997.401 275.917 996.033 274.952C986.654 268.449 976.744 263.07 966.72 257.649C960.892 254.498 958.701 248.641 961.465 242.058C964.003 235.893 969.044 235.941 974.476 237.512C976.737 238.153 979.268 238.26 981.245 236.862C990.325 230.463 999.062 233.678 1007.16 238.533C1015.32 243.437 1022.68 247.031 1032.94 244.308C1046.23 240.794 1057.42 247.372 1065.01 258.388C1071.55 267.898 1078.39 272.223 1090.25 269.206C1103.23 265.839 1113.24 273.559 1120.91 283.389C1128.01 292.5 1135.88 296.71 1147.7 297.17C1161.39 297.699 1170.04 307.979 1175.03 320.743C1177.56 327.122 1181.26 331.352 1188.29 332.071C1209.34 334.291 1219.99 343.338 1220.31 364.692C1220.56 381.518 1228.84 391.841 1239.99 402.455C1242.26 392.959 1240.88 383.541 1241.49 374.4C1242.7 356.905 1242.64 339.329 1244.02 321.872C1244.55 315.317 1242.34 311.255 1238.53 306.588C1230.22 296.493 1221.36 292.117 1208.21 297.35C1193.75 303.123 1181.91 297.626 1173.77 283.704C1171.81 280.342 1169.17 277.335 1167.15 273.979C1165.14 270.678 1162.87 269.926 1159.39 271.662C1154.1 274.274 1149.21 272.641 1145.08 269.019C1141.01 265.445 1137.27 261.387 1133.69 257.256C1127.66 250.376 1120.57 246.695 1111.26 247.632C1104.81 248.247 1098.44 246.557 1092.72 243.394C1085.71 239.48 1078.93 235.149 1072.01 231.057C1067.14 228.134 1062.31 224.647 1056.27 225.44C1045.59 226.867 1036.66 222.89 1028.3 216.72C1022.15 212.15 1015.92 209.324 1007.66 209.863C992.825 210.807 981.526 203.289 973.692 190.565C968.935 182.814 972.727 173.203 980.616 174.722C992.312 176.988 1001.65 171.959 1011.54 168.326C1019.47 165.36 1026.82 166.436 1033.79 170.522C1041.35 174.934 1048.65 176.575 1057.1 172.879C1064.4 169.648 1071.41 172.61 1077.23 177.161C1086.83 184.647 1096.34 188.895 1109.15 186.892C1119.85 185.182 1129.06 192.151 1136.09 200.151C1143.06 208.1 1150.6 212.347 1161.28 212.934C1173.9 213.641 1182.91 222.2 1189.7 232.521C1193.53 238.306 1197.39 242.014 1204.69 243.096C1217.38 244.97 1228.19 258.87 1228.59 275.119C1228.92 288.241 1236.15 296.161 1245.05 305.63C1246.26 294.014 1247.29 283.651 1248.43 273.387C1249.57 263.516 1250.7 253.645 1252.06 243.805C1254.05 229.303 1244.96 220.528 1236.18 211.605C1234.64 210.043 1232.24 210.09 1230.29 210.813C1218 215.446 1209.89 208.521 1203.06 199.828C1199.23 195.051 1195.51 191.662 1189.25 191.472C1179.91 191.125 1173.72 185.215 1168.48 178.078C1165.38 173.892 1162.82 169.141 1159.19 165.519C1154.69 161.042 1149.6 158.592 1142.46 160.852C1135.32 163.112 1128.35 159.979 1122.1 155.979C1117.74 153.223 1113.4 150.24 1109.23 147.182C1100.88 141.068 1091.38 138.835 1081.54 139.999C1069.44 141.419 1059.84 136.79 1051.35 128.955C1041.21 119.571 1029.54 113.214 1016.95 108.306C1008.88 105.183 1001.73 100.501 995.95 93.8733C991.938 89.342 989.569 83.8415 992.149 78.0632C994.992 71.6954 1001.03 69.895 1007.52 69.6678C1016.08 69.375 1023.56 72.5643 1030.47 77.5531C1036.18 81.6684 1041.84 83.3264 1049.14 80.5443C1059.01 76.8003 1069.19 78.2845 1075.56 87.6468C1084.19 100.224 1094.97 98.7293 1108.05 94.7364C1100.98 91.7809 1097.17 86.5556 1092.86 81.8334C1088.86 77.4679 1083.95 75.1103 1077.83 74.7912C1069.08 74.322 1061.35 71.2737 1055.5 64.0376C1051.43 59.0638 1045.97 56.2633 1039.68 54.8443C1030.25 52.7711 1022.27 48.408 1018.12 38.796C1016.13 34.2051 1012.07 31.75 1008.27 29.0434C1004.28 26.2444 1002.16 22.452 1003.09 17.5875C1004.06 12.5509 1007.39 9.04016 1012.26 8.04348C1019.32 6.57587 1026.65 5.52621 1033.51 8.67198C1045.64 14.3047 1060.04 15.3137 1069.34 26.9211C1072.59 30.9787 1077.14 31.5298 1082.04 30.3611C1094.68 27.3692 1106.33 28.2957 1116.62 37.9996C1120.78 41.8984 1126.59 42.9789 1132.62 42.0755C1140.38 40.9219 1147.52 43.0851 1153.42 48.4108C1160.07 54.4375 1167.27 58.161 1176.37 57.3035C1178.64 57.0477 1181.52 56.8355 1183.18 57.992C1202.79 71.6856 1228.98 76.2936 1240.53 101.197C1243.28 107.103 1245.37 113.587 1250.05 118.211C1254.48 122.528 1259.79 125.905 1265.59 130.346C1268.11 115.224 1272.32 100.527 1272.3 85.7466C1272.27 79.1425 1263.39 72.696 1255.96 69.4452C1252.28 67.8445 1248.3 67.0051 1243.56 68.6592C1235.03 71.692 1223.82 66.4596 1218.81 58.4009C1216.01 53.9014 1213.62 50.1948 1207.06 50.2622C1201.65 50.3123 1197.69 45.2709 1194.58 40.5254C1189.88 33.3271 1184.71 27.2466 1175.08 27.268C1169.17 27.2624 1164.69 23.007 1160.38 19.1818C1155.94 15.2582 1151.25 12.9868 1145.07 13.0116C1134.34 13.0443 1125.69 8.1399 1119.97 -1.35072C1116.21 -7.58972 1110.95 -11.9811 1104.89 -15.722C1092.9 -23.0501 1084.81 -33.6733 1081.02 -47.4132C1079.75 -51.9174 1077.17 -55.3785 1073.98 -58.4901C1070.23 -62.155 1066.87 -66.2005 1064.64 -70.9329C1060.99 -78.5848 1065.52 -84.5824 1073.87 -83.788C1081.24 -83.0499 1085.76 -77.8484 1090.22 -72.8066C1092.73 -69.9538 1095.4 -67.0639 1098.94 -66.735C1108.34 -65.9458 1115.08 -60.994 1121.01 -53.9911C1124.86 -49.4415 1130.48 -47.6668 1136.01 -46.2179C1147 -43.3691 1155.68 -37.2914 1161.81 -27.5669C1164.08 -23.9034 1167.16 -21.7871 1171.1 -21.3349C1180.58 -20.2753 1188.02 -15.4027 1194.13 -8.30753C1196.97 -4.98747 1200.14 -4.05684 1204.39 -4.2555C1218.63 -5.07733 1226.24 -0.278369 1232.19 13.2179C1233.58 16.4198 1235.75 18.1912 1238.69 19.4841C1252.11 25.419 1259.34 35.636 1259.12 50.7789C1258.94 62.3341 1268.19 67.6754 1274.68 76.7429C1277.33 56.4543 1279.82 37.6952 1282.26 18.9423C1282.37 17.9779 1282.5 16.6756 1282.03 15.9441C1277.27 9.08984 1272.85 1.91645 1267.33 -4.2935C1265.26 -6.63607 1260.8 -8.37268 1257.28 -7.02454C1242.38 -1.31331 1232.76 -9.41319 1224.07 -20.0248C1221.41 -23.2525 1219.25 -26.8729 1216.65 -30.0515C1214.68 -32.4615 1212.62 -35.701 1210.02 -36.4161C1199.78 -39.4054 1193.67 -47.0042 1188.08 -55.3337C1183.42 -62.2554 1177.64 -67.4274 1170.08 -70.8872C1163.79 -73.7621 1159 -78.8778 1156.21 -85.2265C1152.15 -94.5681 1146.29 -102.363 1139.16 -109.287C1130.92 -117.318 1126.03 -127.238 1122.72 -138.176C1121.67 -141.753 1121.85 -144.966 1124.34 -147.709C1126.87 -150.514 1130.7 -151.45 1133.49 -149.58C1145.63 -141.374 1159.8 -135.579 1167.53 -121.836C1170.34 -116.832 1173.53 -112.768 1178.73 -110.386C1189.52 -105.443 1197.41 -97.5411 1202.47 -86.5767C1204.51 -82.1025 1208.01 -79.2487 1212.86 -77.9478C1224.09 -74.9576 1231.92 -67.6089 1236.05 -56.6515C1238.15 -51.1206 1241.68 -48.4388 1247.04 -47.0268C1259.62 -43.6851 1267.34 -34.9236 1268.25 -21.9237C1269.13 -9.75922 1276.96 -2.41057 1283.72 8.58616C1286.07 -9.485 1289.66 -25.3434 1289.73 -41.2543C1289.81 -57.1099 1280.13 -68.2815 1266 -75.1447C1260.44 -77.8223 1254.92 -80.672 1249.99 -84.6514C1245.35 -88.3847 1241.49 -93.045 1240.48 -98.6425C1238.8 -107.693 1233.99 -114.486 1228.18 -120.887C1227.68 -121.446 1226.64 -121.945 1226.57 -122.553C1224 -140.125 1205.77 -153.246 1212.53 -173.494C1213.84 -177.449 1211.68 -181.069 1210.06 -184.751C1203.78 -199.273 1209.91 -212.395 1214.97 -225.396C1216.28 -228.792 1220.07 -229.163 1223.68 -227.273C1229.84 -224.104 1232.6 -218.535 1233.21 -212.054C1234.12 -202.525 1237.75 -194.59 1243.62 -187.133C1249.95 -179.054 1254.39 -169.756 1254.76 -159.103C1255.13 -149.513 1258.19 -141.235 1264.99 -134.33C1268.45 -130.8 1271.8 -126.306 1271.92 -121.391C1272.32 -104.19 1286.37 -90.7105 1284.28 -72.7251C1283.71 -68.0138 1289.26 -64.4946 1291.87 -58.7973C1296.09 -77.2476 1296.57 -94.4359 1292.8 -111.426C1291.46 -117.49 1285.03 -121.582 1284.71 -128.88C1284.47 -134.845 1284.85 -140.263 1287.82 -145.525C1293.22 -154.981 1293.89 -164.576 1288.6 -174.674C1284.28 -182.867 1286.35 -191.22 1290.72 -198.655C1294.71 -205.544 1295.73 -212.043 1292.32 -219.498C1289.5 -225.619 1291.3 -231.982 1295.29 -236.463C1301.12 -243 1301.48 -250.488 1301.42 -258.376C1301.39 -259.66 1301.23 -261.042 1301.53 -262.252C1302.74 -266.643 1304.36 -271.642 1309.39 -271.76C1314.19 -271.854 1316.43 -267.57 1317.88 -262.918C1320.06 -255.716 1320.69 -248.62 1319.33 -241.188C1318.32 -235.642 1319.25 -230.204 1322.11 -225.207C1328.29 -214.536 1330 -203.25 1324.35 -192.142C1318.79 -181.212 1325.66 -169.276 1319.18 -157.235C1326.75 -159.599 1330.39 -162.753 1331.93 -169.03C1335.33 -183.076 1339.66 -186.476 1353.66 -186.597C1357.87 -186.624 1361.08 -188.218 1363.54 -191.687C1366.48 -195.769 1369.99 -199.132 1374.91 -200.639C1379.77 -202.139 1385.03 -205.083 1388.85 -199.298C1392.68 -193.514 1392.41 -187.101 1387.8 -181.822C1384.94 -178.587 1381.31 -175.771 1377.49 -173.772C1372.27 -171 1370.21 -166.905 1369.64 -161.296C1368.37 -149.171 1362.94 -142.904 1351.45 -140.433C1347.01 -139.485 1344.88 -136.557 1343.56 -132.712C1339.69 -121.357 1333.09 -114.342 1320.16 -115.853C1316.23 -116.305 1313.79 -113.175 1311.86 -109.822C1303.14 -94.3927 1299.1 -77.7546 1299.3 -59.8592C1308.59 -65.8338 1314.43 -73.3229 1315.82 -85.2947C1317.29 -98.059 1322.92 -108.884 1338.1 -110.147C1343.31 -110.566 1347.41 -113.996 1350.34 -118.693C1356.92 -129.235 1364.33 -138.356 1377.68 -140.813C1385.08 -142.207 1390.62 -147.479 1393.99 -155.025C1396.09 -159.741 1399.8 -163.743 1405.09 -165.348C1412.19 -167.491 1416.64 -172.641 1420.26 -178.983C1423.27 -184.307 1427.13 -188.941 1433.19 -190.576C1441.63 -192.927 1446.69 -187.337 1444.17 -178.598C1443.54 -176.344 1442.64 -174.115 1441.56 -172.089C1438.2 -165.887 1435.49 -159.87 1434.85 -152.406C1434 -142.848 1427.98 -135.562 1419.88 -130.673C1415.06 -127.778 1411.73 -123.819 1409.12 -118.766C1402.43 -105.693 1391.98 -97.4038 1379.58 -89.2882C1363.98 -79.13 1349.7 -71.7533 1330.28 -71.6368C1318.29 -71.5745 1308.01 -59.8324 1299.01 -50.3067C1297.73 -48.9872 1297.14 -47.4089 1296.87 -45.4187C1294.7 -29.1597 1292.31 -12.9315 1289.8 4.70949C1298.98 -1.30824 1307.33 -6.39303 1315.16 -12.2032C1318.2 -14.4487 1319.65 -18.5325 1320.19 -22.5681C1322.14 -37.3469 1332.05 -43.1673 1344.9 -45.2314C1349.42 -45.9643 1354.09 -47.2192 1356.57 -50.4666C1364.73 -61.1848 1376.59 -62.353 1388.14 -64.3262C1394.64 -65.395 1399.74 -68.2099 1403.71 -73.3602C1408.34 -79.37 1414.3 -82.8414 1421.68 -84.4561C1427.02 -85.6182 1431.33 -88.6242 1434 -94.1322C1437.6 -101.593 1442.77 -107.663 1451.22 -109.904C1454.79 -110.81 1456.37 -113.843 1458.17 -116.79C1461.54 -122.377 1466.53 -124.676 1472.63 -122.059C1478.73 -119.442 1479.56 -113.993 1478.02 -108.164C1476.38 -101.82 1474.81 -95.3709 1470.34 -90.3316C1466.16 -85.6053 1465.19 -79.6166 1463.43 -73.8743C1459.35 -60.4799 1450.8 -51.2855 1437.72 -46.8442C1433.66 -45.4904 1430.45 -43.3925 1427.7 -40.0593C1422.22 -33.3377 1415.36 -29.0379 1406.52 -28.8253C1400.73 -28.7325 1396.28 -25.9354 1392.15 -22.2227C1384.59 -15.4355 1376.97 -8.75284 1365.82 -9.56828C1362.84 -9.7923 1360.85 -7.04822 1358.5 -5.55154C1350.08 -0.0675305 1341.36 1.1958 1332.29 -3.49401C1324.91 -7.30989 1318.57 -6.25938 1311.21 -2.57436C1295.03 5.40863 1284.86 16.2416 1285.62 36.2017C1286.02 46.1234 1283.27 56.1774 1281.89 66.8039C1297.2 60.3743 1310.83 54.4713 1316.27 36.612C1320.42 22.8736 1333.16 17.4061 1347.31 20.1227C1354.59 21.5426 1360.74 19.73 1365.43 14.2732C1372.36 6.21373 1380.62 3.26677 1390.9 5.58034C1399.99 7.57946 1408.07 6.4446 1414.44 -1.66452C1417.65 -5.77741 1422.37 -7.14893 1427.71 -5.8476C1430.92 -5.03362 1434.34 -4.85834 1437.59 -4.16103C1444.2 -2.83391 1449.77 -4.41359 1454.22 -9.67406C1460.45 -17.04 1468.22 -20.9396 1477.9 -20.5187C1482.91 -20.2989 1487.54 -21.4924 1491.9 -24.0561C1500.99 -29.4473 1510.77 -28.5902 1520.26 -25.9641C1531.12 -22.9312 1533.73 -12.307 1526.08 -3.8858C1522.33 0.232715 1517.74 2.76545 1512.26 4.11171C1505.27 5.79442 1498.17 7.88252 1493.75 14.3164C1486.59 24.6425 1478.86 33.3522 1464.96 33.8549C1457.82 34.0999 1451.79 38.9227 1445.74 43.0206C1435.56 49.879 1424.57 54.4207 1411.97 54.3288C1402.6 54.2645 1393.94 58.0405 1385.36 61.5277C1379.13 64.0773 1372.99 64.5444 1366.56 62.3021C1360.46 60.1891 1354.42 60.4783 1348.63 63.5382C1341.6 67.242 1334.05 67.7017 1327.05 64.4022C1317.11 59.7545 1308.51 62.6274 1299.05 66.1015C1284.6 71.4262 1277.48 80.6834 1276.91 96.5938C1276.59 106.877 1273.96 117.085 1272.29 128.024C1283.39 124.029 1291.92 119.092 1298.54 109.835C1306.77 98.2687 1317.76 90.8152 1333.05 96.8748C1336.78 98.3589 1340.06 96.8693 1343.02 94.5192C1352.87 86.6899 1363.43 84.1567 1375.34 89.8137C1385.29 94.572 1395.39 93.3777 1405.29 89.3511C1415.02 85.398 1424.71 84.8666 1434.49 89.1394C1438.76 91.011 1442.32 90.5537 1445.49 86.6681C1451.17 79.701 1458.7 78.0127 1467.09 80.091C1474.8 81.9659 1482.18 81.8624 1489.71 78.7734C1495.31 76.4628 1501.32 77.2978 1507.07 79.3367C1511.06 80.7351 1513.95 83.0415 1514.76 87.3733C1515.63 92.1474 1513.14 95.3396 1509.67 98.027C1504.28 102.218 1497.82 104.177 1491.54 106.229C1486.47 107.865 1482.34 110.57 1478.79 114.553C1470.33 124.018 1459.9 129.672 1447.25 130.594C1435.26 131.498 1424.21 135.486 1413.75 141.312C1407.31 144.894 1400.73 145.748 1393.67 143.855C1384.7 141.451 1376.03 142.708 1367.18 145.328C1355.95 148.666 1344.53 149.841 1333.45 143.754C1329.54 141.619 1325.17 140.712 1320.73 141.66C1314.53 143.03 1309.86 140.421 1305.4 136.276C1295.55 127.027 1281.59 127.032 1272.11 136.219C1270.98 137.355 1270.39 139.437 1270.15 141.144C1267.11 166.292 1264.14 191.488 1261.22 216.679C1261.11 217.643 1261.61 218.651 1261.9 220.298C1271.55 214.115 1280.42 208.244 1285.61 197.413C1292.29 183.333 1303.12 174.497 1319.6 175.44C1324.45 175.733 1327.85 172.886 1331.26 170.15C1337.29 165.272 1343.77 163.588 1351.41 165.752C1360.01 168.254 1368.29 166.929 1375.25 161.161C1383.01 154.688 1391.02 154.4 1399.5 159.157C1408.9 164.425 1417.64 164.783 1426.73 157.936C1432.78 153.335 1439.94 152.696 1447.07 156.764C1451.93 159.576 1456.45 160.354 1461.88 156.551C1468.17 152.091 1475.33 152.515 1482.17 156.896C1487.84 160.513 1493.48 162.509 1499.5 156.624C1502.95 153.267 1508.24 153.118 1512.58 155.15C1517.6 157.495 1522.44 157.678 1527.59 156.706C1529.84 156.284 1532.21 155.906 1534.48 156.154C1540.57 156.811 1546.43 158.782 1548.89 165.057C1551.26 171.061 1548.86 176.483 1544.35 180.687C1541.92 182.921 1540.22 186.304 1536.81 187.191C1525.33 190.221 1515.75 196.06 1508.58 206.78C1517.18 202.955 1525.86 202.256 1534.74 203.831C1538.6 204.517 1542.25 205.841 1545 208.891C1551.06 215.544 1549.86 220.494 1541.47 223.287C1531.02 226.761 1523.27 232.786 1518.75 243.71C1514.74 253.4 1506.01 258.024 1495.84 258.106C1488.29 258.173 1481.77 258.068 1475.7 264.519C1470.86 269.601 1463.02 270.988 1455.62 270.422C1445.19 269.638 1435.72 271.097 1426.46 277.403C1418.27 282.918 1408.55 286.085 1397.99 284.644C1391.32 283.716 1384.81 284.785 1379.1 289.46C1371.58 295.682 1362.83 295.213 1354.24 292.318C1345.99 289.607 1338.72 289.194 1332.87 297.077C1331.73 298.605 1329.48 299.475 1327.57 300.026C1318.59 302.494 1309.17 302.38 1300.33 306.119C1295.89 308.019 1291.3 304.673 1287.63 301.727C1283.96 298.725 1279.95 298.169 1276.03 299.787C1267.4 303.335 1259.99 309.041 1252.76 314.895C1251.51 315.932 1250.9 317.289 1250.88 319.028C1250.1 339.945 1249.22 360.874 1248.57 381.834C1248.26 390.324 1248.29 398.887 1248.19 409.146C1257.8 400.168 1267.69 394.685 1276.81 388.115C1280.96 385.127 1282.76 380.669 1282.46 375.103C1281.59 356.611 1287.18 350.325 1305.6 348.586C1309.76 348.172 1312.07 345.336 1313.93 342.383C1319.38 333.874 1327.57 332.672 1336.25 333.485C1341.11 333.889 1345.97 334.237 1350.75 334.875C1356.81 335.704 1360.68 333.139 1363.86 328.75C1371.8 317.608 1381.92 313.667 1394.81 318.711C1401.16 321.187 1405.52 317.56 1409.08 313.687C1419.61 302.142 1431.3 297.128 1447.02 302.076C1456.38 304.997 1463.91 298.941 1469.76 292.011C1479.37 280.569 1490.42 277.084 1503.98 283.787C1506.53 285.067 1508.77 284.983 1511.23 283.474C1515.37 280.935 1519.65 278.549 1524 276.324C1537.82 269.223 1546.99 270.485 1558.44 280.841C1564.72 286.517 1565.09 293.754 1558.95 299.935C1552.7 306.183 1545.13 309.947 1536.27 310.049C1526.37 310.157 1519.86 315.538 1515.42 323.766C1510.89 332.116 1504.39 336.208 1495.14 337.139C1486.91 337.954 1479.42 340.533 1474.05 348.25C1469.34 355.052 1461.41 357.066 1453.63 357.494C1441.11 358.121 1430.25 361.361 1421.17 371.12C1416.43 376.245 1409.1 377.687 1401.85 376.992C1393.05 376.136 1385.53 377.487 1379.24 385.252C1371.3 394.994 1359.88 394.712 1348.61 392.791C1345.09 392.179 1341.58 391.175 1338.25 389.814C1331.89 387.228 1326.19 388.205 1321.06 392.648C1312.88 399.785 1303.95 400.734 1293.82 397.285C1280.22 392.658 1254.3 404.146 1248.94 417.348C1245.91 424.914 1248.34 433.431 1247.66 441.459C1247.1 448.186 1248.26 455.11 1247.81 461.88C1247.41 468.477 1248.08 474.953 1248.3 482.263C1258.66 479.023 1268.84 476.084 1279.29 474.067C1282.93 473.321 1285.98 470.289 1287.99 466.759C1289.41 464.248 1290.71 461.693 1292.24 459.225C1299.37 447.671 1311.3 445.655 1321.57 454.24C1329.79 461.153 1332.73 461.494 1339.74 453.705C1348.74 443.731 1358.02 440.557 1370.39 447.843C1376.25 451.27 1383.05 450.392 1388 444.794C1394.32 437.644 1401.84 435.396 1410.95 437.561C1422.09 440.226 1431.13 436.463 1436.4 426.294C1443.65 412.375 1454.64 407.944 1469.09 410.796C1476.64 412.24 1482.54 410.679 1486.89 403.582C1491.75 395.699 1500.04 394.933 1508.07 394.811C1516.43 394.654 1522.15 391.993 1526.55 383.827C1531.7 374.174 1540.69 367.954 1551.71 366.097C1556.38 365.29 1558.92 363.044 1560.62 358.709C1563.21 352.033 1569.07 349.582 1575.31 349.158C1581.29 348.764 1585.89 350.765 1586.67 358.685C1588.45 376.403 1584.92 384.024 1568.97 391.645C1564.3 393.907 1560.04 396.458 1558.81 401.581C1554.94 417.807 1544.25 426.404 1529.14 429.786C1523.74 431.01 1520.53 434.06 1518.26 438.684C1513.62 448.109 1506.86 454.694 1496.2 456.288C1495.01 456.422 1493.56 457.09 1492.95 458.054C1485.22 469.62 1472.72 470.413 1461 472.798C1454.52 474.088 1450.08 477.947 1445.61 482.483C1435.93 492.364 1425.12 498.958 1410.6 493.931C1405.53 492.206 1401.12 493.879 1397.29 497.727C1392.17 502.895 1387.1 507.891 1380.26 510.901C1373.95 513.684 1368.02 514.464 1361.94 510.502C1359.21 508.681 1356.48 507.757 1353.29 509.517C1337.67 518.164 1325.02 510.295 1312.94 501.185C1307.62 497.193 1303.67 491.31 1298.58 486.9C1287.05 476.833 1274.4 480.722 1262.03 484.635C1246.86 489.48 1247.81 489.653 1248.19 506.13C1248.87 532.706 1251.02 559.173 1253.23 585.689C1253.52 589.24 1253.07 592.987 1255.31 596.878C1262.11 591.073 1269.87 587.063 1276.85 582.02C1281.76 578.443 1284.78 572.671 1287.12 566.696C1292.81 552.056 1298.27 548.474 1313.82 548.569C1320.34 548.618 1325.41 546.927 1329.68 541.126C1337.7 530.143 1350.55 526.568 1362.32 534.369C1369.41 539.057 1376.16 538.185 1382.6 532.195C1394.1 521.548 1407.04 520.202 1421.11 527.072C1430.49 531.614 1436.01 530.545 1441.84 522.048C1448.67 512.152 1457.29 508.492 1469.02 510.138C1478.14 511.406 1485.5 507.721 1490.16 499.02C1496.41 487.397 1505.23 479.18 1518.82 477.817C1521.68 477.494 1524.44 477.632 1527.25 478.322C1540.36 481.437 1549.94 477.054 1555.22 464.644C1559.95 453.639 1567.75 447.049 1579.43 447.245C1589.03 447.395 1594.05 442.35 1597.95 434.743C1602.94 424.998 1610.4 417.381 1618.75 410.785C1626.14 404.969 1634.11 404.798 1640.84 409.639C1647.34 414.339 1648.91 421.049 1645.84 430.746C1644.68 434.517 1643.35 438.306 1640.55 441.142C1634.31 447.5 1631.24 454.734 1630.58 463.991C1629.85 474.544 1622.97 481.087 1612.69 482.637C1607.52 483.388 1605.14 486.064 1603.34 490.522C1601.89 494.158 1599.92 497.571 1597.94 500.93C1594.35 506.934 1589.2 510.314 1582.16 510.492C1579.1 510.557 1575.94 510.744 1572.95 511.362C1565.72 512.792 1559.82 515.305 1556.21 523.214C1549.49 537.915 1538.35 543.034 1522.84 539.407C1514.51 537.433 1508.91 539.688 1504.94 547.247C1502.59 551.655 1499.34 555.381 1495.61 558.713C1488.3 565.304 1480.4 566.642 1471.46 562.106C1460.26 556.425 1456.28 557.994 1449.1 568.154C1440.97 579.652 1429.07 584.297 1415.65 583.289C1409.03 582.804 1403.8 583.505 1398.97 588.25C1392.11 594.958 1383.38 596.165 1374.55 594.529C1364.6 592.738 1355.82 594.511 1347.53 600.149C1335.63 608.21 1324.03 607.726 1312.87 598.119C1309.9 595.542 1306.84 593.143 1303.63 590.873C1295.55 585.177 1287.46 583.4 1277.97 588.557C1254.61 601.325 1254.17 601.822 1257.93 628.5C1259.9 642.557 1261.16 656.75 1263.01 673.228C1276.92 658.165 1293.77 650.779 1305.81 637.103C1308.15 634.489 1309.39 631.437 1310.56 628.225C1316.53 612.154 1329.9 604.936 1346.25 609.7C1352.2 611.438 1356.92 611.074 1360.75 606.219C1366.07 599.46 1372.9 597.402 1380.69 599.996C1397.52 605.603 1410.32 601.585 1423.31 588.586C1434.88 577.036 1447.98 577.239 1461.52 586.184C1465.19 588.626 1468.92 591.118 1472.98 592.676C1479.73 595.22 1485.79 594.648 1490.62 587.889C1498.23 577.176 1502.92 576.032 1515.67 580.418C1521.82 582.525 1525.93 579.599 1529.63 575.038C1534.63 568.875 1538.76 561.802 1547.44 559.647C1552.66 558.332 1557.71 558.939 1562.73 559.324C1577.16 560.554 1587.74 554.323 1591.43 540.412C1595.04 526.79 1603.19 518.873 1616.49 515.919C1624.29 514.2 1628.78 509.83 1629.13 500.775C1629.49 491.327 1635.34 484.901 1643.67 484.522C1650.58 484.191 1652.89 480.851 1653.94 474.574C1655.75 463.898 1661.54 456.919 1672.2 453.87C1681.69 451.176 1688.2 455.034 1693.7 462.086C1699.2 469.137 1696.86 476.568 1693.88 483.679C1691.95 488.377 1688.57 492.398 1684.47 494.931C1677.2 499.39 1675.8 505.427 1676.87 513.482C1678.32 524.965 1676.7 527.163 1666.87 531.687C1659.02 535.296 1656.68 541.552 1659.83 550.454C1664.88 548.598 1670.06 547.454 1675.48 547.459C1685.28 547.475 1690.6 554.379 1688.07 564.015C1687.45 566.269 1686.62 568.658 1685.23 570.438C1678.96 578.424 1674.45 586.548 1676.64 597.724C1677.6 602.879 1672.17 606.235 1667.78 608.522C1658.3 613.341 1652.89 620.726 1652.05 631.74C1651.14 643.602 1642.2 647.912 1632.85 650.422C1623.61 652.92 1616.64 656.169 1612.18 666.19C1607.64 676.445 1596.63 680.262 1586.31 682.937C1577.16 685.311 1569.47 689.481 1564.23 697.407C1554.82 711.626 1541.17 716.749 1525.3 717.305C1515.05 717.676 1506.46 721.108 1499.01 728.386C1490.78 736.482 1480.52 740.661 1469.02 740.669C1457.36 740.694 1448.02 745.219 1441.08 754.624C1431.11 768.179 1417.6 771.661 1402.1 768.704C1389.07 766.197 1378.06 768.613 1368.58 778.753C1359.3 788.702 1347.43 789.311 1336.03 783.372C1325.81 778.085 1317.78 781.229 1309.62 787.02C1308.61 787.75 1307.99 789.108 1307.04 789.887C1289.96 803.963 1295.31 820.438 1301.12 838.038C1312.49 872.537 1322.5 907.526 1333.34 942.197C1336.85 953.393 1341.25 964.32 1345.39 975.333C1346.63 978.608 1347.43 981.822 1346.78 985.311L1346.95 984.844ZM1564.57 624.911C1554.43 630.645 1544.13 629.622 1533.52 628.69C1526.33 628.045 1517.65 625.327 1511.94 632.97C1503.76 643.971 1492.71 647.007 1479.93 645.76C1470.02 644.805 1461.29 645.06 1454.09 654.496C1448.36 661.973 1439.09 663.745 1430.26 659.197C1420.15 654.064 1411.26 654.842 1402.29 661.732C1389.35 671.702 1375.98 672.089 1362.6 662.118C1361.4 661.189 1359.96 660.567 1358.31 659.576C1356.78 661.486 1355.22 663.229 1353.84 665.064C1341.19 681.608 1330.04 682.697 1314.9 668.781C1297.87 653.117 1293.43 653.058 1275.7 668.27C1269.36 673.744 1264.78 678.236 1266.97 689.468C1273.19 721.413 1278.86 753.418 1286.46 785.038C1287.68 789.997 1287.68 795.876 1291.86 800.445C1297.19 792.341 1302.68 785.171 1308.89 778.536C1312.25 774.853 1314.04 769.781 1313.64 764.786C1312.52 750.465 1320.92 742.407 1331.44 736.126C1334.77 734.127 1337.18 732.175 1338.77 728.749C1346.22 712.231 1360.17 704.835 1376.68 705.662C1391.16 706.383 1400.67 700.887 1408.8 689.948C1415.31 681.096 1423.91 676.318 1435.09 675.954C1442.68 675.716 1449.93 676.914 1457.03 679.25C1464.82 681.788 1471.05 679.742 1476.48 673.979C1478.97 671.346 1481.53 668.762 1484.14 666.227C1493.02 657.5 1503.33 651.803 1515.91 653.185C1526.32 654.307 1535.55 650.691 1545.08 647.825C1548.1 646.925 1550.44 644.814 1552.03 641.891C1555.33 635.696 1559.28 629.931 1564.63 624.905L1564.57 624.911ZM1251.9 305.249C1256.69 302.526 1260.18 300.453 1263.68 298.546C1271.72 294.057 1277.28 288.054 1278.06 277.888C1278.51 272.126 1282.58 268.419 1288.39 268.044C1291.76 267.832 1293.48 266.575 1294.56 263.486C1298.05 253.574 1305.61 249.754 1315.3 248.829C1326.24 247.765 1337.02 246.718 1346.8 240.24C1352.66 236.388 1359.85 236.082 1366.12 241.703C1369.83 244.98 1374.19 245.329 1377.94 241.659C1388.06 231.784 1400.47 230.217 1413.69 230.911C1423.81 231.394 1434.3 233.628 1443.13 225.97C1451.51 218.698 1460.68 217.048 1470.92 221.942C1475.89 224.293 1481.22 225.429 1486.22 221.674C1491.47 217.723 1496.77 213.765 1502.02 209.814C1492.2 210.585 1482.62 211.104 1473.23 208.411C1468.83 207.172 1464.22 207.13 1460.29 208.693C1451.39 212.272 1442.73 210.728 1433.89 209.036C1426.51 207.629 1419.06 206.62 1412.28 211.08C1401.27 218.312 1390.7 218.775 1379.42 210.975C1369.81 204.331 1359.81 204.505 1350.29 212.298C1344.72 216.845 1338.07 219.05 1330.8 216.678C1325.57 214.971 1321.47 216.497 1317.36 219.872C1310.09 225.787 1301.4 225.478 1294.37 220.839C1285.61 214.995 1278.45 215.074 1270.88 221.75C1267.09 225.033 1260.61 226.323 1259.92 231.888C1256.87 255.918 1254.49 280.04 1251.7 305.384L1251.9 305.249ZM1253.58 222.692C1253.96 221.697 1254.32 221.04 1254.41 220.358C1257.66 194.683 1260.85 169.013 1263.98 143.294C1264.15 141.82 1263.83 140.008 1263.15 138.797C1257.86 129.706 1242.8 124.292 1233.32 128.159C1222.91 132.412 1213.29 133.552 1204.09 124.734C1194.34 115.362 1181.95 117.654 1167.99 117.211C1175.32 122.488 1180.31 127.469 1183.38 133.843C1187.52 142.447 1194.59 146.859 1203.17 148.692C1223.3 152.919 1233.21 167.592 1235.52 186.202C1237.38 201.28 1244.85 211.749 1253.58 222.747L1253.58 222.692ZM1120.24 98.0102C1128.09 118.235 1144.4 117.686 1160.89 113.868C1150.64 101.08 1144.68 98.7278 1120.24 98.0102ZM1568.76 622.759C1577.49 618.08 1589.46 619.419 1595.22 608.299C1581 603.518 1575.75 614.804 1568.76 622.759ZM1630.23 586.603C1638.22 580.271 1640.04 572.563 1643.03 565.618C1633.82 568.841 1632.35 576.733 1630.23 586.603Z" fill="#4E7637"/>
<path d="M2614.79 125.849C2682.33 106.068 2742.82 80.1087 2792.14 49.6386C2794.62 48.0599 2797.44 45.9706 2795.65 44.1923C2793.86 42.414 2786.36 43.6681 2788.66 45.3175C2836.84 32.2202 2854.97 2.82068 2868.49 -23.7197C2877.48 -41.1585 2886.29 -58.5543 2895.27 -75.993C2897.58 -80.5015 2899.72 -85.3918 2895.64 -89.4565C2891.56 -93.5211 2878.01 -95.0942 2873.23 -91.1304C2885.13 -117.581 2891.91 -144.653 2893.33 -171.752C2883.1 -168.324 2873.03 -164.939 2862.8 -161.511C2865.46 -174.811 2866.6 -188.149 2866.2 -201.525C2866.05 -210.4 2864.1 -220.205 2851.5 -226.367C2838.73 -232.487 2811.7 -230.877 2808.96 -222.12C2803.46 -241.214 2797.78 -260.265 2792.28 -279.359C2791.27 -283.136 2788.8 -287.715 2781.39 -288.712C2776.7 -289.335 2771.59 -288.258 2766.98 -288.796C2758.89 -289.833 2756.6 -294.88 2755.58 -299.081C2753.47 -310.116 2751.28 -321.236 2749 -332.229C2747.48 -339.486 2745.79 -347.125 2736.34 -352.703C2726.89 -358.28 2707.12 -359.877 2698.41 -354.075C2681.04 -362.007 2683.96 -375.69 2680.15 -387.357C2676.34 -399.025 2651.9 -411.649 2632.54 -404.754C2620.65 -426.589 2602.87 -447.684 2580.15 -467.321C2573.92 -463.098 2567.69 -458.875 2561.55 -454.78C2539.34 -477.306 2517.14 -499.832 2495.11 -522.401C2493.09 -491.436 2438.83 -466.514 2431.95 -435.705C2429.97 -427.248 2427.56 -415.817 2410.68 -414.535C2406.76 -414.183 2402.76 -414.553 2398.83 -414.202C2387.15 -413.062 2382.11 -406.168 2379.29 -400.468C2371.16 -383.882 2362.94 -367.379 2354.98 -350.836C2351.64 -343.946 2344.64 -335.601 2330.57 -335.347C2321.11 -335.191 2310.98 -339.11 2302.87 -336.537C2298.44 -335.208 2296.9 -332.485 2295.62 -329.933C2282.27 -303.436 2273.43 -276.272 2269.37 -249.038C2258.13 -250.661 2246.71 -252.24 2235.46 -253.863C2226.88 -227.932 2229.05 -201.099 2241.61 -175.613C2232.07 -177.878 2222.53 -180.143 2213.16 -182.45C2223.06 -149.61 2241.75 -117.39 2268.89 -87.1923C2258.06 -88.1791 2247.07 -89.1229 2236.33 -90.0249C2261.58 -58.2924 2293.49 -27.8116 2331.28 0.655699C2322.16 -2.67188 2314.9 6.26816 2317.79 11.6953C2345.89 66.9039 2453.56 100.895 2552.3 129.391C2563.33 197.179 2562.77 265.978 2559.91 333.978C2504.93 291.165 2566.76 228.467 2511.79 185.655C2509.99 188.761 2508.11 191.782 2506.14 194.93C2490.93 174.252 2471.27 154.266 2447.87 135.65C2439.77 138.647 2435.5 143.969 2437.45 148.889L2329.31 92.5194C2330.49 98.3764 2331.5 104.276 2332.77 110.218C2289.83 96.8422 2246.98 83.3387 2204.05 69.9629C2203.96 74.125 2203.61 78.2454 2203.51 82.4075C2170.98 68.958 2130.51 60.3736 2088.32 57.9522C2094.19 62.9458 2099.98 68.0669 2105.85 73.0605C2063.34 59.2587 2011.79 52.4064 1960.98 53.9604C1963.28 59.0072 1965.65 64.1387 1968.11 69.1425C1949.55 61.2992 1928.43 53.039 1904.05 53.4519C1879.67 53.8649 1856.54 68.5006 1871.01 78.2247C1843.24 69.5173 1812.65 62.8993 1780.87 58.9178C1781.28 64.4374 1781.87 69.914 1782.28 75.4335C1765.93 71.066 1747.52 68.7005 1728.94 68.5015C1737.96 74.9294 1714.94 80.5196 1699.25 80.2269C1677.52 79.8675 1655.7 79.6356 1633.96 79.2762C1665.97 99.2249 1701.65 117.719 1740.32 134.505C1733.5 133.888 1726.25 134.547 1720.11 136.307C1738.07 152.263 1761.31 166.675 1788.64 178.781C1776.63 177.033 1763.67 177.115 1751.74 179.062C1771.39 196.287 1798.13 211.41 1829.98 223.333C1817.88 224.261 1806.03 225.231 1793.92 226.159C1821.33 245.145 1856.25 261.39 1896.11 273.841C1886.14 274.55 1876.25 275.132 1866.27 275.841C1899.81 298.588 1950.75 314.615 2006.32 320.139C1994.89 322.382 1983.38 324.752 1971.95 326.995C2013.27 337.7 2058.69 344.189 2105.23 346.045C2097.38 349.933 2089.7 353.778 2081.93 357.751C2139.53 371.253 2205.66 375.386 2268.41 369.337C2257.41 371.153 2254.41 379.019 2260.8 383.884C2267.01 388.791 2278.85 391.006 2290.19 392.076C2324.02 395.33 2360.51 390.591 2387.3 379.597L2376.71 390.543C2411.82 394.642 2445.08 382.226 2475.45 372.452C2505.81 362.679 2549.13 355.371 2575.18 367.694C2613.01 464.067 2635.83 560.825 2661.9 658.252C2629.83 625.691 2597.58 593.173 2565.51 560.611C2560.99 563.767 2556.38 566.839 2552.03 569.952C2529.56 551.631 2503.09 534.639 2473.45 519.184C2471.74 523.861 2469.94 528.453 2468.23 533.129C2440.21 520.346 2407.75 509.954 2372.74 502.542C2375.28 506.781 2377.83 511.02 2380.64 515.301C2349.63 506.349 2309.91 505.109 2276.91 512.258C2287.22 512.524 2297.19 515.424 2302.72 519.867C2265.73 519.001 2228.39 522.681 2194.71 530.426C2204.5 532.52 2214.39 534.486 2224.19 536.58C2189.14 540.635 2155.72 547.997 2125.86 558.067C2134.38 560.589 2142.73 563.155 2151.33 565.762C2112.88 569.614 2075.54 576.691 2041.42 586.349C2048.66 588.875 2055.9 591.401 2063.14 593.928C2025.97 596.927 1989.74 602.981 1956.31 611.83C1958.94 616.366 1964.64 620.341 1972.14 623.121C1941.71 622.618 1910.85 625.938 1883.39 632.646C1919.67 646.849 1962.35 656.998 2007.35 662.214L1978.86 669.816C2004.5 678.317 2032.53 684.943 2062.1 689.271C2054.26 692.097 2046.58 694.881 2038.82 697.792C2071.7 707.97 2108.68 714.994 2146.94 718.192L2120.41 728.378C2173.07 738.455 2232.14 740.444 2287.3 733.865C2274.59 738.66 2285.9 749.922 2301.58 751.064C2317.27 752.206 2332.02 747.321 2345.07 742.652C2358.12 737.984 2372.96 733.183 2388.64 734.538C2382.67 739.652 2381.97 746.194 2386.91 751.53C2431.67 746.3 2473.63 735.09 2507.58 719.529C2507.66 724.498 2507.9 729.423 2508.06 734.476C2562.98 721.274 2607.69 697.485 2630.17 669.219C2634.1 664.196 2647.64 667.68 2655.56 671.309C2663.48 674.937 2665.6 680.664 2667.47 685.924C2683.73 735.308 2699.49 784.82 2710.99 834.558C2718.59 867.872 2735.07 896.828 2735 931.44C2734.85 966.816 2730 1002.21 2725.5 1037.51C2717.19 1100.94 2714.68 1164.61 2717.8 1228.13C2718.12 1235.26 2719.39 1243.33 2730.63 1247.71C2750.39 1255.46 2778.88 1244.46 2788.88 1232.93C2802.63 1216.83 2802.32 1198.87 2802.02 1181.54C2800.59 1125.66 2813.49 1071.9 2804.73 1016.38C2800.69 991.08 2750.14 907.358 2833 901.758C2861.64 899.846 2889.67 908.382 2907.38 919.626C2925.17 930.954 2934.94 944.726 2945.91 957.986C2957.05 971.202 2970.49 984.582 2993.24 993.389C2994.7 987.185 2995.99 981.023 2997.45 974.818C3020.42 997.257 3054.13 1016.99 3094.76 1031.9C3091.97 1022.74 3088.92 1013.53 3086.12 1004.36C3109.01 1023.96 3148.19 1038.7 3192.34 1044.35C3195.08 1037.5 3197.99 1030.61 3200.73 1023.77C3232.75 1037.13 3266.82 1049.13 3302.69 1059.73C3309.69 1051.81 3313.89 1043.22 3314.76 1034.51C3351.98 1045.61 3387.59 1057.86 3421.4 1071.31C3428.57 1067.16 3432.67 1061.67 3432.6 1056.28C3467.26 1067.81 3497.75 1082.63 3521.5 1099.67C3527.86 1072.18 3520.42 1043.91 3500.35 1018.2C3515.94 1019.89 3531.45 1021.5 3547.22 1023.15C3528.42 1001.89 3501.19 982.436 3467.72 966.357C3482.56 963.679 3497.48 961.086 3512.32 958.409C3488.12 950.073 3464.02 941.821 3439.83 933.485C3429.61 929.906 3418.53 925.905 3415.99 919.755C3413.53 913.69 3426.24 906.347 3437.32 909.286C3403.42 894.694 3359.54 885.908 3314.62 884.811C3322.9 878.798 3331.18 872.785 3339.46 866.773C3305.37 865.389 3271.11 865.534 3237.09 867.42C3243.84 860.52 3254.25 854.713 3265.17 849.414C3236.63 844.404 3157.89 832.409 3133.65 849.342C3143.29 842.56 3152.94 835.779 3162.59 828.998C3116.91 823.954 3044.5 844.216 3005.78 855.034C3011.34 847.798 3016.89 840.562 3022.28 833.369C2972.65 841.204 2947.05 859.33 2907.04 873.549C2871.13 886.313 2823.98 893.419 2780.59 895.333C2774.45 895.606 2755.81 839.18 2754.12 835.151C2733.42 783.275 2707.35 731.585 2702.17 678.771C2700.83 666.374 2706.8 664.02 2726.25 656.148C2744.51 648.789 2771.27 652.233 2793.51 656.073C2875.99 670.307 2958.47 684.541 3040.87 698.69C3027.07 691.767 3018.14 682.451 3016.11 672.774C3063.29 694.843 3129.07 706.706 3193.86 704.813C3176.74 698.41 3166.44 687.739 3166.98 676.993C3221.5 693.179 3288.99 698.242 3350.98 690.794C3333.69 683.584 3320.41 673.984 3313.36 663.346C3374.11 672.761 3441.28 671.753 3501.14 660.701C3488.71 654.283 3476.19 647.781 3463.67 641.278C3501.44 639.296 3538.95 635.786 3575.52 630.92C3594.96 628.356 3618.93 620.088 3609.57 611.41C3603.45 605.738 3584.36 602.483 3588.63 596.312C3590.52 593.504 3596.91 592.21 3602.45 591.344C3623.77 588.308 3647.38 587.77 3665.72 581.557C3684.23 575.301 3692.01 559.65 3673.1 553.803C3680.87 547.282 3701.75 548.069 3711.4 542.137C3715.32 539.662 3716.69 536.558 3718.57 533.537C3731.57 514.133 3772.08 503.182 3809.09 494.28C3771.18 485.9 3730.01 481.098 3688.42 480.331C3701.99 474.047 3715.72 467.721 3729.29 461.437L3623.69 454.407C3618.66 454.083 3612.7 453.464 3610.49 451.049C3608.95 449.525 3609.72 447.739 3609.98 446.082C3610.51 437.035 3592.2 430.083 3574.13 429.33C3556.06 428.578 3538.58 432.452 3522.12 436.281C3523.6 424.343 3497.1 415.42 3472.98 416.087C3448.86 416.754 3427.88 423.951 3408.17 430.933C3404.35 425.424 3405.3 419.135 3411.02 413.979C3356.29 418.858 3302.4 426.494 3250.56 436.587C3253.72 429.953 3256.8 423.446 3259.97 416.811C3224.33 425.369 3191.15 436.596 3162.05 449.975C3161.98 443.52 3161.74 437.109 3161.67 430.654C3127.72 442.392 3093.86 454.215 3059.91 465.953L3061.22 449.386C3008.51 464.578 2963.21 486.288 2930.68 511.993C2930.52 507.365 2930.36 502.736 2930.37 498.065C2895.55 516.813 2866.28 538.092 2843.56 561.008C2846.13 555.267 2848.69 549.526 2851.26 543.785C2809.79 568.031 2815.93 607.975 2766.63 628.253C2745.9 636.766 2718.1 640.374 2699.25 649.901C2669.51 558.388 2639.68 466.79 2609.95 375.276C2606.81 365.56 2627.62 361.378 2647.39 361.701C2667.17 362.024 2683.78 368.557 2700.39 374.028C2741.27 387.495 2789.08 395.93 2838.08 398.118C2828.72 392.413 2823.36 385.167 2823.04 377.821C2875.17 392.061 2932.95 401.061 2992.09 404.196C2976.85 397.107 2966.64 387.37 2963.42 377.145C3024.77 389.489 3092.27 394.34 3158.33 391.169C3148.03 384.107 3137.65 377.174 3127.35 370.113C3182.15 373.813 3237.98 374.495 3293.13 372.163C3281.13 365.319 3269.29 358.433 3257.29 351.589C3325.99 350.831 3394.62 342.343 3456.02 326.871L3415.65 312.425C3464.5 307.437 3510.98 296.681 3549.96 281.021C3536.77 271.93 3498.07 270.857 3503.8 259.968C3506.28 255.204 3517.2 253.09 3526.32 251.322C3563.16 244.162 3595.49 231.239 3617.51 214.866C3602.18 208.541 3591.29 199.614 3586.88 189.902C3613.57 185.405 3646.66 173.882 3634.16 161.434C3631.18 158.47 3625.73 155.811 3626.67 152.495C3627.45 149.648 3632.82 147.763 3637.6 146.135C3669.5 135.337 3696.03 120.691 3714.39 103.861C3670.08 99.323 3623.88 99.5042 3579.63 104.393C3587.91 99.4424 3592.52 92.9732 3592.03 86.5196C3566.62 88.8892 3540.96 91.2171 3515.55 93.5866C3509.5 94.1569 3502.42 94.5604 3498.08 92.3651C3490.93 88.8617 3498.1 82.5974 3494.36 78.0221C3489.6 72.006 3472.12 73.1202 3459.84 75.1531C3438.87 78.7408 3418.06 82.2856 3397.09 85.8734C3398.46 80.6457 3399.92 75.2905 3401.3 70.0629C3361.74 73.027 3323.62 80.8281 3291.13 92.5193C3293.52 85.9721 3296.01 79.2972 3298.41 72.75C3259.53 76.8162 3222.86 85.8444 3193 98.8867C3192.59 92.7301 3195.07 86.4801 3200.63 80.9426C3168.4 83.7573 3138.21 92.0017 3116.19 104.129C3116.8 98.9882 3117.41 93.8479 3118.1 88.7922C3075.64 95.8843 3036.4 108.105 3004.67 123.956C3009.1 123.051 3007.15 119.405 3002.72 118.611C2998.28 117.817 2993.42 118.936 2989.33 119.968C2949.85 130.236 2913 143.13 2880.15 158.092C2882.38 153.286 2878.55 147.989 2870.89 145.04C2850.06 158.989 2834.26 174.749 2824.34 191.469C2818.73 183.544 2815.68 175.188 2815.35 166.78C2792.12 189.825 2770.77 213.246 2751.29 237.044C2757.26 231.505 2738.52 226.253 2728.03 229.852C2717.71 233.408 2715.65 240.506 2714.62 246.709C2711.25 265.915 2708.06 285.077 2704.7 304.283C2701.05 297.032 2687.93 291.211 2673.02 290.406C2685.35 302.685 2683.11 318.32 2667.32 329.621C2651.53 340.922 2622.62 347.464 2595.17 345.89C2591.37 286.574 2587.74 227.215 2583.93 167.899C2582.61 148.283 2582.38 135.713 2616.4 125.759L2614.79 125.849Z" fill="#C9D691"/>
</g>
<defs>
<clipPath id="clip0_156_2973">
<rect width="1440" height="300" fill="white"/>
</clipPath>
</defs>
</svg>
