<svg width="15" height="15" viewBox="0 0 15 15" fill="none" xmlns="http://www.w3.org/2000/svg">
<path d="M14.4005 13.9543L11.0236 10.5762H10.9749C11.4403 10.0349 11.8056 9.42042 12.0708 8.73289C12.3359 8.04537 12.4685 7.31724 12.4685 6.54852C12.4685 5.68234 12.3008 4.87031 11.9652 4.11241C11.6405 3.3545 11.1968 2.69405 10.634 2.13104C10.0711 1.56802 9.41092 1.12411 8.65328 0.799296C7.89565 0.474482 7.08931 0.312075 6.23426 0.312075C5.36839 0.312075 4.55664 0.474482 3.799 0.799296C3.04137 1.12411 2.38114 1.56802 1.81833 2.13104C1.25551 2.69405 0.811753 3.3545 0.487052 4.11241C0.162351 4.87031 0 5.68234 0 6.54852C0 7.40386 0.162351 8.21048 0.487052 8.96838C0.811753 9.72628 1.25551 10.3894 1.81833 10.9579C2.38114 11.5263 3.04137 11.9729 3.799 12.2977C4.55664 12.6225 5.36839 12.785 6.23426 12.785C7.00272 12.785 7.73059 12.6523 8.41787 12.3871C9.10516 12.1218 9.7248 11.7564 10.2768 11.2908L10.2606 11.307C10.2606 11.307 10.2606 11.3125 10.2606 11.3233C10.2606 11.3341 10.2606 11.3395 10.2606 11.3395L13.6374 14.7176C13.6807 14.7609 13.7349 14.7961 13.7998 14.8232C13.8647 14.8502 13.9351 14.8638 14.0108 14.8638C14.0758 14.8638 14.1407 14.8502 14.2057 14.8232C14.2706 14.7961 14.3247 14.7609 14.368 14.7176C14.4221 14.6743 14.4654 14.6175 14.4979 14.5471C14.5304 14.4767 14.5466 14.4036 14.5466 14.3278C14.5466 14.252 14.5331 14.1844 14.506 14.1248C14.479 14.0653 14.4438 14.0084 14.4005 13.9543ZM6.23426 11.7293C5.51992 11.7293 4.84346 11.594 4.20488 11.3233C3.57712 11.0526 3.02784 10.6818 2.55702 10.2108C2.0862 9.73982 1.7155 9.19034 1.44492 8.56237C1.17434 7.92356 1.03904 7.24687 1.03904 6.53227C1.03904 5.81768 1.17434 5.14099 1.44492 4.50218C1.7155 3.87421 2.0862 3.32473 2.55702 2.85375C3.02784 2.38277 3.57712 2.01194 4.20488 1.74126C4.84346 1.47058 5.51992 1.33524 6.23426 1.33524C6.9486 1.33524 7.62506 1.47058 8.26364 1.74126C8.8914 2.01194 9.44068 2.38277 9.9115 2.85375C10.3823 3.32473 10.753 3.87421 11.0236 4.50218C11.2942 5.14099 11.4295 5.81768 11.4295 6.53227C11.4295 7.24687 11.2942 7.92356 11.0236 8.56237C10.753 9.19034 10.3823 9.73982 9.9115 10.2108C9.44068 10.6818 8.8914 11.0526 8.26364 11.3233C7.62506 11.594 6.9486 11.7293 6.23426 11.7293Z" fill="#1F1F1F"/>
</svg>
