<svg width="59" height="60" viewBox="0 0 59 60" fill="none" xmlns="http://www.w3.org/2000/svg">
<rect x="0.460856" y="0.539469" width="58.0678" height="58.0678" rx="29.0339" stroke="#1F1F1F" stroke-width="0.921711"/>
<path d="M42.331 20.6573L37.0641 18.5505C36.9383 18.5001 36.798 18.5001 36.6722 18.5505L31.4053 20.6573C31.3076 20.6964 31.224 20.7639 31.165 20.851C31.1061 20.9381 31.0745 21.0408 31.0745 21.146V26.59C31.0772 27.5902 31.3375 28.5729 31.8303 29.4434C32.3232 30.3138 33.0318 31.0428 33.8881 31.5598L36.5974 33.1852C36.6792 33.2341 36.7728 33.26 36.8681 33.26C36.9635 33.26 37.0571 33.2341 37.1388 33.1852L39.5016 31.7673V37.6662C39.5014 37.8952 39.4103 38.1148 39.2483 38.2768C39.0864 38.4387 38.8668 38.5298 38.6378 38.53H18.2443C18.0153 38.5298 17.7958 38.4387 17.6338 38.2768C17.4719 38.1148 17.3808 37.8952 17.3805 37.6662V25.8863H29.4944C29.6341 25.8863 29.7681 25.8308 29.8669 25.732C29.9656 25.6332 30.0212 25.4992 30.0212 25.3595C30.0212 25.2198 29.9656 25.0859 29.8669 24.9872C29.7681 24.8884 29.6341 24.8329 29.4944 24.8329H23.4375H17.3805V23.5899C17.3808 23.3609 17.4719 23.1414 17.6338 22.9794C17.7958 22.8175 18.0153 22.7264 18.2443 22.7261H29.4944C29.6341 22.7261 29.7681 22.6706 29.8669 22.5718C29.9656 22.4731 30.0212 22.3391 30.0212 22.1994C30.0212 22.0597 29.9656 21.9258 29.8669 21.827C29.7681 21.7282 29.6341 21.6727 29.4944 21.6727H18.2443C17.7359 21.673 17.2485 21.8751 16.889 22.2346C16.5295 22.594 16.3274 23.0815 16.3271 23.5899V37.6631C16.3274 38.1715 16.5295 38.659 16.889 39.0184C17.2485 39.3779 17.7359 39.5799 18.2443 39.5803H38.6378C39.1462 39.5799 39.6337 39.3779 39.9932 39.0184C40.3526 38.659 40.5547 38.1715 40.555 37.6631V31.0478C41.2111 30.5038 41.7398 29.8225 42.1039 29.0519C42.4679 28.2812 42.6583 27.4401 42.6617 26.5878V21.146C42.6617 21.0408 42.6303 20.9381 42.5713 20.851C42.5123 20.7639 42.4286 20.6964 42.331 20.6573ZM41.6084 26.59C41.6062 27.4084 41.3932 28.2125 40.9899 28.9247C40.5865 29.6369 40.0065 30.2331 39.3057 30.656L36.8681 32.1192L34.4306 30.656C33.7298 30.2331 33.1497 29.6369 32.7464 28.9247C32.3431 28.2125 32.13 27.4084 32.1279 26.59V21.5021L36.8681 19.606L41.6084 21.5021V26.59Z" fill="#1F1F1F"/>
<path d="M35.1343 25.0774C35.0854 25.0284 35.0273 24.9895 34.9634 24.9631C34.8995 24.9365 34.8309 24.9228 34.7618 24.9228C34.6925 24.9228 34.624 24.9363 34.56 24.9627C34.4961 24.9892 34.438 25.028 34.389 25.0769C34.34 25.1258 34.3011 25.1839 34.2746 25.2478C34.2481 25.3117 34.2345 25.3802 34.2344 25.4494C34.2343 25.5186 34.2479 25.5871 34.2744 25.6511C34.3008 25.715 34.3396 25.7732 34.3885 25.8221L35.7937 27.2263C35.8925 27.325 36.0264 27.3805 36.166 27.3805C36.3057 27.3805 36.4397 27.325 36.5384 27.2263L39.3478 24.4169C39.4466 24.318 39.502 24.1839 39.5019 24.0441C39.5018 23.9045 39.4462 23.7704 39.3473 23.6717C39.2484 23.5729 39.1143 23.5175 38.9745 23.5176C38.8347 23.5177 38.7008 23.5733 38.602 23.6722L36.1655 26.1097L35.1343 25.0774Z" fill="#1F1F1F"/>
<path d="M20.014 35.3667C19.8743 35.3667 19.7403 35.4222 19.6416 35.521C19.5428 35.6198 19.4873 35.7537 19.4873 35.8934C19.4873 36.0331 19.5428 36.1671 19.6416 36.2659C19.7403 36.3646 19.8743 36.4201 20.014 36.4201H24.2275C24.3672 36.4201 24.5012 36.3646 24.6 36.2659C24.6987 36.1671 24.7542 36.0331 24.7542 35.8934C24.7542 35.7537 24.6987 35.6198 24.6 35.521C24.5012 35.4222 24.3672 35.3667 24.2275 35.3667H20.014Z" fill="#1F1F1F"/>
</svg>
