<svg width="59" height="60" viewBox="0 0 59 60" fill="none" xmlns="http://www.w3.org/2000/svg">
<rect x="0.460856" y="0.539469" width="58.0678" height="58.0678" rx="29.0339" stroke="#1F1F1F" stroke-width="0.921711"/>
<path d="M22.3443 18.8481H18.7692C17.4523 18.8481 16.3857 19.9147 16.3857 21.2316C16.3857 22.5484 17.4523 23.615 18.7692 23.615" stroke="#1F1F1F" stroke-width="1.34067" stroke-linecap="round" stroke-linejoin="round"/>
<path d="M22.3438 23.6146V16.4644H39.0277V23.6146" stroke="#1F1F1F" stroke-width="1.34067" stroke-linecap="round" stroke-linejoin="round"/>
<path d="M42.6033 23.6144H18.7692C17.4523 23.6144 16.3857 22.5478 16.3857 21.231V39.1066C16.3857 41.0812 17.9862 42.6817 19.9609 42.6817H42.6033V23.6144Z" stroke="#1F1F1F" stroke-width="1.34067" stroke-linecap="round" stroke-linejoin="round"/>
<path d="M35.4528 35.5319C36.7691 35.5319 37.8361 34.4649 37.8361 33.1485C37.8361 31.8322 36.7691 30.7651 35.4528 30.7651C34.1364 30.7651 33.0693 31.8322 33.0693 33.1485C33.0693 34.4649 34.1364 35.5319 35.4528 35.5319Z" stroke="#1F1F1F" stroke-width="1.34067" stroke-linecap="round" stroke-linejoin="round"/>
</svg>
