<svg width="59" height="60" viewBox="0 0 59 60" fill="none" xmlns="http://www.w3.org/2000/svg">
<rect x="0.460856" y="0.539469" width="58.0678" height="58.0678" rx="29.0339" stroke="#1F1F1F" stroke-width="0.921711"/>
<path d="M22.1204 29.5732H18.4336" stroke="#1F1F1F" stroke-width="1.38257" stroke-linecap="round" stroke-linejoin="round"/>
<path d="M22.1206 35.7178H20.8916" stroke="#1F1F1F" stroke-width="1.38257" stroke-linecap="round" stroke-linejoin="round"/>
<path d="M36.6575 36.9471H43.0124V29.5734L38.0967 27.1155L36.8677 22.1997H27.0361V36.9471H29.7041" stroke="#1F1F1F" stroke-width="1.38257" stroke-linecap="round" stroke-linejoin="round"/>
<path d="M15.9756 23.4287H22.1203" stroke="#1F1F1F" stroke-width="1.38257" stroke-linecap="round" stroke-linejoin="round"/>
<path d="M15.9756 17.2842H27.0362V22.2" stroke="#1F1F1F" stroke-width="1.38257" stroke-linecap="round" stroke-linejoin="round"/>
<path d="M33.181 41.8629C35.2171 41.8629 36.8678 40.2123 36.8678 38.1761C36.8678 36.14 35.2171 34.4893 33.181 34.4893C31.1448 34.4893 29.4941 36.14 29.4941 38.1761C29.4941 40.2123 31.1448 41.8629 33.181 41.8629Z" stroke="#1F1F1F" stroke-width="1.38257" stroke-linecap="round" stroke-linejoin="round"/>
<path d="M31.9521 25.8862V28.3442H34.4101" stroke="#1F1F1F" stroke-width="1.38257" stroke-linecap="round" stroke-linejoin="round"/>
</svg>
