<?xml version="1.0" encoding="UTF-8"?>
<svg id="Layer_1" xmlns="http://www.w3.org/2000/svg" version="1.1" viewBox="0 0 962 254.5">
  <!-- Generator: Adobe Illustrator 29.0.1, SVG Export Plug-In . SVG Version: 2.1.0 Build 192)  -->
  <defs>
    <style>
      .st0 {
        fill-rule: evenodd;
      }

      .st0, .st1 {
        fill: #1f1f1f;
      }
    </style>
  </defs>
  <path class="st1" d="M906.41,247.39c7.76-7.47,2.38-27.18-6.27-52.27l-49.5-136.49c-2.99-7.17-6.26-14.04-9.55-20.31l-58.75,163.67c-6.86,21.8-10.74,38.83-3.88,45.4h-31.61c7.75-7.47,21.77-25.69,31.91-52.27l58.45-163.37c-6.56-11.05-13.12-19.41-17.6-23.59h36.98l68.59,188.76c9.84,24.19,23.56,43.31,31.02,50.47h-49.8Z"/>
  <path class="st1" d="M558.82,247.39c7.75-7.47,12.53-29.87,12.53-54.36V62.51c0-24.49-4.77-46.89-12.53-54.36h32.51c14.02,0,20.58-4.48,36.38-4.48,46.82,0,85.59,25.98,85.59,79.74,0,29.57-14.32,52.86-35.19,65.11,2.39,4.18,4.18,8.66,5.97,13.74l13.42,39.42c8.65,22.7,19.68,38.23,29.23,45.7h-37.88l-28.63-84.22c-4.47-13.44-16.4-39.42-35.79-39.42-16.7,0-30.72,15.53-30.72,67.2v2.09c0,24.49,4.77,46.89,12.53,54.36h-47.42ZM593.72,150.32c0-15.53,12.23-34.05,33.1-34.05,18.19,0,33.7,7.17,45.03,22.1,11.63-13.74,17.3-36.74,13.72-63.92-6.86-51.37-38.47-64.81-61.14-64.81-28.93,0-30.72,28.37-30.72,52.57v88.11Z"/>
  <path class="st1" d="M434.63,252.17c-51,0-96.63-40.32-96.63-124.54S383.63,3.68,434.63,3.68s97.22,40.32,97.22,123.95-46.23,124.54-97.22,124.54ZM363.95,127.62c7.46,91.09,48.31,116.48,81.12,116.48s68.3-25.39,60.84-116.48c-7.46-90.79-48.61-115.88-81.72-115.88s-67.7,25.09-60.24,115.88Z"/>
  <path class="st1" d="M174.11,247.39c7.75-7.47,12.53-29.87,12.53-54.36V62.51c0-24.49-4.77-46.89-12.53-54.36h47.42c-7.75,7.47-12.53,29.87-12.53,54.36v130.52c0,24.49.6,48.38,25.35,48.38h33.7c39.37,0,55.47-17.62,62.33-25.39l-7.16,25.39-1.79,5.97h-147.33Z"/>
  <path class="st1" d="M5.78,247.39c7.75-7.47,12.53-29.87,12.53-54.36V62.51c0-24.49-4.77-46.89-12.53-54.36h147.33v23.3c-7.46-7.77-18.19-17.32-54.28-17.32h-33.1c-24.46,0-25.05,23.89-25.05,48.38v61.53c6.26-11.05,17.6-15.83,34.3-16.13h3.28c24.45,0,46.82-8.06,54.28-15.83v37.63c-7.46-7.77-29.82-15.83-54.28-15.83h-1.19c-24.46,0-36.38,9.26-36.38,39.42v39.72c0,24.49,4.77,46.89,12.53,54.36H5.78Z"/>
  <path class="st0" d="M908.2,245.05c-.49.88-1.09,1.65-1.79,2.33h49.8c-.7-.67-1.46-1.45-2.26-2.33-7.75-8.47-19.84-26.22-28.76-48.14L856.6,8.16h-36.98c.72.67,1.49,1.45,2.31,2.33,4.27,4.6,9.78,11.99,15.29,21.26l-58.45,163.37c-9.21,24.13-21.61,41.38-29.62,49.93-.81.87-1.58,1.65-2.29,2.33h31.61c-.7-.67-1.29-1.45-1.77-2.33-4.26-7.76-.51-23.49,5.65-43.06l58.75-163.67c.49.93.97,1.87,1.46,2.83,2.79,5.49,5.55,11.37,8.09,17.48l49.5,136.49c7.86,22.81,13.02,41.17,8.06,49.93ZM897.94,195.9c4.33,12.54,7.76,23.56,9.18,32.34.71,4.38.89,8.08.48,11.05-.41,2.95-1.37,5.03-2.82,6.43l-4.17,4.02h61.38l-4.18-4.02c-7.16-6.89-20.71-25.69-30.45-49.63L858.23,5.82h-44.52l4.32,4.04c4.13,3.86,10.31,11.66,16.62,22.14l-58.07,162.29s0,.02,0,.02c-10.02,26.27-23.85,44.18-31.34,51.4l-4.17,4.02h43.2l-4.2-4.02c-2.54-2.44-3.47-7.26-2.5-15.01.94-7.56,3.56-17.07,6.98-27.95l56.92-158.56c2.41,4.85,4.79,10,6.99,15.3l49.48,136.41s0,.01,0,.02Z"/>
  <path class="st0" d="M553.04,249.72l4.17-4.02c3.35-3.23,6.37-10.1,8.51-19.63,2.12-9.39,3.3-20.94,3.3-33.05V62.51c0-12.11-1.18-23.65-3.3-33.05-2.15-9.53-5.16-16.4-8.51-19.63l-4.17-4.02h38.29c6.56,0,11.4-1.01,16.6-2.1l.44-.09c5.4-1.13,11.19-2.29,19.34-2.29,23.82,0,45.8,6.61,61.86,20.27,16.12,13.71,26.06,34.32,26.06,61.81,0,29.45-13.85,52.99-34.41,65.95,1.96,3.78,3.52,7.78,5.05,12.12v.02s13.42,39.38,13.42,39.38c8.56,22.46,19.39,37.55,28.47,44.65l5.33,4.17h-46.31l-29.17-85.81h0c-2.2-6.62-6.2-16.22-11.97-24.13-5.81-7.97-13.03-13.72-21.6-13.72-3.8,0-7.37.88-10.62,2.89-3.25,2.01-6.31,5.23-8.95,10.12-5.32,9.83-8.81,26.17-8.81,51.86v2.09c0,12.11,1.18,23.65,3.3,33.05,2.15,9.53,5.16,16.4,8.51,19.63l4.17,4.02h-58.99ZM697.5,201.69l-13.42-39.42c-1.79-5.08-3.58-9.56-5.97-13.74,20.88-12.25,35.19-35.54,35.19-65.11,0-53.76-38.77-79.74-85.59-79.74-8.14,0-13.83,1.19-19.35,2.34-5.2,1.09-10.24,2.14-17.04,2.14h-32.51c.69.66,1.35,1.44,1.99,2.33,6.57,9.13,10.53,29.71,10.53,52.02v130.52c0,22.32-3.96,42.9-10.53,52.02-.64.89-1.31,1.67-1.99,2.33h47.42c-.69-.66-1.35-1.44-1.99-2.33-6.57-9.13-10.53-29.71-10.53-52.02v-2.09c0-51.67,14.02-67.2,30.72-67.2,19.39,0,31.31,25.98,35.79,39.42l28.63,84.22h37.88c-.9-.71-1.82-1.48-2.74-2.33-8.86-8.13-18.65-22.81-26.48-43.36ZM596.05,138.2c-1.53,4-2.33,8.15-2.33,12.12V62.21c0-24.19,1.79-52.57,30.72-52.57,22.67,0,54.28,13.44,61.14,64.81,3.42,25.98-1.61,48.14-12.22,62.04-.49.64-.99,1.27-1.5,1.87-.48-.64-.98-1.26-1.48-1.87-11.19-13.66-26.14-20.23-43.56-20.23-15.55,0-26.3,10.27-30.77,21.93ZM596.05,132.67c5.63-10.37,16.21-18.73,30.77-18.73,17.91,0,33.42,6.73,45.03,20.69,9.89-13.3,14.74-34.57,11.41-59.86-3.37-25.22-12.77-40.85-23.83-50.19-11.1-9.36-24.1-12.59-34.99-12.59-6.84,0-11.88,1.67-15.65,4.37-3.78,2.71-6.49,6.61-8.4,11.37-3.87,9.64-4.34,22.34-4.34,34.48v70.46Z"/>
  <path class="st0" d="M366.27,127.43c3.7,45.25,15.68,73.83,30.5,91.07,14.78,17.19,32.53,23.27,48.3,23.27s32.2-6.07,43.7-23.06c11.58-17.11,18.52-45.61,14.82-90.9-3.7-45.1-15.75-73.52-30.67-90.65-14.88-17.08-32.79-23.09-48.72-23.09s-31.9,5.99-43.29,22.87c-11.47,16.99-18.34,45.34-14.63,90.49ZM505.91,127.62c7.46,91.09-27.74,116.48-60.84,116.48s-73.66-25.39-81.12-116.48c-7.46-90.79,27.44-115.88,60.24-115.88s74.26,25.09,81.72,115.88ZM365.43,223c-18.23-21.13-29.76-52.86-29.76-95.38s11.53-73.81,29.76-94.86c18.25-21.07,43.06-31.42,69.2-31.42s51.09,10.34,69.49,31.41c18.39,21.05,30.06,52.63,30.06,94.87s-11.68,74.26-30.06,95.39c-18.4,21.14-43.36,31.49-69.49,31.49s-50.95-10.35-69.2-31.5ZM338,127.62c0,84.22,45.63,124.54,96.63,124.54s97.22-40.32,97.22-124.54S485.63,3.68,434.63,3.68s-96.63,40.32-96.63,123.95Z"/>
  <path class="st0" d="M176.11,245.05c-.64.89-1.31,1.67-1.99,2.33h147.33l1.79-5.97,7.16-25.39c-.97,1.09-2.12,2.38-3.49,3.79-8.37,8.59-25.02,21.59-58.84,21.59h-33.7c-24.75,0-25.35-23.89-25.35-48.38V62.51c0-22.32,3.96-42.9,10.53-52.02.64-.89,1.3-1.67,1.99-2.33h-47.42c.69.66,1.35,1.44,1.99,2.33,6.57,9.13,10.53,29.71,10.53,52.02v130.52c0,22.32-3.96,42.9-10.53,52.02ZM168.33,249.72l4.17-4.02c3.35-3.23,6.37-10.1,8.51-19.63,2.12-9.39,3.3-20.94,3.3-33.05V62.51c0-12.11-1.18-23.65-3.3-33.05-2.15-9.53-5.16-16.4-8.51-19.63l-4.17-4.02h58.99l-4.17,4.02c-3.35,3.23-6.37,10.1-8.51,19.63-2.12,9.39-3.3,20.94-3.3,33.05v130.52c0,12.36.18,24.01,3.25,32.59,1.52,4.22,3.68,7.53,6.75,9.81,3.05,2.26,7.21,3.66,13.02,3.66h33.7c19.32,0,32.8-4.32,42.24-9.49,9.45-5.18,14.97-11.28,18.35-15.11l3.99,2.18-7.16,25.4-2.29,7.65h-154.85Z"/>
  <path class="st0" d="M7.78,245.05c-.64.89-1.31,1.67-1.99,2.33h47.42c-.69-.66-1.35-1.44-1.99-2.33-6.57-9.13-10.53-29.71-10.53-52.02v-39.72c0-30.17,11.93-39.42,36.38-39.42h1.19c22.28,0,42.83,6.7,51.95,13.76.89.69,1.67,1.38,2.33,2.07v-37.63c-.66.69-1.44,1.38-2.33,2.07-9.11,7.06-29.67,13.76-51.95,13.76h-3.28c-14.8.26-25.39,4.05-31.97,12.6-.84,1.1-1.62,2.27-2.33,3.52v-61.53c0-24.49.6-48.38,25.05-48.38h33.1c32.52,0,44.45,7.76,51.95,14.98.82.79,1.59,1.58,2.33,2.35V8.16H5.78c.69.66,1.35,1.44,1.99,2.33,6.57,9.13,10.53,29.71,10.53,52.02v130.52c0,22.32-3.96,42.9-10.53,52.02ZM43.01,116.9v-54.39c0-12.35.18-24.01,3.22-32.59,1.5-4.22,3.64-7.54,6.67-9.81,3.01-2.26,7.11-3.65,12.83-3.65h33.1c17.85,0,29.23,2.37,36.99,5.57,7.7,3.18,11.98,7.25,15.61,11.03l4.01,4.18V5.82H0l4.17,4.02c3.35,3.23,6.37,10.1,8.51,19.63,2.12,9.39,3.3,20.94,3.3,33.05v130.52c0,12.11-1.18,23.65-3.3,33.05-2.15,9.53-5.16,16.4-8.51,19.63l-4.17,4.02h58.99l-4.17-4.02c-3.35-3.23-6.37-10.1-8.51-19.63-2.12-9.39-3.3-20.94-3.3-33.05v-39.72c0-14.86,2.96-23.95,8.34-29.38,5.38-5.42,13.69-7.71,25.71-7.71h1.19c11.98,0,23.46,1.98,32.82,4.9,9.45,2.95,16.46,6.76,19.78,10.22l4.01,4.18v-49.22l-4.01,4.18c-3.32,3.46-10.32,7.27-19.78,10.22-9.37,2.92-20.84,4.9-32.82,4.9h-3.32c-13.94.25-24.71,3.57-31.93,11.33Z"/>
</svg>