<svg width="1440" height="460" viewBox="0 0 1440 460" fill="none" xmlns="http://www.w3.org/2000/svg">
<g clip-path="url(#clip0_133_1200)">
<rect width="1440" height="460" fill="#4E7637"/>
<path d="M697.952 347.858C682.269 348.161 666.586 351.722 650.828 351.646C617.19 352.858 583.476 351.57 549.838 353.54C521.579 355.585 492.79 359.298 467.789 373.54C429.984 394.601 399.149 428.919 381.042 468.161C377.406 477.328 375.057 486.949 372.557 496.494C372.406 497.858 371.269 498.767 370.36 499.601C359.981 508.01 351.041 517.782 342.328 527.934C334.222 536.646 325.812 545.131 318.312 554.449C316.115 557.025 314.145 559.752 312.024 562.328C311.721 561.267 311.494 560.207 311.19 559.146C310.963 558.313 310.736 557.479 310.509 556.57C311.19 554.146 311.872 551.722 312.63 549.297C314.448 543.767 316.494 538.237 318.691 532.858C323.009 522.555 327.1 512.1 331.873 502.025C338.237 488.464 344.601 474.979 351.192 461.57C353.011 457.782 354.753 453.994 356.571 450.207C358.39 446.419 359.829 442.555 361.42 438.691C364.223 431.797 366.648 424.828 369.375 417.934C371.875 411.646 374.603 405.585 376.572 399.146C377.33 396.646 377.936 394.146 378.542 391.57C379.679 390.737 380.739 389.828 381.876 389.146C396.346 379.979 410.21 369.979 423.847 359.601C438.242 349.449 454.531 342.176 468.622 331.495C483.623 320.358 499.76 310.964 515.822 301.495C529.156 293.085 538.323 279.904 550.066 269.601C561.96 258.843 576.127 251.04 588.325 240.585C615.751 219.904 652.571 214.904 663.935 177.555C667.95 167.252 671.89 156.798 674.541 146.04C675.223 144.449 675.602 142.707 675.754 140.889C679.845 132.782 683.254 124.373 685.224 115.434C685.83 113.313 684.921 111.267 683.405 109.904C683.557 109.07 683.784 108.237 683.936 107.328C685.678 99.2977 687.269 91.1916 689.012 83.1613C689.845 79.4492 690.678 75.6613 691.815 72.0249C692.8 68.7673 693.86 65.6613 695.073 62.4795C697.952 54.9038 701.134 47.4037 704.316 39.9037C705.831 36.2673 707.27 32.631 708.785 29.0704C710.301 25.5098 711.967 21.9491 713.71 18.4643C714.543 16.7976 715.452 15.2068 716.437 13.6916C717.877 11.4189 720.074 9.44918 719.998 6.57039C719.922 2.85827 716.589 -0.323549 712.877 0.0552389C710.528 0.282512 709.088 1.9492 707.422 3.38859C704.694 5.66132 701.512 7.40366 698.482 9.22184C695.754 10.8127 693.027 12.3279 690.224 13.8431C683.33 17.6309 676.132 20.9643 668.859 23.8431C661.51 26.7219 654.237 29.6765 646.661 31.7977C639.388 33.8431 631.964 35.2825 624.463 36.4946C618.023 37.4795 611.432 38.3128 604.993 39.2219C597.644 40.3582 590.295 41.7976 583.249 44.2976C575.749 46.9491 568.551 50.2825 561.506 53.9946C558.096 55.8128 554.839 57.7068 551.657 59.7522C548.247 61.9492 544.99 64.2976 541.808 66.7976C536.732 70.6613 532.11 74.9795 527.337 79.1461C521.882 83.8431 516.352 88.4643 510.594 92.7825C504.306 97.5553 498.018 102.252 492.184 107.555C486.502 112.707 481.199 118.237 475.517 123.313C469.683 128.464 463.243 132.934 456.955 137.479C453.622 139.904 450.364 142.479 447.333 145.207C444.227 148.01 441.197 150.964 438.545 154.222C433.318 160.586 428.62 167.328 423.393 173.692C418.62 179.525 413.847 185.358 409.074 191.116C404.074 197.176 399.149 203.161 394.679 209.601C392.482 212.782 390.361 216.04 388.315 219.298C386.27 222.479 384.3 225.661 382.558 228.995C380.588 232.631 378.921 236.343 377.33 240.131C375.891 243.54 374.603 246.949 373.542 250.51C372.406 254.373 371.421 258.237 370.739 262.176C369.981 266.192 369.375 270.282 368.845 274.373C368.314 278.313 367.708 282.252 367.405 286.192C367.027 290.358 366.723 294.449 366.42 298.616C365.814 306.949 365.814 315.282 366.269 323.616C366.42 326.949 366.572 330.282 366.799 333.616C367.102 337.707 367.481 341.798 367.784 345.888C368.314 353.691 368.617 361.57 368.693 369.373C368.693 372.858 368.845 376.494 368.39 379.979C367.936 383.616 367.178 387.176 366.345 390.737C365.436 394.449 364.299 398.085 362.935 401.57C361.496 405.055 359.905 408.54 358.466 412.025C355.511 418.919 353.011 426.04 350.207 433.085C348.768 436.722 347.177 440.358 345.51 443.919C343.768 447.555 341.874 451.191 340.056 454.752C336.419 461.949 333.01 469.146 329.6 476.494C326.191 483.767 322.706 490.888 319.524 498.161C316.342 505.358 313.388 512.555 310.736 519.979C308.766 525.51 306.948 531.04 305.205 536.646C294.978 503.237 280.81 471.04 273.613 436.722C263.764 402.631 256.87 366.191 237.02 336.191C233.838 331.57 229.823 327.631 225.808 323.767C221.868 318.161 222.474 310.585 221.716 304.07C221.035 290.661 221.489 277.101 221.413 263.692C221.262 240.51 220.656 217.252 223.004 194.146C225.05 163.919 225.126 133.54 223.383 103.313C223.611 72.4795 215.201 43.0855 194.064 19.828C182.775 6.79767 167.017 -1.08109 154.819 -13.0508C141.561 -27.2932 128.076 -41.3084 114.211 -54.869C105.044 -64.1114 96.4074 -73.8842 87.5433 -83.4296C83.1492 -88.5054 74.8155 -96.3841 69.0576 -88.9599C66.3302 -83.7326 68.0727 -77.5205 68.1485 -71.8387C70.6486 -47.5205 71.8608 -23.0509 71.5577 1.41882C71.5577 16.7976 71.5577 33.0097 79.6642 46.6461C89.2858 63.4643 110.575 67.328 122.393 81.8734C129.894 93.0098 128.909 107.176 132.091 119.752C134.288 131.57 135.424 143.919 134.364 155.888C125.803 138.01 118.378 119.222 107.241 102.631C94.2103 85.1309 78.8308 68.6916 61.0269 55.9644C39.2077 42.8583 15.2671 33.4643 -7.537 22.1007C-41.3265 4.52496 -63.6003 -27.2933 -88.2227 -55.1721C-96.1019 -63.5054 -107.239 -73.7327 -111.178 -56.2327C-114.512 -45.4751 -117.012 -34.4145 -119.815 -23.5054C-124.437 -5.55083 -126.028 12.934 -130.27 30.9643C-135.043 49.7522 -140.422 68.8431 -139.665 88.4643C-139.513 101.57 -136.861 114.449 -132.998 126.949C-125.876 150.434 -118.073 174.601 -101.784 193.464C-87.162 209.373 -72.9947 228.085 -53.6756 238.464C-38.5991 246.267 -20.9467 245.51 -4.58231 248.919C21.025 253.616 50.0415 253.161 71.3304 269.979C32.9195 270.586 -6.47635 281.192 -44.4327 272.101C-56.8576 267.101 -65.4943 256.04 -75.2675 247.328C-87.0105 235.813 -99.2838 224.828 -111.557 213.767C-128.452 199.601 -144.362 182.025 -166.939 177.631C-172.772 176.267 -182.697 175.131 -183 183.389C-181.257 192.404 -175.575 200.282 -170.727 208.01C-164.59 217.025 -158.529 226.04 -152.317 234.979C-140.043 253.767 -128.376 273.01 -115.573 291.495C-103.526 311.57 -96.0261 335.055 -78.0707 351.04C-60.7214 366.343 -39.8871 378.388 -17.4617 384.298C-1.77916 387.479 14.2065 383.01 29.3587 378.919C46.7838 372.934 64.3604 367.631 82.6946 365.207C106.256 361.57 128.985 354.828 151.41 346.873C172.926 338.54 195.655 335.51 218.307 331.949C218.913 331.646 218.686 331.57 219.141 332.025C219.974 332.934 220.807 333.919 221.641 334.828C237.929 354.449 242.702 380.51 248.763 404.601C259.446 448.388 272.401 491.57 285.432 534.676C291.265 560.964 297.099 587.328 301.872 613.843C305.736 633.54 307.857 653.464 312.024 673.085C317.857 698.767 326.949 723.464 337.783 747.403C344.677 765.737 346.798 785.585 348.692 804.979C350.738 838.313 348.768 871.722 348.162 905.055C347.329 923.464 348.692 941.949 347.783 960.358C346.722 971.116 343.768 981.646 342.707 992.403C341.343 1000.59 341.116 1010.59 351.571 1011.95C361.041 1012.78 363.238 1003.24 364.981 995.964C376.269 958.009 372.709 917.934 373.921 878.843C374.3 840.661 375.36 801.949 364.829 764.828C358.844 740.585 345.056 719.222 339.601 694.828C332.328 669.07 329.525 642.403 324.903 616.116C322.403 601.722 318.918 587.555 315.282 573.388C316.873 571.494 318.388 569.6 320.13 567.858C335.964 551.116 352.48 534.979 367.784 517.707C372.481 513.01 378.542 507.631 382.103 503.01C390.437 513.313 398.316 524.222 408.771 532.555C424.757 545.358 443.545 554.979 463.546 559.373C489.154 564.904 517.564 567.025 541.732 555.131C555.293 548.767 565.066 537.025 574.84 526.04C590.977 508.767 603.326 488.54 616.887 469.298C639.843 436.116 667.571 406.722 691.663 374.449C696.512 367.782 713.104 353.01 698.482 348.01L697.952 347.858Z" fill="#29514B"/>
</g>
<defs>
<clipPath id="clip0_133_1200">
<rect width="1440" height="460" fill="white"/>
</clipPath>
</defs>
</svg>
