<svg width="40" height="40" viewBox="0 0 40 40" fill="none" xmlns="http://www.w3.org/2000/svg">
<path d="M33.75 4.0625H6.25C5.66984 4.0625 5.11344 4.29297 4.7032 4.7032C4.29297 5.11344 4.0625 5.66984 4.0625 6.25V33.75C4.0625 34.3302 4.29297 34.8866 4.7032 35.2968C5.11344 35.707 5.66984 35.9375 6.25 35.9375H33.75C34.3302 35.9375 34.8866 35.707 35.2968 35.2968C35.707 34.8866 35.9375 34.3302 35.9375 33.75V6.25C35.9375 5.66984 35.707 5.11344 35.2968 4.7032C34.8866 4.29297 34.3302 4.0625 33.75 4.0625ZM34.0625 33.75C34.0625 33.8329 34.0296 33.9124 33.971 33.971C33.9124 34.0296 33.8329 34.0625 33.75 34.0625H6.25C6.16712 34.0625 6.08763 34.0296 6.02903 33.971C5.97042 33.9124 5.9375 33.8329 5.9375 33.75V6.25C5.9375 6.16712 5.97042 6.08763 6.02903 6.02903C6.08763 5.97042 6.16712 5.9375 6.25 5.9375H33.75C33.8329 5.9375 33.9124 5.97042 33.971 6.02903C34.0296 6.08763 34.0625 6.16712 34.0625 6.25V33.75ZM14.6875 17.5V27.5C14.6875 27.7486 14.5887 27.9871 14.4129 28.1629C14.2371 28.3387 13.9986 28.4375 13.75 28.4375C13.5014 28.4375 13.2629 28.3387 13.0871 28.1629C12.9113 27.9871 12.8125 27.7486 12.8125 27.5V17.5C12.8125 17.2514 12.9113 17.0129 13.0871 16.8371C13.2629 16.6613 13.5014 16.5625 13.75 16.5625C13.9986 16.5625 14.2371 16.6613 14.4129 16.8371C14.5887 17.0129 14.6875 17.2514 14.6875 17.5ZM28.4375 21.875V27.5C28.4375 27.7486 28.3387 27.9871 28.1629 28.1629C27.9871 28.3387 27.7486 28.4375 27.5 28.4375C27.2514 28.4375 27.0129 28.3387 26.8371 28.1629C26.6613 27.9871 26.5625 27.7486 26.5625 27.5V21.875C26.5625 20.9633 26.2003 20.089 25.5557 19.4443C24.911 18.7997 24.0367 18.4375 23.125 18.4375C22.2133 18.4375 21.339 18.7997 20.6943 19.4443C20.0497 20.089 19.6875 20.9633 19.6875 21.875V27.5C19.6875 27.7486 19.5887 27.9871 19.4129 28.1629C19.2371 28.3387 18.9986 28.4375 18.75 28.4375C18.5014 28.4375 18.2629 28.3387 18.0871 28.1629C17.9113 27.9871 17.8125 27.7486 17.8125 27.5V17.5C17.8125 17.2514 17.9113 17.0129 18.0871 16.8371C18.2629 16.6613 18.5014 16.5625 18.75 16.5625C18.9986 16.5625 19.2371 16.6613 19.4129 16.8371C19.5887 17.0129 19.6875 17.2514 19.6875 17.5V17.8297C20.4601 17.174 21.4042 16.7529 22.4082 16.6162C23.4123 16.4795 24.4346 16.6328 25.3544 17.0581C26.2742 17.4833 27.0532 18.1627 27.5994 19.0162C28.1457 19.8697 28.4365 20.8617 28.4375 21.875ZM15.3125 13.125C15.3125 13.434 15.2209 13.7361 15.0492 13.9931C14.8775 14.25 14.6335 14.4503 14.3479 14.5686C14.0624 14.6868 13.7483 14.7178 13.4452 14.6575C13.1421 14.5972 12.8637 14.4484 12.6451 14.2299C12.4266 14.0113 12.2778 13.7329 12.2175 13.4298C12.1572 13.1267 12.1882 12.8126 12.3064 12.5271C12.4247 12.2415 12.625 11.9975 12.8819 11.8258C13.1389 11.6541 13.441 11.5625 13.75 11.5625C14.1644 11.5625 14.5618 11.7271 14.8549 12.0201C15.1479 12.3132 15.3125 12.7106 15.3125 13.125Z" fill="#F7F7F7"/>
</svg>
