<svg width="1080" height="600" viewBox="0 0 1080 600" fill="none" xmlns="http://www.w3.org/2000/svg">
<g style="mix-blend-mode:darken" clip-path="url(#clip0_163_1217)">
<rect width="1080" height="600" fill="white"/>
<rect x="-118" width="1440" height="875" fill="#90A74D"/>
<path d="M2496.79 251.697C2564.33 212.136 2624.82 160.217 2674.14 99.2772C2676.62 96.1198 2679.44 91.9412 2677.65 88.3846C2675.86 84.828 2668.36 87.3362 2670.66 90.6349C2718.84 64.4403 2736.97 5.64135 2750.49 -47.4395C2759.48 -82.317 2768.29 -117.109 2777.27 -151.986C2779.58 -161.003 2781.72 -170.784 2777.64 -178.913C2773.56 -187.042 2760.01 -190.188 2755.23 -182.261C2767.13 -235.162 2773.91 -289.307 2775.33 -343.504C2765.1 -336.648 2755.03 -329.877 2744.8 -323.021C2747.46 -349.622 2748.6 -376.298 2748.2 -403.05C2748.05 -420.801 2746.1 -440.409 2733.5 -452.734C2720.73 -464.973 2693.7 -461.753 2690.96 -444.24C2685.46 -482.428 2679.78 -520.53 2674.28 -558.718C2673.27 -566.271 2670.8 -575.429 2663.39 -577.423C2658.7 -578.669 2653.59 -576.515 2648.98 -577.591C2640.89 -579.666 2638.6 -589.76 2637.58 -598.162C2635.47 -620.233 2633.28 -642.473 2631 -664.457C2629.48 -678.972 2627.79 -694.25 2618.34 -705.405C2608.89 -716.56 2589.12 -719.754 2580.41 -708.15C2563.04 -724.014 2565.96 -751.38 2562.15 -774.715C2558.34 -798.049 2533.9 -823.298 2514.54 -809.507C2502.65 -853.177 2484.87 -895.369 2462.15 -934.642C2455.92 -926.196 2449.69 -917.75 2443.55 -909.559C2421.34 -954.612 2399.14 -999.664 2377.11 -1044.8C2375.09 -982.872 2320.83 -933.029 2313.95 -871.409C2311.97 -854.495 2309.56 -831.633 2292.68 -829.069C2288.76 -828.366 2284.76 -829.106 2280.83 -828.403C2269.15 -826.125 2264.11 -812.335 2261.29 -800.937C2253.16 -767.763 2244.94 -734.759 2236.98 -701.671C2233.64 -687.892 2226.64 -671.202 2212.57 -670.693C2203.11 -670.381 2192.98 -678.219 2184.87 -673.075C2180.44 -670.415 2178.9 -664.97 2177.62 -659.866C2164.27 -606.871 2155.43 -552.545 2151.37 -498.077C2140.13 -501.322 2128.71 -504.48 2117.46 -507.725C2108.88 -455.863 2111.05 -402.197 2123.61 -351.226C2114.07 -355.756 2104.53 -360.285 2095.16 -364.9C2105.06 -299.22 2123.75 -234.781 2150.89 -174.385C2140.06 -176.358 2129.07 -178.246 2118.33 -180.05C2143.58 -116.585 2175.49 -55.6232 2213.28 1.31138C2204.16 -5.34379 2196.9 12.5363 2199.79 23.3907C2227.89 133.808 2335.56 201.789 2434.3 258.782C2445.33 394.358 2444.77 531.956 2441.91 667.955C2386.93 582.331 2448.76 456.935 2393.79 371.31C2391.99 377.521 2390.11 383.563 2388.14 389.86C2372.93 348.503 2353.27 308.532 2329.87 271.301C2321.77 277.295 2317.5 287.937 2319.45 297.778L2211.31 185.039C2212.49 196.753 2213.5 208.553 2214.77 220.436C2171.83 193.684 2128.98 166.677 2086.05 139.926C2085.96 148.25 2085.61 156.491 2085.51 164.815C2052.98 137.916 2012.51 120.747 1970.32 115.904C1976.19 125.891 1981.98 136.134 1987.85 146.121C1945.34 118.517 1893.79 104.813 1842.98 107.921C1845.28 118.014 1847.65 128.277 1850.11 138.285C1831.55 122.598 1810.43 106.078 1786.05 106.904C1761.67 107.73 1738.54 137.001 1753.01 156.449C1725.24 139.035 1694.65 125.799 1662.87 117.836C1663.28 128.875 1663.87 139.828 1664.28 150.867C1647.93 142.132 1629.52 137.401 1610.94 137.003C1619.96 149.859 1596.94 161.039 1581.25 160.454C1559.52 159.735 1537.7 159.271 1515.96 158.552C1547.97 198.45 1583.65 235.437 1622.32 269.009C1615.5 267.776 1608.25 269.094 1602.11 272.613C1620.07 304.526 1643.31 333.349 1670.64 357.562C1658.63 354.067 1645.67 354.229 1633.74 358.123C1653.39 392.574 1680.13 422.82 1711.98 446.665C1699.88 448.522 1688.03 450.462 1675.92 452.318C1703.33 490.289 1738.25 522.779 1778.11 547.681C1768.14 549.1 1758.25 550.264 1748.27 551.682C1781.81 597.176 1832.75 629.231 1888.32 640.278C1876.89 644.764 1865.38 649.504 1853.95 653.989C1895.27 675.4 1940.69 688.377 1987.23 692.09C1979.38 699.866 1971.7 707.556 1963.93 715.502C2021.53 742.505 2087.66 750.771 2150.41 738.673C2139.41 742.307 2136.41 758.038 2142.8 767.767C2149.01 777.582 2160.85 782.013 2172.19 784.153C2206.02 790.66 2242.51 781.183 2269.3 759.193L2258.71 781.085C2293.82 789.283 2327.08 764.452 2357.45 744.905C2387.81 725.357 2431.13 710.743 2457.18 735.387C2495.01 928.133 2517.83 1121.65 2543.9 1316.5C2511.83 1251.38 2479.58 1186.34 2447.51 1121.22C2442.99 1127.53 2438.38 1133.68 2434.03 1139.9C2411.56 1103.26 2385.09 1069.28 2355.45 1038.37C2353.74 1047.72 2351.94 1056.91 2350.23 1066.26C2322.21 1040.69 2289.75 1019.91 2254.74 1005.08C2257.28 1013.56 2259.83 1022.04 2262.64 1030.6C2231.63 1012.7 2191.91 1010.22 2158.91 1024.51C2169.22 1025.05 2179.19 1030.85 2184.72 1039.73C2147.73 1038 2110.39 1045.36 2076.71 1060.85C2086.5 1065.04 2096.39 1068.97 2106.19 1073.16C2071.14 1081.27 2037.72 1095.99 2007.86 1116.13C2016.38 1121.18 2024.73 1126.31 2033.33 1131.52C1994.88 1139.23 1957.54 1153.38 1923.42 1172.7C1930.66 1177.75 1937.9 1182.8 1945.14 1187.86C1907.97 1193.85 1871.74 1205.96 1838.31 1223.66C1840.94 1232.73 1846.64 1240.68 1854.14 1246.24C1823.71 1245.24 1792.85 1251.88 1765.39 1265.29C1801.67 1293.7 1844.35 1314 1889.35 1324.43L1860.86 1339.63C1886.5 1356.63 1914.53 1369.89 1944.1 1378.54C1936.26 1384.19 1928.58 1389.76 1920.82 1395.58C1953.7 1415.94 1990.68 1429.99 2028.94 1436.38L2002.41 1456.76C2055.07 1476.91 2114.14 1480.89 2169.3 1467.73C2156.59 1477.32 2167.9 1499.84 2183.58 1502.13C2199.27 1504.41 2214.02 1494.64 2227.07 1485.3C2240.12 1475.97 2254.96 1466.37 2270.64 1469.08C2264.67 1479.3 2263.97 1492.39 2268.91 1503.06C2313.67 1492.6 2355.63 1470.18 2389.58 1439.06C2389.66 1449 2389.9 1458.85 2390.06 1468.95C2444.98 1442.55 2489.69 1394.97 2512.17 1338.44C2516.1 1328.39 2529.64 1335.36 2537.56 1342.62C2545.48 1349.87 2547.6 1361.33 2549.47 1371.85C2565.73 1470.62 2581.49 1569.64 2592.99 1669.12C2600.59 1735.74 2617.07 1793.66 2617 1862.88C2616.85 1933.63 2612 2004.41 2607.5 2075.02C2599.19 2201.88 2596.68 2329.21 2599.8 2456.26C2600.12 2470.52 2601.39 2486.65 2612.63 2495.42C2632.39 2510.93 2660.88 2488.93 2670.88 2465.85C2684.63 2433.66 2684.32 2397.74 2684.02 2363.09C2682.59 2251.32 2695.49 2143.8 2686.73 2032.76C2682.69 1982.16 2632.14 1814.72 2715 1803.52C2743.64 1799.69 2771.67 1816.76 2789.38 1839.25C2807.17 1861.91 2816.94 1889.45 2827.91 1915.97C2839.05 1942.4 2852.49 1969.16 2875.24 1986.78C2876.7 1974.37 2877.99 1962.05 2879.45 1949.64C2902.42 1994.51 2936.13 2033.98 2976.76 2063.8C2973.97 2045.47 2970.92 2027.06 2968.12 2008.73C2991.01 2047.92 3030.19 2077.41 3074.34 2088.69C3077.08 2075 3079.99 2061.23 3082.73 2047.53C3114.75 2074.27 3148.82 2098.27 3184.69 2119.46C3191.69 2103.62 3195.89 2086.44 3196.76 2069.02C3233.98 2091.22 3269.59 2115.72 3303.4 2142.61C3310.57 2134.33 3314.67 2123.35 3314.6 2112.56C3349.26 2135.63 3379.75 2165.26 3403.5 2199.34C3409.86 2144.35 3402.42 2087.83 3382.35 2036.39C3397.94 2039.78 3413.45 2043 3429.22 2046.3C3410.42 2003.78 3383.19 1964.87 3349.72 1932.71C3364.56 1927.36 3379.48 1922.17 3394.32 1916.82C3370.12 1900.15 3346.02 1883.64 3321.83 1866.97C3311.61 1859.81 3300.53 1851.81 3297.99 1839.51C3295.53 1827.38 3308.24 1812.69 3319.32 1818.57C3285.42 1789.39 3241.54 1771.82 3196.62 1769.62C3204.9 1757.6 3213.18 1745.57 3221.46 1733.54C3187.37 1730.78 3153.11 1731.07 3119.09 1734.84C3125.84 1721.04 3136.25 1709.43 3147.17 1698.83C3118.63 1688.81 3039.89 1664.82 3015.65 1698.68C3025.29 1685.12 3034.94 1671.56 3044.59 1658C2998.91 1647.91 2926.5 1688.43 2887.78 1710.07C2893.34 1695.6 2898.89 1681.12 2904.28 1666.74C2854.65 1682.41 2829.05 1718.66 2789.04 1747.1C2753.13 1772.63 2705.98 1786.84 2662.59 1790.67C2656.45 1791.21 2637.81 1678.36 2636.12 1670.3C2615.42 1566.55 2589.35 1463.17 2584.17 1357.54C2582.83 1332.75 2588.8 1328.04 2608.25 1312.3C2626.51 1297.58 2653.27 1304.47 2675.51 1312.15C2757.99 1340.61 2840.47 1369.08 2922.87 1397.38C2909.07 1383.53 2900.14 1364.9 2898.11 1345.55C2945.29 1389.69 3011.07 1413.41 3075.86 1409.63C3058.74 1396.82 3048.44 1375.48 3048.98 1353.99C3103.5 1386.36 3170.99 1396.48 3232.98 1381.59C3215.69 1367.17 3202.41 1347.97 3195.36 1326.69C3256.11 1345.52 3323.28 1343.51 3383.14 1321.4C3370.71 1308.57 3358.19 1295.56 3345.67 1282.56C3383.44 1278.59 3420.95 1271.57 3457.52 1261.84C3476.96 1256.71 3500.93 1240.18 3491.57 1222.82C3485.45 1211.48 3466.36 1204.97 3470.63 1192.62C3472.52 1187.01 3478.91 1184.42 3484.45 1182.69C3505.77 1176.62 3529.38 1175.54 3547.72 1163.11C3566.23 1150.6 3574.01 1119.3 3555.1 1107.61C3562.87 1094.56 3583.75 1096.14 3593.4 1084.27C3597.32 1079.32 3598.69 1073.12 3600.57 1067.07C3613.57 1028.27 3654.08 1006.36 3691.09 988.56C3653.17 971.8 3612.01 962.195 3570.42 960.661C3583.99 948.094 3597.72 935.441 3611.29 922.874L3505.69 908.815C3500.66 908.165 3494.7 906.927 3492.49 902.099C3490.95 899.05 3491.72 895.478 3491.98 892.164C3492.51 874.07 3474.2 860.166 3456.13 858.66C3438.06 857.155 3420.58 864.904 3404.12 872.563C3405.6 848.687 3379.1 830.84 3354.98 832.173C3330.86 833.507 3309.88 847.903 3290.17 861.866C3286.35 850.847 3287.3 838.27 3293.02 827.959C3238.29 837.715 3184.4 852.988 3132.56 873.174C3135.72 859.905 3138.8 846.892 3141.97 833.623C3106.33 850.739 3073.15 873.191 3044.05 899.95C3043.98 887.041 3043.74 874.217 3043.67 861.307C3009.72 884.784 2975.86 908.429 2941.91 931.905L2943.22 898.773C2890.51 929.156 2845.21 972.575 2812.68 1023.99C2812.52 1014.73 2812.36 1005.47 2812.37 996.129C2777.55 1033.63 2748.28 1076.18 2725.56 1122.02C2728.13 1110.53 2730.69 1099.05 2733.26 1087.57C2691.79 1136.06 2697.93 1215.95 2648.63 1256.51C2627.9 1273.53 2600.1 1280.75 2581.25 1299.8C2551.51 1116.78 2521.68 933.579 2491.95 750.552C2488.81 731.121 2509.62 722.757 2529.39 723.402C2549.17 724.048 2565.78 737.114 2582.39 748.055C2623.27 774.989 2671.08 791.859 2720.08 796.236C2710.72 784.826 2705.36 770.334 2705.04 755.642C2757.17 784.122 2814.95 802.121 2874.09 808.391C2858.85 794.214 2848.64 774.74 2845.42 754.29C2906.77 778.978 2974.27 788.679 3040.33 782.337C3030.03 768.215 3019.65 754.348 3009.35 740.225C3064.15 747.625 3119.98 748.989 3175.13 744.326C3163.13 730.639 3151.29 716.865 3139.29 703.178C3207.99 701.661 3276.62 684.687 3338.02 653.741L3297.65 624.851C3346.5 614.875 3392.98 593.362 3431.96 562.041C3418.77 543.86 3380.07 541.713 3385.8 519.936C3388.28 510.408 3399.2 506.181 3408.32 502.643C3445.16 488.323 3477.49 462.478 3499.51 429.731C3484.18 417.083 3473.29 399.227 3468.88 379.803C3495.57 370.81 3528.66 347.763 3516.16 322.867C3513.18 316.939 3507.73 311.621 3508.67 304.991C3509.44 299.296 3514.82 295.526 3519.6 292.27C3551.5 270.675 3578.03 241.382 3596.39 207.723C3552.08 198.646 3505.88 199.008 3461.63 208.787C3469.91 198.885 3474.52 185.946 3474.03 173.039C3448.62 177.778 3422.96 182.434 3397.55 187.173C3391.5 188.314 3384.42 189.121 3380.08 184.73C3372.93 177.723 3380.1 165.195 3376.36 156.044C3371.6 144.012 3354.12 146.24 3341.84 150.306C3320.87 157.482 3300.06 164.571 3279.09 171.747C3280.46 161.291 3281.92 150.581 3283.3 140.126C3243.74 146.054 3205.62 161.656 3173.13 185.039C3175.52 171.944 3178.01 158.594 3180.41 145.5C3141.53 153.632 3104.86 171.689 3075 197.773C3074.59 185.46 3077.07 172.96 3082.63 161.885C3050.4 167.515 3020.21 184.003 2998.19 208.257C2998.8 197.976 2999.41 187.696 3000.1 177.584C2957.64 191.769 2918.4 216.211 2886.67 247.912C2891.1 246.102 2889.15 238.809 2884.72 237.222C2880.28 235.635 2875.42 237.873 2871.33 239.936C2831.85 260.472 2795 286.259 2762.15 316.184C2764.38 306.573 2760.55 295.979 2752.89 290.079C2732.06 317.978 2716.26 349.499 2706.34 382.938C2700.73 367.089 2697.68 350.375 2697.35 333.56C2674.12 379.65 2652.77 426.492 2633.29 474.088C2639.26 463.01 2620.52 452.506 2610.03 459.704C2599.71 466.815 2597.65 481.012 2596.62 493.418C2593.25 531.829 2590.06 570.155 2586.7 608.566C2583.05 594.064 2569.93 582.421 2555.02 580.812C2567.35 605.369 2565.11 636.639 2549.32 659.242C2533.53 681.844 2504.62 694.928 2477.17 691.781C2473.37 573.149 2469.74 454.431 2465.93 335.799C2464.61 296.567 2464.38 271.427 2498.4 251.518L2496.79 251.697Z" fill="#C9D691"/>
<path d="M1188.33 1253.5C1182.91 1256.5 1180.16 1255.54 1177.81 1249.12C1160.2 1201.66 1146.43 1153.06 1132.95 1104.34C1129.53 1091.85 1125.64 1079.41 1122.14 1066.93C1120.94 1062.45 1117.74 1060.27 1114.31 1058.03C1094.78 1045.37 1073.94 1035.55 1051.87 1027.23C1045.52 1033.03 1042.31 1041.82 1033.3 1045.3C1009.1 1054.7 992.499 1041.79 977.258 1025.78C969.671 1017.73 961.754 1015.05 951.794 1018.4C948.795 1019.37 945.817 1021.22 943.41 1023.32C927.901 1036.75 911.527 1035.57 894.765 1026.09C890.62 1023.78 886.652 1020.97 882.701 1018.31C878.332 1015.39 874.663 1015.24 869.615 1018.04C853.697 1027.15 834.135 1023.86 820.063 1010.67C804.957 996.549 792.837 994.497 775.837 1006.43C758.548 1018.55 740.137 1019.99 720.711 1016.54C715.086 1015.58 711.231 1015.85 706.956 1019.99C693.365 1033.21 676.755 1037.55 658.675 1033.62C644.342 1030.55 632.494 1032.99 621.236 1042.77C611.253 1051.44 598.434 1054.24 585.59 1054.73C571.125 1055.33 564.537 1045.1 569.57 1031.1C573.293 1020.67 579.997 1013.23 590.407 1009.76C596.022 1007.85 600.155 1004.52 602.525 999.329C610.005 982.906 624.057 976.553 640.257 974.807C651.001 973.597 659.706 970.152 667.02 961.935C678.938 948.35 694.302 948.845 709.419 954.057C720.01 957.712 726.9 954.71 735.09 948.064C755.229 931.566 777.514 925.875 802.083 938.448C808.595 941.768 815.004 940.013 820.946 936.879C842.8 925.275 863.212 925.042 882.496 943.139C888.753 949.031 897.258 949.344 905.299 946.213C927.556 937.504 947.1 942.695 963.241 959.794C969.937 966.83 976.444 968.72 985.558 967.534C1019.49 963.153 1039.17 975.722 1051.18 1008.63C1053.53 1015.04 1058.3 1019.51 1063.57 1022.1C1079.68 1029.9 1096.27 1036.53 1114.49 1044.42C1109.05 1024.36 1101.58 1006.29 1099.57 987.675C1095.59 950.843 1066.71 940.742 1042.38 925.44C1038.09 927.433 1036.79 931.077 1034.64 934.023C1017.26 957.84 995.922 958.099 977.898 934.614C967.348 920.938 967.133 920.406 951.865 927.691C939.1 933.739 927.728 930.728 916.631 923.95C912.878 921.671 909.081 918.998 906.229 915.743C894.33 901.821 881.565 896.106 862.868 903.3C849.23 908.493 833.384 897.481 827.772 883.488C823.477 872.922 814.039 871.919 804.999 872.382C792.633 872.98 780.269 874.294 768.164 876.532C752.114 879.613 738.646 875.248 726.834 864.179C722.76 860.425 718.686 856.671 714.748 852.743C708.173 846.091 701.504 844.14 692.032 847.672C673.24 854.718 656.642 848.083 643.173 834.02C629.884 820.176 616.043 813.866 595.654 815.687C569.655 818.06 544.268 810.667 524.407 790.886C519.946 786.46 515.948 784.765 509.797 786.73C497.801 790.625 486.558 788.077 477.008 779.853C465.824 770.223 453.163 764.734 438.747 762.304C419.175 758.945 410.403 748.646 411.444 732.313C412.565 714.62 426.608 701.273 445.092 701.177C455.652 701.1 466.495 701.468 475.839 707.171C483.764 712.002 490.532 710.683 498.281 707.027C517.909 697.741 533.239 700.703 546.934 718.158C559.9 734.662 575.309 740.398 595.073 735.786C608.854 732.563 621.493 736.465 629.102 748.167C638.22 762.243 650.031 763.614 663.296 759.258C686.231 751.745 703.894 760.247 719.079 777.137C733.022 792.656 734.637 793.19 753.824 784.827C774.051 776.03 789.732 779.35 803.563 796.63C811.695 806.763 822.336 808.108 832.243 804.289C858.691 794.154 879.095 803.54 897.588 822.203C901.535 826.21 905.209 827.783 911.189 825.678C936.584 816.537 955.861 823.506 970.037 846.63C973.744 852.651 977.916 855.201 985.232 854.615C1015.27 852.263 1036.91 870.493 1041.34 901.71C1042.23 908.208 1044.56 912.396 1049.95 916.081C1062.41 924.613 1074.33 933.843 1087.21 943.361C1089.24 937.964 1085.91 933.889 1085.11 929.528C1078.98 895.72 1072.09 862.076 1067.12 828.139C1064.58 811.096 1059.86 797.399 1043.21 790.293C1030.64 784.953 1020.15 773.893 1004.77 776.739C1000.05 777.589 995.755 778.789 991.43 781.104C973.611 790.584 955.418 793.27 937.589 781.21C927.756 774.607 918.351 773.203 907.965 778.983C900.499 783.084 893.216 781.202 885.996 777.803C876.725 773.442 867.513 768.916 858.115 764.808C851.742 762.029 845.001 761.516 839.389 766.203C818.086 784.104 798.307 777.509 778.762 762.622C774.938 759.714 771.25 756.632 767.427 753.724C762.577 749.978 756.723 746.981 751.111 749.601C730.495 759.078 713.076 752.059 697.562 738.465C678.162 721.415 655.823 716.937 631.001 714.567C603.593 712.012 577.287 702.655 560.577 677.035C554.195 667.261 545.89 661.123 534.594 658.103C516.732 653.359 503.368 642.306 495.431 624.917C490.402 614.038 482.449 606.19 471.428 601.47C465.388 598.892 459.711 595.398 454.043 591.983C439.297 583.152 434.241 572.036 438.309 557.747C442.991 541.321 456.643 530.721 471.999 531.137C491.091 531.609 505.905 540.352 516.165 556.286C525.275 570.283 535.476 579.468 553.538 578.386C565.35 577.691 574.952 586.386 581.691 595.881C590.557 608.395 602.128 611.781 616.07 610.687C643.937 608.342 665.052 618.522 678.055 645.037C685.007 659.198 699.357 657.581 711.722 659.049C723.379 660.438 734.271 657.78 745.747 654.102C766.98 647.337 784.797 658.604 800.669 671.919C808.557 678.502 816.095 684.727 826.77 683.604C832.526 682.955 838.382 681.818 843.739 679.704C865.468 671.135 884.859 676.343 899.719 693.11C910.931 705.757 923.181 708.272 937.818 705.748C959.078 702.001 978.307 705.08 994.835 720.785C1003.37 728.965 1009.49 738.45 1013.14 749.564C1016.93 761.14 1023.32 769.64 1034.55 774.814C1043.16 778.773 1051.02 784.484 1059.28 792.297C1060.36 783.909 1059.13 777.053 1057.76 770.45C1053.68 751.356 1051.89 732.003 1049.34 712.736C1046.67 693.085 1034.2 681.056 1018.13 672.215C1011.34 668.449 1004.71 671.024 998.308 674.21C977.251 684.611 954.333 680.517 938.907 662.86C927.943 650.343 915.476 651.43 901.998 655.97C878.552 663.779 862.523 658.749 845.931 639.713C835.052 627.266 822.985 620.836 805.188 627.054C784.623 634.221 765.007 630.469 749.256 612.69C736.622 598.454 729.802 597.235 713.788 605.479C704.388 610.353 694.433 612.35 684.195 611.834C672.242 611.273 662.883 606.127 657.397 593.948C650.887 579.578 644.259 577.305 628.387 577.821C603.678 578.539 580.468 573.921 563.34 552.878C557.839 546.106 550.096 544.275 542.241 542.14C528.938 538.552 516.796 532.845 509.217 520.027C503.355 510.036 505.032 502.137 514.65 496.442C537.674 482.799 560.517 477.92 583.126 497.947C590.973 504.853 600.333 503.082 609.255 500.885C629.982 495.846 648.065 500.486 663.204 516.268C679.036 532.687 694.248 535.981 714.731 527.393C729.951 521.067 746.456 525.487 758.081 539.042C769.251 552.012 775.613 553.997 790.553 545.875C814.203 532.956 838.642 540.218 852.738 557.786C861.126 568.129 871.936 570.965 885.189 565.815C910.36 556.063 930.96 563.042 945.64 586.506C951.98 596.602 959.443 598.702 969.609 595.808C984.137 591.627 998.478 596.847 1006.83 609.658C1012.45 618.166 1016.09 627.693 1015.84 637.974C1015.53 650.41 1020.8 659.275 1030.03 666.741C1035.07 670.783 1039.44 675.776 1044.14 680.332C1046.14 679.392 1045.41 677.726 1045.26 676.392C1039.94 635.974 1037.94 595.341 1037.8 554.658C1037.75 543.138 1026.89 538.479 1019.09 534.748C1004.72 527.862 989.625 522.171 972.798 525.259C956.5 528.209 942.8 521.088 930.852 510.193C920.625 500.773 910.85 494.005 895.108 494.984C879.365 495.963 865.626 485.032 852.577 476.089C843.068 469.609 833.925 467.778 822.661 471.273C813.724 474.029 803.908 472.432 794.687 469.894C789.794 468.538 784.875 466.945 780.092 465.179C764.042 459.277 748.625 453.463 730.624 459.943C712.028 466.649 693.193 459.471 675.057 454.361C667.355 452.208 660.437 452.193 652.709 454.653C634.399 460.453 616.84 459.093 601.207 445.831C587.457 434.105 588.123 417.894 602.74 407.582C609.87 402.566 618.093 400.367 626.166 398.901C634.238 397.435 639.889 393.778 645.437 387.827C658.811 373.363 673.191 370.63 692.151 379.622C702.414 384.507 710.801 385.151 720.526 378.332C736.147 367.271 752.427 371.081 766.438 381.664C780.696 392.378 794.841 395.156 811.559 390.41C827.144 385.952 840.2 394.258 852.072 403.095C861.327 410.08 870.495 412.147 881.714 410.326C911.108 405.663 935.807 413.849 953.083 440.36C957.209 446.652 962.442 452.421 969.928 454.042C991.654 458.588 1003.76 472.963 1007.9 493.959C1011.5 512.154 1018.97 526.733 1036.09 535.933C1040.17 528.716 1037.01 519.931 1037.21 512.039C1037.65 493.071 1037.46 474.094 1037.81 455.057C1038.04 439.848 1014.41 410.079 999.763 406.245C995.366 405.15 991.139 406.263 986.947 407.689C960.461 416.794 946.129 411.653 931.089 387.752C928.532 383.668 926.188 379.401 923.563 375.405C919.266 368.973 913.593 364.128 905.592 364.155C886.016 364.214 870.408 355.322 857.204 341.547C847.606 331.5 837.22 325.517 822.794 325.076C804.623 324.5 791.566 313.412 782.51 297.819C778.261 290.428 773.119 286.159 764.333 286.116C744.278 286.07 730.195 274.144 718.42 259.255C712.798 252.098 706.759 247.453 697.513 247.462C695.031 247.503 692.112 247.117 690.171 245.746C676.856 236.515 662.788 228.879 648.557 221.182C640.284 216.709 637.174 208.396 641.098 199.05C644.7 190.298 651.857 190.366 659.568 192.597C662.778 193.507 666.37 193.659 669.178 191.673C682.068 182.59 694.47 187.154 705.968 194.046C717.551 201.008 727.993 206.11 742.557 202.244C761.424 197.256 777.315 206.594 788.086 222.232C797.373 235.732 807.077 241.872 823.925 237.589C842.35 232.81 856.558 243.768 867.45 257.723C877.529 270.657 888.691 276.633 905.472 277.286C924.906 278.037 937.191 292.63 944.277 310.75C947.858 319.806 953.118 325.811 963.101 326.832C992.985 329.983 1008.1 342.826 1008.56 373.14C1008.91 397.027 1020.66 411.681 1036.49 426.748C1039.72 413.269 1037.75 399.897 1038.62 386.922C1040.34 362.086 1040.26 337.136 1042.22 312.353C1042.96 303.048 1039.82 297.281 1034.42 290.657C1022.63 276.326 1010.04 270.113 991.369 277.543C970.842 285.738 954.035 277.934 942.49 258.17C939.701 253.397 935.957 249.129 933.091 244.365C930.233 239.679 927.005 238.612 922.075 241.075C914.565 244.783 907.622 242.465 901.76 237.323C895.984 232.251 890.675 226.49 885.586 220.625C877.029 210.858 866.962 205.633 853.745 206.963C844.596 207.835 835.545 205.437 827.426 200.947C817.476 195.391 807.849 189.242 798.027 183.433C791.111 179.284 784.261 174.333 775.684 175.459C760.525 177.485 747.846 171.839 735.983 163.081C727.25 156.593 718.407 152.581 706.681 153.346C685.617 154.686 669.576 144.014 658.455 125.951C651.702 114.948 657.086 101.305 668.285 103.461C684.887 106.677 698.151 99.5387 712.181 94.3807C723.442 90.1706 733.872 91.698 743.77 97.4981C754.498 103.761 764.862 106.091 776.862 100.844C787.226 96.2579 797.179 100.462 805.442 106.923C819.069 117.55 832.569 123.58 850.744 120.737C865.936 118.31 879.014 128.203 888.993 139.559C898.886 150.844 909.588 156.872 924.757 157.706C942.665 158.709 955.453 170.86 965.103 185.512C970.532 193.724 976.019 198.988 986.372 200.524C1004.39 203.183 1019.74 222.916 1020.31 245.983C1020.77 264.612 1031.04 275.854 1043.67 289.296C1045.39 272.807 1046.85 258.096 1048.47 243.525C1050.09 229.512 1051.7 215.499 1053.63 201.53C1056.44 180.943 1043.54 168.486 1031.08 155.82C1028.89 153.602 1025.48 153.669 1022.72 154.695C1005.28 161.272 993.759 151.441 984.058 139.1C978.634 132.319 973.353 127.509 964.464 127.238C951.198 126.746 942.407 118.357 934.975 108.225C930.577 102.282 926.944 95.5371 921.782 90.3955C915.396 84.0406 908.167 80.5627 898.036 83.771C887.906 86.9793 878.003 82.5308 869.128 76.8538C862.938 72.9409 856.79 68.7054 850.863 64.3655C839.009 55.6855 825.52 52.5157 811.562 54.168C794.382 56.1835 780.744 49.6122 768.693 38.4903C754.297 25.1684 737.742 16.1438 719.863 9.17613C708.408 4.74367 698.259 -1.90263 690.053 -11.3116C684.357 -17.7444 680.993 -25.5527 684.657 -33.7556C688.693 -42.7953 697.265 -45.351 706.476 -45.6736C718.63 -46.0893 729.24 -41.5617 739.05 -34.4797C747.166 -28.6376 755.202 -26.284 765.56 -30.2334C779.572 -35.5484 794.03 -33.4414 803.06 -20.1508C815.323 -2.29612 830.627 -4.41822 849.184 -10.0865C839.155 -14.2821 833.737 -21.6999 827.622 -28.4034C821.952 -34.6007 814.971 -37.9474 806.295 -38.4005C793.864 -39.0665 782.887 -43.3938 774.584 -53.6662C768.818 -60.727 761.067 -64.7026 752.137 -66.7169C738.751 -69.66 727.409 -75.8539 721.525 -89.499C718.695 -96.0162 712.942 -99.5013 707.537 -103.344C701.884 -107.317 698.87 -112.701 700.193 -119.606C701.566 -126.756 706.29 -131.74 713.203 -133.155C723.227 -135.238 733.628 -136.728 743.377 -132.263C760.594 -124.267 781.037 -122.834 794.233 -106.357C798.843 -100.596 805.303 -99.814 812.266 -101.473C830.206 -105.72 846.751 -104.405 861.353 -90.6296C867.259 -85.0949 875.513 -83.5609 884.072 -84.8434C895.079 -86.4811 905.215 -83.4102 913.602 -75.8499C923.033 -67.2944 933.263 -62.0085 946.181 -63.2258C949.404 -63.589 953.489 -63.8902 955.849 -62.2484C983.677 -42.8091 1020.86 -36.2677 1037.26 -0.914957C1041.16 7.46955 1044.13 16.673 1050.78 23.2375C1057.06 29.3656 1064.59 34.1604 1072.84 40.4648C1076.41 18.9974 1082.38 -1.86586 1082.36 -22.8483C1082.31 -32.2233 1069.71 -41.3748 1059.16 -45.9896C1053.94 -48.262 1048.28 -49.4536 1041.55 -47.1054C1029.45 -42.8001 1013.54 -50.228 1006.43 -61.6679C1002.44 -68.0554 999.056 -73.3174 989.741 -73.2217C982.056 -73.1505 976.434 -80.3072 972.025 -87.044C965.36 -97.2625 958.019 -105.894 944.345 -105.864C935.952 -105.872 929.601 -111.913 923.473 -117.343C917.175 -122.913 910.518 -126.138 901.741 -126.102C886.515 -126.056 874.232 -133.018 866.114 -146.491C860.767 -155.348 853.307 -161.582 844.706 -166.892C827.685 -177.295 816.2 -192.376 810.823 -211.881C809.017 -218.275 805.357 -223.188 800.82 -227.605C795.495 -232.808 790.732 -238.551 787.568 -245.269C782.385 -256.132 788.811 -264.646 800.672 -263.518C811.125 -262.47 817.549 -255.086 823.871 -247.929C827.434 -243.879 831.236 -239.777 836.262 -239.31C849.598 -238.189 859.169 -231.16 867.59 -221.219C873.056 -214.76 881.032 -212.241 888.879 -210.184C904.486 -206.14 916.801 -197.512 925.5 -183.707C928.727 -178.506 933.105 -175.502 938.694 -174.86C952.152 -173.356 962.72 -166.439 971.389 -156.367C975.415 -151.654 979.915 -150.333 985.945 -150.615C1006.17 -151.781 1016.96 -144.969 1025.41 -125.809C1027.4 -121.264 1030.48 -118.749 1034.65 -116.914C1053.7 -108.489 1063.95 -93.9849 1063.65 -72.4882C1063.39 -56.0845 1076.52 -48.502 1085.74 -35.6299C1089.5 -64.4314 1093.03 -91.0616 1096.49 -117.683C1096.65 -119.052 1096.83 -120.901 1096.17 -121.939C1089.41 -131.67 1083.13 -141.853 1075.3 -150.668C1072.37 -153.994 1066.03 -156.459 1061.04 -154.545C1039.88 -146.438 1026.23 -157.936 1013.89 -173C1010.11 -177.582 1007.05 -182.722 1003.36 -187.234C1000.56 -190.656 997.639 -195.254 993.95 -196.269C979.408 -200.513 970.737 -211.3 962.803 -223.125C956.182 -232.951 947.975 -240.293 937.244 -245.204C928.315 -249.286 921.516 -256.548 917.551 -265.56C911.787 -278.821 903.473 -289.888 893.355 -299.717C881.661 -311.118 874.718 -325.2 870.021 -340.728C868.518 -345.805 868.783 -350.365 872.309 -354.26C875.902 -358.242 881.348 -359.571 885.299 -356.916C902.538 -345.266 922.656 -337.041 933.628 -317.53C937.612 -310.428 942.145 -304.659 949.519 -301.277C964.839 -294.259 976.045 -283.042 983.233 -267.477C986.122 -261.125 991.085 -257.074 997.975 -255.228C1013.92 -250.983 1025.03 -240.55 1030.9 -224.996C1033.88 -217.144 1038.89 -213.337 1046.5 -211.332C1064.36 -206.589 1075.32 -194.151 1076.61 -175.696C1077.85 -158.428 1088.97 -147.995 1098.57 -132.385C1101.91 -158.038 1107 -180.551 1107.1 -203.138C1107.22 -225.646 1093.47 -241.505 1073.41 -251.248C1065.52 -255.049 1057.69 -259.095 1050.68 -264.744C1044.1 -270.044 1038.62 -276.659 1037.18 -284.605C1034.81 -297.454 1027.97 -307.097 1019.73 -316.183C1019.02 -316.977 1017.54 -317.685 1017.44 -318.549C1013.78 -343.494 987.912 -362.12 997.506 -390.864C999.362 -396.478 996.298 -401.618 994.002 -406.844C985.081 -427.46 993.791 -446.088 1000.97 -464.543C1002.83 -469.364 1008.21 -469.891 1013.33 -467.209C1022.08 -462.709 1025.99 -454.804 1026.87 -445.603C1028.16 -432.076 1033.31 -420.812 1041.65 -410.226C1050.63 -398.758 1056.93 -385.557 1057.46 -370.434C1057.98 -356.821 1062.33 -345.069 1071.98 -335.267C1076.89 -330.256 1081.65 -323.877 1081.81 -316.9C1082.38 -292.481 1102.32 -273.345 1099.36 -247.813C1098.56 -241.125 1106.43 -236.129 1110.13 -228.042C1116.13 -254.233 1116.81 -278.634 1111.46 -302.752C1109.56 -311.362 1100.43 -317.17 1099.97 -327.531C1099.64 -335.999 1100.17 -343.69 1104.39 -351.16C1112.05 -364.583 1113.01 -378.204 1105.49 -392.54C1099.37 -404.17 1102.31 -416.028 1108.5 -426.583C1114.17 -436.362 1115.62 -445.588 1110.78 -456.171C1106.77 -464.861 1109.33 -473.893 1114.99 -480.254C1123.27 -489.534 1123.79 -500.164 1123.69 -511.362C1123.65 -513.184 1123.43 -515.147 1123.85 -516.864C1125.56 -523.098 1127.87 -530.195 1135 -530.362C1141.83 -530.495 1145 -524.414 1147.06 -517.81C1150.15 -507.586 1151.05 -497.513 1149.13 -486.962C1147.68 -479.089 1149.01 -471.369 1153.07 -464.275C1161.85 -449.128 1164.27 -433.105 1156.25 -417.337C1148.35 -401.821 1158.1 -384.876 1148.91 -367.783C1159.65 -371.139 1164.82 -375.616 1167 -384.527C1171.84 -404.467 1177.98 -409.293 1197.85 -409.465C1203.83 -409.503 1208.39 -411.766 1211.88 -416.69C1216.05 -422.486 1221.03 -427.26 1228.02 -429.399C1234.93 -431.529 1242.38 -435.707 1247.81 -427.496C1253.24 -419.284 1252.87 -410.18 1246.33 -402.686C1242.26 -398.094 1237.11 -394.096 1231.68 -391.259C1224.27 -387.324 1221.35 -381.51 1220.53 -373.549C1218.74 -356.335 1211.03 -347.439 1194.72 -343.931C1188.42 -342.585 1185.39 -338.428 1183.52 -332.971C1178.02 -316.851 1168.65 -306.892 1150.3 -309.038C1144.71 -309.68 1141.25 -305.235 1138.52 -300.476C1126.14 -278.573 1120.4 -254.953 1120.69 -229.549C1133.88 -238.031 1142.16 -248.662 1144.14 -265.657C1146.22 -283.777 1154.21 -299.144 1175.77 -300.938C1183.16 -301.532 1188.99 -306.402 1193.13 -313.069C1202.49 -328.034 1213 -340.983 1231.96 -344.471C1242.46 -346.449 1250.32 -353.933 1255.1 -364.646C1258.08 -371.341 1263.35 -377.022 1270.87 -379.3C1280.94 -382.342 1287.27 -389.653 1292.39 -398.657C1296.67 -406.214 1302.15 -412.793 1310.75 -415.113C1322.73 -418.45 1329.92 -410.516 1326.34 -398.11C1325.45 -394.91 1324.18 -391.746 1322.63 -388.869C1317.87 -380.066 1314.01 -371.523 1313.11 -360.928C1311.91 -347.359 1303.36 -337.016 1291.86 -330.076C1285.02 -325.967 1280.28 -320.346 1276.58 -313.172C1267.09 -294.615 1252.25 -282.847 1234.66 -271.326C1212.5 -256.906 1192.23 -246.434 1164.66 -246.268C1147.65 -246.18 1133.05 -229.511 1120.27 -215.988C1118.46 -214.115 1117.62 -211.875 1117.24 -209.05C1114.16 -185.968 1110.76 -162.931 1107.2 -137.888C1120.23 -146.431 1132.09 -153.649 1143.21 -161.897C1147.51 -165.085 1149.58 -170.882 1150.33 -176.611C1153.11 -197.591 1167.18 -205.853 1185.42 -208.784C1191.83 -209.824 1198.47 -211.605 1201.99 -216.215C1213.57 -231.431 1230.4 -233.089 1246.8 -235.89C1256.03 -237.408 1263.27 -241.404 1268.9 -248.715C1275.48 -257.247 1283.94 -262.174 1294.41 -264.467C1301.99 -266.116 1308.12 -270.384 1311.91 -278.203C1317.01 -288.794 1324.36 -297.412 1336.36 -300.592C1341.42 -301.878 1343.65 -306.184 1346.22 -310.367C1351 -318.299 1358.09 -321.562 1366.75 -317.848C1375.4 -314.133 1376.58 -306.396 1374.4 -298.122C1372.07 -289.116 1369.83 -279.961 1363.49 -272.807C1357.56 -266.098 1356.18 -257.596 1353.68 -249.445C1347.89 -230.43 1335.76 -217.378 1317.19 -211.073C1311.42 -209.151 1306.86 -206.173 1302.96 -201.441C1295.18 -191.899 1285.45 -185.795 1272.89 -185.494C1264.67 -185.362 1258.36 -181.391 1252.5 -176.121C1241.77 -166.486 1230.95 -156.999 1215.12 -158.157C1210.89 -158.475 1208.06 -154.579 1204.72 -152.454C1192.78 -144.669 1180.39 -142.876 1167.52 -149.534C1157.04 -154.951 1148.04 -153.459 1137.59 -148.228C1114.62 -136.895 1100.18 -121.517 1101.27 -93.1818C1101.84 -79.097 1097.92 -64.8245 1095.97 -49.7393C1117.71 -58.8666 1137.05 -67.2464 1144.77 -92.5994C1150.66 -112.102 1168.75 -119.864 1188.85 -116.007C1199.17 -113.992 1207.9 -116.565 1214.57 -124.311C1224.39 -135.752 1236.13 -139.936 1250.72 -136.652C1263.62 -133.814 1275.1 -135.425 1284.14 -146.936C1288.69 -152.775 1295.39 -154.722 1302.98 -152.875C1307.54 -151.719 1312.38 -151.47 1317 -150.48C1326.38 -148.596 1334.29 -150.839 1340.6 -158.307C1349.45 -168.763 1360.49 -174.299 1374.23 -173.702C1381.34 -173.39 1387.91 -175.084 1394.1 -178.723C1407 -186.377 1420.89 -185.16 1434.36 -181.432C1449.77 -177.126 1453.48 -162.044 1442.62 -150.09C1437.3 -144.243 1430.79 -140.648 1423 -138.737C1413.08 -136.348 1403 -133.384 1396.73 -124.25C1386.56 -109.591 1375.59 -97.227 1355.86 -96.5134C1345.72 -96.1655 1337.16 -89.3191 1328.57 -83.5018C1314.12 -73.7657 1298.52 -67.3182 1280.63 -67.4487C1267.34 -67.54 1255.04 -62.1797 1242.85 -57.2292C1234.01 -53.6098 1225.3 -52.9468 1216.16 -56.1299C1207.51 -59.1295 1198.93 -58.719 1190.72 -54.3751C1180.74 -49.1173 1170.01 -48.4647 1160.08 -53.1487C1145.97 -59.7464 1133.77 -55.6681 1120.33 -50.7363C1099.81 -43.1775 1089.71 -30.036 1088.9 -7.44971C1088.44 7.14861 1084.71 21.6391 1082.34 37.1687C1098.1 31.4978 1110.21 24.489 1119.61 11.3469C1131.29 -5.07202 1146.89 -15.6529 1168.6 -7.05075C1173.89 -4.94395 1178.55 -7.05868 1182.76 -10.3947C1196.74 -21.5092 1211.72 -25.1053 1228.63 -17.0746C1242.76 -10.3198 1257.1 -12.0152 1271.14 -17.7314C1284.97 -23.3431 1298.71 -24.0975 1312.61 -18.0319C1318.65 -15.3749 1323.71 -16.0242 1328.22 -21.5402C1336.28 -31.4306 1346.97 -33.8273 1358.88 -30.8769C1369.82 -28.2153 1380.3 -28.3622 1390.99 -32.7473C1398.94 -36.0275 1407.47 -34.8421 1415.64 -31.9477C1421.3 -29.9626 1425.4 -26.6884 1426.56 -20.539C1427.78 -13.7617 1424.25 -9.23012 1419.32 -5.4151C1411.67 0.53394 1402.5 3.31584 1393.58 6.22879C1386.38 8.55037 1380.52 12.3905 1375.48 18.0456C1363.47 31.4817 1348.68 39.5083 1330.72 40.8166C1313.69 42.0997 1298 47.7619 1283.16 56.0325C1274.01 61.1168 1264.67 62.3289 1254.65 59.642C1241.92 56.2286 1229.6 58.0132 1217.05 61.7337C1201.1 66.4713 1184.89 68.1389 1169.16 59.4989C1163.61 56.4674 1157.41 55.1795 1151.11 56.5252C1142.31 58.4703 1135.68 54.7664 1129.34 48.8824C1115.36 35.7528 1095.54 35.76 1082.09 48.8023C1080.48 50.4141 1079.65 53.3697 1079.3 55.7937C1074.99 91.4929 1070.77 127.262 1066.63 163.022C1066.47 164.391 1067.18 165.822 1067.6 168.16C1081.3 159.382 1093.88 151.048 1101.25 135.672C1110.74 115.684 1126.11 103.141 1149.5 104.48C1156.38 104.896 1161.21 100.855 1166.06 96.9697C1174.61 90.0448 1183.82 87.6553 1194.66 90.7267C1206.87 94.2791 1218.62 92.398 1228.51 84.2098C1239.52 75.0199 1250.9 74.612 1262.92 81.3647C1276.27 88.8426 1288.69 89.3517 1301.58 79.6315C1310.17 73.0991 1320.33 72.1932 1330.46 77.9674C1337.36 81.9595 1343.78 83.0643 1351.48 77.6647C1360.41 71.3332 1370.58 71.936 1380.29 78.1545C1388.33 83.2901 1396.34 86.1235 1404.88 77.7684C1409.79 73.0028 1417.3 72.7919 1423.45 75.6757C1430.59 79.0052 1437.46 79.2646 1444.76 77.885C1447.96 77.2863 1451.32 76.7489 1454.54 77.1008C1463.19 78.0335 1471.51 80.8322 1475 89.7396C1478.37 98.2631 1474.96 105.96 1468.56 111.928C1465.1 115.099 1462.69 119.902 1457.86 121.162C1441.56 125.463 1427.96 133.752 1417.77 148.969C1429.99 143.539 1442.31 142.548 1454.92 144.784C1460.39 145.757 1465.57 147.637 1469.48 151.967C1478.08 161.411 1476.38 168.438 1464.47 172.403C1449.64 177.334 1438.63 185.887 1432.21 201.395C1426.53 215.152 1414.13 221.715 1399.69 221.832C1388.98 221.927 1379.72 221.778 1371.11 230.936C1364.22 238.15 1353.1 240.119 1342.6 239.315C1327.78 238.202 1314.34 240.274 1301.2 249.226C1289.57 257.055 1275.78 261.551 1260.78 259.504C1251.31 258.187 1242.08 259.704 1233.96 266.342C1223.3 275.175 1210.87 274.509 1198.67 270.398C1186.97 266.55 1176.65 265.964 1168.35 277.154C1166.73 279.324 1163.52 280.559 1160.81 281.342C1148.07 284.844 1134.69 284.683 1122.15 289.99C1115.85 292.688 1109.33 287.938 1104.12 283.755C1098.91 279.495 1093.22 278.704 1087.65 281.001C1075.4 286.039 1064.88 294.139 1054.62 302.449C1052.85 303.921 1051.98 305.848 1051.94 308.316C1050.85 338.009 1049.6 367.72 1048.67 397.475C1048.23 409.527 1048.28 421.684 1048.13 436.247C1061.77 423.502 1075.82 415.719 1088.76 406.391C1094.65 402.15 1097.21 395.821 1096.78 387.919C1095.55 361.668 1103.48 352.745 1129.62 350.276C1135.54 349.689 1138.82 345.663 1141.46 341.471C1149.19 329.391 1160.81 327.684 1173.14 328.839C1180.05 329.412 1186.94 329.907 1193.72 330.812C1202.33 331.989 1207.82 328.349 1212.33 322.117C1223.61 306.3 1237.98 300.706 1256.27 307.866C1265.29 311.381 1271.47 306.232 1276.53 300.734C1291.47 284.345 1308.08 277.227 1330.39 284.251C1343.68 288.398 1354.37 279.8 1362.67 269.962C1376.31 253.72 1391.99 248.773 1411.25 258.288C1414.87 260.105 1418.04 259.986 1421.53 257.844C1427.42 254.24 1433.49 250.853 1439.66 247.693C1459.28 237.613 1472.3 239.405 1488.56 254.106C1497.47 262.164 1498.01 272.438 1489.28 281.211C1480.4 290.081 1469.66 295.425 1457.09 295.57C1443.04 295.722 1433.79 303.362 1427.49 315.042C1421.05 326.896 1411.83 332.704 1398.69 334.026C1387.01 335.183 1376.39 338.844 1368.76 349.799C1362.07 359.456 1350.82 362.314 1339.77 362.922C1322 363.812 1306.58 368.411 1293.69 382.265C1286.97 389.54 1276.55 391.588 1266.26 390.602C1253.77 389.386 1243.1 391.304 1234.16 402.327C1222.89 416.156 1206.68 415.757 1190.68 413.029C1185.69 412.161 1180.71 410.735 1175.98 408.803C1166.95 405.132 1158.86 406.519 1151.57 412.826C1139.96 422.958 1127.29 424.306 1112.91 419.408C1093.6 412.841 1056.81 429.148 1049.2 447.891C1044.89 458.631 1048.35 470.721 1047.37 482.119C1046.58 491.667 1048.23 501.497 1047.6 511.107C1047.02 520.473 1047.97 529.665 1048.28 540.043C1063 535.444 1077.45 531.272 1092.28 528.408C1097.45 527.349 1101.78 523.045 1104.64 518.034C1106.65 514.469 1108.49 510.843 1110.66 507.339C1120.79 490.936 1137.72 488.074 1152.3 500.262C1163.97 510.076 1168.14 510.56 1178.09 499.503C1190.88 485.343 1204.05 480.838 1221.6 491.181C1229.92 496.046 1239.57 494.8 1246.61 486.853C1255.57 476.702 1266.25 473.511 1279.18 476.585C1294.99 480.367 1307.83 475.025 1315.31 460.59C1325.6 440.83 1341.21 434.54 1361.71 438.589C1372.43 440.64 1380.81 438.424 1386.98 428.348C1393.89 417.157 1405.65 416.07 1417.06 415.898C1428.92 415.673 1437.05 411.896 1443.28 400.304C1450.6 386.601 1463.37 377.771 1479 375.134C1485.63 373.99 1489.24 370.801 1491.65 364.646C1495.33 355.17 1503.64 351.69 1512.51 351.088C1521 350.529 1527.53 353.37 1528.64 364.612C1531.15 389.766 1526.15 400.584 1503.51 411.402C1496.88 414.614 1490.83 418.235 1489.09 425.507C1483.59 448.542 1468.41 460.746 1446.96 465.548C1439.3 467.285 1434.74 471.615 1431.51 478.179C1424.93 491.559 1415.34 500.907 1400.21 503.169C1398.52 503.359 1396.45 504.308 1395.59 505.676C1384.61 522.095 1366.87 523.221 1350.23 526.606C1341.03 528.437 1334.73 533.917 1328.38 540.355C1314.65 554.383 1299.3 563.743 1278.69 556.607C1271.5 554.158 1265.23 556.533 1259.79 561.996C1252.53 569.332 1245.32 576.424 1235.62 580.697C1226.66 584.647 1218.24 585.756 1209.6 580.131C1205.74 577.546 1201.86 576.234 1197.32 578.733C1175.16 591.008 1157.19 579.837 1140.04 566.905C1132.49 561.238 1126.89 552.886 1119.66 546.626C1103.29 532.335 1085.34 537.855 1067.78 543.411C1046.25 550.289 1047.6 550.534 1048.12 573.924C1049.1 611.651 1052.15 649.224 1055.29 686.866C1055.7 691.907 1055.06 697.227 1058.24 702.75C1067.88 694.509 1078.9 688.816 1088.82 681.657C1095.79 676.58 1100.08 668.386 1103.4 659.904C1111.48 639.121 1119.22 634.035 1141.3 634.17C1150.56 634.24 1157.75 631.84 1163.82 623.604C1175.2 608.014 1193.44 602.938 1210.14 614.012C1220.22 620.667 1229.79 619.429 1238.94 610.926C1255.27 595.811 1273.63 593.902 1293.61 603.653C1306.92 610.102 1314.75 608.583 1323.03 596.521C1332.72 582.473 1344.96 577.278 1361.62 579.614C1374.57 581.414 1385.02 576.183 1391.63 563.832C1400.5 547.332 1413.03 535.666 1432.31 533.731C1436.38 533.273 1440.29 533.469 1444.28 534.449C1462.89 538.871 1476.49 532.648 1483.99 515.031C1490.7 499.409 1501.78 490.054 1518.36 490.331C1531.98 490.545 1539.1 483.383 1544.65 472.583C1551.72 458.75 1562.32 447.938 1574.17 438.574C1584.67 430.317 1595.98 430.075 1605.54 436.947C1614.76 443.619 1616.99 453.144 1612.63 466.91C1610.98 472.263 1609.1 477.642 1605.12 481.667C1596.26 490.694 1591.9 500.963 1590.97 514.104C1589.93 529.086 1580.17 538.373 1565.58 540.574C1558.24 541.64 1554.86 545.439 1552.3 551.768C1550.24 556.929 1547.44 561.775 1544.64 566.542C1539.53 575.066 1532.22 579.865 1522.23 580.117C1517.88 580.208 1513.41 580.474 1509.15 581.351C1498.89 583.382 1490.51 586.95 1485.4 598.177C1475.85 619.046 1460.04 626.313 1438.01 621.164C1426.2 618.362 1418.24 621.563 1412.61 632.293C1409.27 638.552 1404.66 643.841 1399.36 648.571C1388.99 657.927 1377.78 659.827 1365.09 653.387C1349.19 645.323 1343.53 647.55 1333.34 661.973C1321.81 678.296 1304.91 684.89 1285.86 683.459C1276.46 682.77 1269.03 683.766 1262.17 690.501C1252.44 700.023 1240.05 701.738 1227.51 699.415C1213.39 696.872 1200.93 699.39 1189.16 707.393C1172.26 718.836 1155.79 718.149 1139.96 704.511C1135.74 700.853 1131.39 697.448 1126.83 694.226C1115.36 686.139 1103.88 683.616 1090.41 690.938C1057.24 709.063 1056.62 709.769 1061.96 747.64C1064.75 767.596 1066.54 787.743 1069.17 811.135C1088.92 789.753 1112.84 779.267 1129.93 759.853C1133.24 756.141 1135.01 751.809 1136.67 747.249C1145.15 724.435 1164.12 714.189 1187.34 720.952C1195.78 723.419 1202.48 722.903 1207.92 716.01C1215.47 706.415 1225.17 703.494 1236.23 707.176C1260.12 715.135 1278.29 709.432 1296.73 690.979C1313.15 674.582 1331.76 674.87 1350.98 687.568C1356.18 691.035 1361.48 694.573 1367.24 696.784C1376.82 700.395 1385.43 699.584 1392.28 689.989C1403.08 674.781 1409.74 673.157 1427.85 679.383C1436.57 682.374 1442.4 678.22 1447.66 671.745C1454.76 662.996 1460.62 652.955 1472.95 649.897C1480.35 648.03 1487.52 648.891 1494.65 649.439C1515.13 651.185 1530.15 642.339 1535.39 622.591C1540.52 603.253 1552.08 592.014 1570.96 587.82C1582.03 585.38 1588.41 579.177 1588.91 566.323C1589.42 552.911 1597.72 543.788 1609.55 543.25C1619.37 542.78 1622.64 538.039 1624.13 529.127C1626.7 513.973 1634.91 504.065 1650.05 499.737C1663.53 495.912 1672.77 501.389 1680.57 511.399C1688.38 521.41 1685.06 531.959 1680.83 542.054C1678.08 548.722 1673.28 554.43 1667.47 558.026C1657.15 564.356 1655.16 572.927 1656.67 584.362C1658.74 600.663 1656.45 603.783 1642.48 610.205C1631.35 615.328 1628.02 624.209 1632.5 636.847C1639.66 634.212 1647.01 632.588 1654.71 632.595C1668.62 632.617 1676.17 642.418 1672.58 656.098C1671.7 659.297 1670.52 662.688 1668.55 665.216C1659.65 676.553 1653.25 688.085 1656.35 703.951C1657.72 711.269 1650.01 716.032 1643.77 719.279C1630.32 726.121 1622.64 736.604 1621.44 752.24C1620.15 769.079 1607.47 775.197 1594.19 778.76C1581.07 782.306 1571.17 786.918 1564.85 801.145C1558.4 815.702 1542.77 821.121 1528.12 824.918C1515.13 828.289 1504.22 834.208 1496.78 845.46C1483.42 865.645 1464.04 872.917 1441.51 873.707C1426.96 874.233 1414.76 879.105 1404.19 889.438C1392.5 900.93 1377.94 906.863 1361.62 906.874C1345.07 906.91 1331.81 913.334 1321.96 926.685C1307.8 945.927 1288.62 950.871 1266.62 946.672C1248.12 943.114 1232.49 946.544 1219.03 960.938C1205.86 975.062 1189.01 975.926 1172.83 967.495C1158.31 959.99 1146.93 964.453 1135.34 972.674C1133.9 973.711 1133.03 975.637 1131.68 976.744C1107.42 996.726 1115.02 1020.11 1123.27 1045.1C1139.41 1094.07 1153.62 1143.74 1169.02 1192.96C1173.99 1208.86 1180.24 1224.37 1186.11 1240C1187.88 1244.65 1189.01 1249.21 1188.09 1254.17L1188.33 1253.5ZM1497.26 742.545C1482.87 750.686 1468.25 749.233 1453.18 747.91C1442.98 746.993 1430.65 743.135 1422.55 753.985C1410.94 769.602 1395.26 773.913 1377.11 772.142C1363.04 770.786 1350.65 771.149 1340.42 784.543C1332.29 795.158 1319.13 797.674 1306.59 791.217C1292.25 783.93 1279.63 785.034 1266.9 794.816C1248.51 808.97 1229.54 809.518 1210.54 795.363C1208.84 794.045 1206.8 793.162 1204.46 791.756C1202.28 794.466 1200.07 796.941 1198.11 799.546C1180.16 823.032 1164.32 824.578 1142.83 804.822C1118.65 782.587 1112.35 782.502 1087.19 804.097C1078.19 811.867 1071.68 818.245 1074.79 834.19C1083.61 879.538 1091.67 924.973 1102.46 969.861C1104.18 976.9 1104.19 985.246 1110.12 991.731C1117.69 980.227 1125.48 970.048 1134.3 960.63C1139.07 955.402 1141.6 948.201 1141.04 941.11C1139.46 920.78 1151.38 909.341 1166.31 900.425C1171.04 897.587 1174.46 894.817 1176.71 889.953C1187.29 866.504 1207.09 856.005 1230.54 857.179C1251.09 858.201 1264.59 850.4 1276.13 834.871C1285.37 822.304 1297.59 815.522 1313.46 815.005C1324.22 814.667 1334.51 816.369 1344.6 819.684C1355.65 823.287 1364.5 820.383 1372.2 812.201C1375.75 808.464 1379.37 804.795 1383.09 801.197C1395.69 788.808 1410.32 780.721 1428.18 782.682C1442.97 784.275 1456.07 779.142 1469.6 775.074C1473.88 773.796 1477.2 770.799 1479.45 766.65C1484.14 757.855 1489.75 749.672 1497.34 742.537L1497.26 742.545ZM1053.4 288.756C1060.19 284.891 1065.14 281.948 1070.12 279.24C1081.53 272.867 1089.43 264.346 1090.53 249.914C1091.17 241.734 1096.95 236.473 1105.2 235.94C1109.99 235.639 1112.43 233.854 1113.96 229.468C1118.9 215.398 1129.64 209.975 1143.4 208.662C1158.93 207.151 1174.23 205.666 1188.12 196.47C1196.44 191.001 1206.65 190.566 1215.55 198.546C1220.81 203.199 1227.01 203.693 1232.33 198.483C1246.68 184.465 1264.31 182.241 1283.07 183.227C1297.44 183.912 1312.33 187.083 1324.86 176.212C1336.76 165.889 1349.78 163.547 1364.32 170.494C1371.38 173.832 1378.94 175.443 1386.04 170.113C1393.49 164.504 1401.02 158.886 1408.47 153.277C1394.52 154.371 1380.93 155.108 1367.6 151.285C1361.34 149.526 1354.81 149.467 1349.23 151.685C1336.59 156.766 1324.3 154.574 1311.75 152.173C1301.27 150.174 1290.69 148.743 1281.07 155.074C1265.44 165.341 1250.44 165.998 1234.43 154.924C1220.78 145.493 1206.59 145.741 1193.06 156.803C1185.16 163.258 1175.72 166.388 1165.4 163.021C1157.98 160.598 1152.16 162.764 1146.32 167.555C1136 175.952 1123.67 175.513 1113.69 168.928C1101.25 160.631 1091.09 160.743 1080.34 170.221C1074.96 174.882 1065.76 176.713 1064.78 184.613C1060.45 218.725 1057.07 252.969 1053.11 288.948L1053.4 288.756ZM1055.78 171.558C1056.32 170.146 1056.83 169.213 1056.96 168.245C1061.57 131.797 1066.1 95.3563 1070.55 58.8462C1070.78 56.7534 1070.34 54.1805 1069.37 52.4616C1061.86 39.5562 1040.48 31.8701 1027.03 37.3601C1012.24 43.3982 998.591 45.0158 985.529 32.4976C971.679 19.1937 954.094 22.447 934.285 21.8176C944.684 29.3101 951.773 36.3808 956.131 45.4285C962.01 57.6434 972.038 63.906 984.22 66.5078C1012.79 72.509 1026.87 93.3393 1030.14 119.758C1032.78 141.162 1043.39 156.023 1055.79 171.637L1055.78 171.558ZM866.491 -5.43894C877.642 23.2722 900.79 22.492 924.193 17.0726C909.643 -1.08079 901.187 -4.42024 866.491 -5.43894ZM1503.21 739.49C1515.6 732.848 1532.6 734.748 1540.77 718.962C1520.58 712.175 1513.14 728.197 1503.21 739.49ZM1590.47 688.164C1601.81 679.175 1604.39 668.233 1608.65 658.373C1595.56 662.948 1593.48 674.152 1590.47 688.164Z" fill="#29514B"/>
<path d="M-228.83 747.295C-226.264 704.612 -219.933 662.24 -220.852 619.339C-220.588 604.401 -221.253 589.466 -220.479 574.385C-218.171 536.73 -206.193 500.245 -204.118 462.358C-201.957 377.564 -214.476 293.2 -218.541 208.524C-220.407 184.054 -223.992 159.638 -232.311 136.451C-250.33 93.3387 -277.718 54.2663 -307.138 18.0873C-345.664 -28.9909 -382.014 -77.9857 -418.64 -126.607C-427.474 -139.276 -435.288 -152.693 -443.149 -165.97C-451.002 -177.386 -456.889 -196.674 -471.353 -200.2C-489.292 -201.152 -486.183 -179.525 -487.155 -167.143C-488.887 -136.424 -490.945 -105.656 -488.821 -74.9055C-486.754 -24.1913 -458.416 19.9961 -441.822 66.9759C-421.763 109.056 -433.744 155.917 -439.511 199.869C-444.927 250.288 -456.975 303.478 -440.417 352.925C-431.283 382.112 -414.218 407.87 -402.859 435.931C-388.326 478.824 -381.493 524.913 -357.728 564.186C-334.105 602.947 -301.769 636.369 -286.861 680.005C-277.272 706.864 -268.889 734.099 -261.899 761.806C-259.303 771.801 -257.171 781.797 -254.574 791.791C-253.536 795.696 -252.265 799.833 -248.863 802.192C-259.659 832.25 -270.734 862.216 -283.763 891.539C-319.676 971.722 -361.407 1049.37 -392.572 1131.58C-394.194 1121.44 -396 1111.4 -396.228 1101.25C-397.407 1040.3 -400.538 979.165 -394.98 918.416C-391.098 856.649 -380.338 795.134 -379.523 733.286C-380.473 682.94 -393.637 633.992 -404.57 585.314C-415.359 526.305 -445.54 474.54 -472.704 422.065C-486.568 395.037 -496.955 366.367 -507.016 337.649C-524.254 292.161 -541.262 246.439 -550.705 198.407C-555.877 183.536 -556.368 143.1 -576.165 142.155C-582.858 141.81 -587.76 147.32 -588.896 153.607C-601.363 195.352 -616.713 236.457 -622.995 279.619C-636.692 395.312 -659.92 509.415 -675.988 624.792C-680.503 656.919 -686.595 689.61 -683.069 722.217C-678.359 783.251 -627.777 824.231 -599.46 874.608C-573.686 916.711 -572.451 968.546 -549.413 1011.92C-533.058 1045.96 -502.484 1068.73 -475.064 1093.1C-457.947 1108.81 -441.153 1125.03 -425.008 1141.81C-419.547 1147.79 -412.834 1153.25 -409.783 1160.92C-408.936 1163.52 -407.07 1165.38 -404.88 1166.72C-417.089 1203.43 -429.298 1240.15 -440.809 1277.1C-461.632 1354.66 -485.476 1432.01 -492.813 1512.31C-495.065 1529.53 -501.335 1552.87 -481.597 1562.01C-471.171 1566.53 -457.945 1562.52 -452.364 1552.58C-448.071 1545.63 -449.405 1537.45 -447.532 1529.86C-443.281 1501.36 -442.749 1472.41 -437.94 1444.1C-424.949 1382.86 -408.889 1322.16 -390.456 1262.24C-387.762 1262.04 -385.162 1261.66 -382.653 1261.56C-367.328 1259.64 -351.774 1257.01 -336.875 1253.09C-285.955 1263.36 -240.081 1289.47 -189.758 1301.55C-103.651 1326.66 -10.8471 1319.12 73.2702 1289.51C128.993 1270.07 183.575 1244.21 226.991 1203.37C273.978 1161.07 326.382 1125.35 379.302 1090.89C419.115 1066.67 462.249 1047.88 498.414 1017.82C508.927 1009.35 519.812 1001.17 529.344 991.449C531.426 989.347 533.088 986.641 533.772 983.614C534.816 977.606 531.118 970.967 525.072 969.595C482.185 969.255 438.831 968.451 395.963 972.765C348.542 977.282 301.933 987.334 254.658 993.294C196.367 998.413 140.018 1012.69 84.6623 1031.02C40.4861 1044.97 -4.91564 1054.64 -48.763 1069.48C-107.924 1089.02 -164.498 1116.24 -214.432 1153.85C-252.56 1180.95 -290.572 1213.82 -335.915 1226.61C-340.565 1225.7 -345.622 1227.44 -348.58 1231.27C-351.596 1232.44 -355.265 1232.78 -358.467 1233.59C-366.5 1234.97 -374.623 1237.1 -382.886 1238.71C-365.18 1182.89 -345.614 1127.53 -324.325 1073.05C-299.11 1012.73 -273.197 952.643 -248.774 891.91C-242.571 874.901 -236.787 857.753 -231.142 840.559C-220.188 837.816 -207.576 831.437 -201.173 829.364C-199.921 828.847 -200.525 828.803 -199.359 829.961C-194.97 834.969 -187.488 835.265 -181.624 837.662C-164.597 842.805 -148.628 850.698 -132.936 858.965C-43.6202 907.283 56.5674 932.848 158 933.419C232.478 932.702 304.766 907.563 379.64 912.707C447.334 911.924 515.394 920.866 582.924 913.987C614.689 910.044 621.058 888.287 589.695 876.872C480.687 830.588 378.393 767.153 263.729 735.27C218.379 723.586 171.48 719.446 124.726 716.748C86.5273 715.319 48.139 713.053 10.1541 718.51C-56.4907 725.989 -112.967 765.63 -172.748 792.72C-189.442 800.698 -206.136 808.676 -222.972 816.142C-210.811 779.098 -199.069 741.917 -185.093 705.471C-166.936 657.701 -145.567 611.453 -123.499 565.435C-119.451 566.768 -115.134 565.866 -111.799 563.247C-104.801 558.891 -97.6157 554.907 -90.4301 550.923C-80.6461 546.091 -71.0953 541.027 -61.405 536.009C-32.9155 549.111 -4.83904 563.47 23.9736 576.059C90.6334 606.226 151.031 627.669 225.33 617.133C277.301 611.946 328.497 598.758 381.1 600.13C505.781 604.796 632.578 638.351 727.016 530.664C735.66 519.88 747.756 512.247 756.542 501.974C757.049 500.902 756.765 499.879 756.947 498.855C762.291 499.066 767.024 497.372 767.925 490.388C768.208 480.103 756.08 479.825 748.59 477.668C718.452 470.53 689.551 459.151 660.974 447.26C588.089 417.211 515.542 379.064 434.746 380.179C404.031 379.511 373.088 380.007 342.581 384.829C295.032 392.093 250.32 411.444 203.62 421.776C157.113 433.875 107.562 428.861 62.0494 445.47C18.6705 461.233 -20.63 485.775 -61.4774 507.018C-64.8617 508.847 -68.2462 510.675 -71.6306 512.503C-75.7205 512.241 -79.8485 513.979 -81.5981 517.895C-90.4529 522.723 -99.2597 527.877 -107.788 533.123C-96.2232 509.205 -84.5193 485.332 -73.0946 461.368C-61.2072 436.936 -49.4136 412.319 -37.5261 387.887C-37.2469 387.979 -37.1991 388.305 -37.0595 388.351C-30.1283 390.324 -24.0192 384.436 -17.3805 383.06C-1.32686 377.505 15.1492 373.018 31.6293 369.462C103.253 352.469 177.579 348.449 248.021 326.575C291.729 311.695 334.152 289.421 370.135 260.379C386.649 242.583 399.481 221.87 415.996 204.075C442.205 170.884 480.138 152.863 515.504 131.827C556.42 104.72 593.956 69.0636 614.773 24.0279C620.758 10.5089 666.411 -96.5171 635.194 -94.7168C633.051 -96.1973 630.493 -96.8851 627.848 -95.8973C613.944 -87.4654 601.165 -76.339 586.561 -68.6023C538.582 -41.6529 491.912 -12.5681 443.464 13.4526C405.401 33.7544 363.303 44.6724 324.113 62.2798C282.602 80.3618 245.353 106.663 206.557 129.667C201.227 132.713 196.081 135.666 190.936 138.618C197.85 125.095 203.787 111.251 206.46 105.935C224.566 68.2161 232.434 26.8154 233.89 -14.8387C237.289 -46.8681 223.23 -76.1285 213.445 -105.685C204.734 -133.804 199.365 -162.68 190.329 -190.751C176.406 -232.204 157.008 -271.587 139.142 -311.396C127.982 -336.293 117.007 -361.285 108.491 -387.171C107.026 -393.075 101.573 -397.194 95.4905 -396.1C91.5919 -395.06 89.2763 -393.19 87.8919 -390.857C77.0352 -386.998 79.9892 -369.141 76.5914 -359.262C71.901 -336.022 66.0479 -313.011 59.6366 -290.183C17.7097 -135.614 -83.3359 3.50983 -88.3793 167.285C-87.8824 197.809 -80.0011 227.513 -76.4392 257.653C-73.5101 280.769 -71.2311 303.981 -68.7666 327.099C-68.3422 328.633 -68.2887 330.354 -68.2352 332.076C-71.1951 335.438 -70.8509 340.044 -71.0192 344.326C-71.0709 354.377 -71.308 364.523 -72.614 374.626C-74.5548 388.547 -77.7978 402.195 -81.3199 415.751C-82.1861 419.803 -84.2569 424.697 -85.0275 429.4C-120.791 500.648 -156.322 572.128 -188.734 644.944C-203.743 678.416 -216.241 712.716 -228.505 747.247L-228.83 747.295Z" fill="#C9D691"/>
<path d="M1218.31 1073.61C1207.61 1010.11 1191.33 947.686 1185.81 883.3C1183.02 860.974 1181.61 838.504 1178.03 816.048C1168.53 760.037 1144.73 707.337 1135.54 650.941C1118.68 524.323 1123.88 395.984 1116.36 268.538C1115.22 231.598 1116.67 194.461 1125.4 158.4C1145.46 90.9429 1180.19 28.0238 1218.43 -30.8905C1268.55 -107.592 1315.11 -186.813 1362.15 -265.519C1373.34 -285.912 1382.88 -307.262 1392.52 -328.409C1402.44 -346.769 1408.16 -376.599 1429.25 -384.209C1455.96 -388.525 1454.78 -355.642 1458.22 -337.259C1465.75 -291.54 1473.78 -245.802 1475.54 -199.415C1480.59 -123.145 1445.25 -52.4138 1427.95 20.6059C1404.68 86.8471 1430.14 155.084 1445.84 219.966C1462.05 294.587 1488.63 372.29 1471.78 448.997C1462.79 494.172 1441.38 535.492 1428.88 579.34C1414.01 645.908 1411.18 716.02 1381.9 778.655C1352.76 840.502 1309.71 895.758 1294.39 963.499C1284.35 1005.26 1276.17 1047.39 1270.16 1090.01C1267.88 1105.39 1266.29 1120.7 1264.01 1136.09C1263.08 1142.1 1261.84 1148.5 1257.13 1152.58C1278.12 1195.85 1299.52 1238.93 1323.73 1280.74C1390.39 1395.01 1465.35 1504.55 1525.22 1622.63C1526.02 1607.18 1527.11 1591.85 1525.82 1576.63C1517.8 1485.17 1512.66 1393.12 1494.58 1303.06C1478.85 1211.2 1452.86 1120.82 1441.7 1028.34C1435.04 952.805 1446.88 877.391 1455.43 802.742C1462.11 712.646 1498.99 630.271 1531.23 547.32C1547.65 504.616 1558.6 460.012 1569.05 415.39C1587.55 344.5 1605.68 273.298 1612.1 199.855C1617.46 176.755 1611.7 116.128 1641.19 111.523C1651.15 109.927 1659.38 117.389 1662.09 126.619C1687.46 187.116 1717.05 246.19 1733.39 309.808C1772.48 480.833 1825.59 647.94 1868.18 818.109C1880.11 865.487 1894.48 913.456 1894.44 962.847C1897.19 1055 1828.03 1124.51 1793.72 1204.51C1761.89 1271.7 1768.37 1349.52 1740.84 1418.17C1721.82 1471.78 1679.7 1510.81 1642.56 1551.71C1619.45 1577.99 1596.91 1604.98 1575.43 1632.71C1568.21 1642.55 1559.04 1651.81 1555.7 1663.78C1554.85 1667.82 1552.36 1670.89 1549.29 1673.25C1573.47 1726.27 1597.65 1779.28 1620.82 1832.75C1664.46 1945.53 1712.59 2057.5 1736.47 2176.55C1742.61 2201.98 1755.75 2235.92 1727.66 2252.78C1712.78 2261.22 1692.33 2257.35 1682.37 2243.38C1674.83 2233.66 1675.51 2221.19 1671.49 2210.13C1660.55 2168.14 1655.1 2124.89 1643.35 2083.27C1614.06 1993.66 1580.26 1905.36 1543.04 1818.61C1538.97 1818.75 1535.02 1818.6 1531.25 1818.85C1507.99 1818.44 1484.28 1817.02 1461.34 1813.55C1386.74 1837.13 1322.25 1883.61 1248.84 1909.82C1123.94 1961.29 983.769 1964.96 853.061 1934.19C766.501 1914.06 680.619 1884.13 609.05 1829.97C531.899 1774.21 447.694 1729.17 362.919 1686.1C299.415 1656.26 231.81 1635.08 172.829 1595.89C155.728 1584.91 138.114 1574.4 122.281 1561.39C118.825 1558.57 115.903 1554.79 114.391 1550.37C111.863 1541.54 116.334 1531 125.166 1527.98C189.329 1520.55 254.115 1512.36 318.997 1511.91C390.728 1511.03 462.132 1518.57 533.877 1519.88C621.982 1518.15 708.648 1530.45 794.479 1548.96C862.867 1562.73 932.404 1569.9 1000.44 1585.05C1092.17 1604.78 1181.25 1636.42 1262.06 1684.69C1323.5 1719.12 1385.7 1762.2 1455.65 1774.05C1462.46 1771.93 1470.32 1773.73 1475.36 1778.98C1480.06 1780.26 1485.61 1780.17 1490.54 1780.86C1502.79 1781.64 1515.29 1783.51 1527.92 1784.6C1492.45 1703.87 1454.26 1624.13 1413.63 1545.98C1366.18 1459.73 1317.73 1373.93 1271.4 1286.93C1259.38 1262.46 1247.97 1237.72 1236.76 1212.88C1219.91 1210.54 1200 1203.02 1190.08 1200.95C1188.12 1200.38 1189.02 1200.22 1187.46 1202.14C1181.69 1210.34 1170.54 1211.99 1162.14 1216.53C1137.47 1226.97 1114.83 1241.37 1092.66 1256.27C966.687 1343.02 820.778 1397.44 668.99 1414.65C557.355 1425.58 445.077 1399.58 333.791 1419.36C232.303 1429.09 131.831 1453.45 29.6098 1454.03C-18.5869 1453.25 -31.6191 1421.7 13.5091 1399.55C169.297 1312.68 312.277 1201.21 478.848 1134.99C544.876 1110.18 614.435 1096.43 684.008 1084.85C740.975 1076.55 798.092 1066.97 855.845 1069.02C956.837 1069.48 1047.77 1119.74 1141.63 1150.66C1167.91 1159.92 1194.19 1169.17 1220.6 1177.64C1196.44 1124.13 1172.88 1070.35 1146.1 1018.03C1111.24 949.429 1071.82 883.624 1031.38 818.276C1025.53 820.925 1018.93 820.271 1013.51 816.886C1002.33 811.492 990.934 806.685 979.535 801.877C964.108 796.218 948.994 790.175 933.678 784.223C893.124 808.433 853.39 834.459 812.27 857.952C717.303 913.866 630.311 955.708 517.368 951.908C438.715 952.517 359.939 941.021 281.395 951.553C95.4532 978.634 -89.0169 1049.31 -247.72 903.29C-262.397 888.536 -281.734 879.055 -296.54 865.09C-297.471 863.566 -297.212 861.989 -297.648 860.484C-305.616 861.662 -312.974 859.888 -315.445 849.576C-317.521 834.221 -299.406 831.851 -288.538 827.414C-244.558 811.868 -203.111 790.172 -162.231 767.761C-57.9225 711.021 44.5775 642.209 165.736 630.856C211.62 624.906 258.032 620.662 304.486 622.965C376.85 626.178 446.907 647.947 518.493 655.891C590.074 666.512 663.464 651.019 734.28 668.553C801.766 685.164 864.554 715.577 929.13 740.802C934.491 742.995 939.852 745.187 945.214 747.379C951.295 746.327 957.756 748.264 961.004 753.846C975.039 759.648 989.054 765.946 1002.67 772.427C981.508 738.477 960.148 704.617 939.192 670.576C917.468 635.909 895.854 600.949 874.13 566.282C873.727 566.465 873.707 566.96 873.506 567.051C863.444 571.123 853.351 563.291 843.189 562.301C818.259 556.57 792.868 552.507 767.62 549.839C657.645 535.938 545.708 541.897 436.718 520.497C368.882 505.261 301.782 478.747 243.238 441.06C215.651 417.076 193.11 388.13 165.523 364.145C120.948 318.67 61.2537 297.8 4.9202 272.003C-60.7001 238.008 -122.632 190.668 -161.036 126.589C-172.169 107.311 -257.72 -45.5861 -210.689 -47.9216C-207.717 -50.4839 -203.997 -51.926 -199.879 -50.8731C-177.704 -40.4887 -156.784 -25.8881 -133.673 -16.6574C-57.5023 15.9625 17.0504 51.9909 93.7735 83.1445C154.029 107.409 218.818 116.972 280.327 137.02C345.388 157.405 405.387 190.784 467.173 218.976C475.644 222.678 483.823 226.269 492.001 229.86C479.476 210.727 468.363 190.953 463.506 183.425C430.337 129.865 411.905 69.1416 403.035 7.00541C392.799 -40.4057 409.15 -86.4846 419.055 -132.318C427.582 -175.826 430.982 -219.929 440.003 -263.417C454.192 -327.73 476.911 -389.827 497.268 -452.314C509.98 -491.393 522.399 -530.583 530.992 -570.716C532.237 -579.792 539.74 -586.839 549.023 -586.181C555.028 -585.253 558.796 -582.825 561.243 -579.556C578.119 -575.527 576.565 -548.312 583.239 -534.067C593.995 -500.026 606.456 -466.513 619.723 -433.366C707.331 -208.679 880.979 -16.6477 914.839 227.768C918.998 273.554 911.968 319.301 911.476 365.005C910.804 400.09 911.12 435.213 911.143 470.225C910.754 472.591 910.95 475.177 911.147 477.764C916.119 482.321 916.343 489.273 917.283 495.657C918.975 510.699 920.96 525.852 924.538 540.77C929.681 561.303 936.729 581.215 944.18 600.945C946.128 606.873 950.015 613.867 951.924 620.785C1016.92 721.704 1081.6 823.008 1141.83 926.816C1169.68 974.515 1193.91 1023.86 1217.82 1073.59L1218.31 1073.61Z" fill="#4E7637"/>
<path d="M292.7 502.728C286.245 504.149 279.099 507.839 274.96 513.073C269.031 512.567 263.056 512.175 257.135 511.61C260.49 507.271 263.549 502.652 266.152 497.822C266.995 496.239 267.93 492.58 269.314 491.492C271.38 489.827 276.818 489.694 279.308 489.174C294.715 485.994 307.896 473.932 300.492 457.444C294.187 443.883 278.379 444.348 266.978 450.927C261.629 454.308 256.954 459.472 255.579 465.794C254.045 474.939 258.717 485.019 266.616 489.898C266.575 489.983 266.504 490.064 266.462 490.15C264.59 493.11 263.055 496.266 261.153 499.222C257.266 505.306 252.733 511.002 247.774 516.249C242.364 521.709 236.206 526.405 231.14 532.243C227.916 535.812 224.851 539.554 221.785 543.295C219.546 546.056 217.198 548.712 215.151 551.619C215.114 551.675 215.072 551.76 215.035 551.816C215.438 546.666 215.812 541.513 216.092 536.378C217.473 518.018 219.572 499.722 220.978 481.396C221.281 477.474 220.955 472.803 223.492 469.628C226.246 466.178 230.83 463.09 234.129 460.105C252.529 444.736 256.1 419.374 259.966 397.076C266.73 396.3 273.736 393.681 277.125 387.472C280.077 382.052 280.199 375.354 278.48 369.533C275.87 362.657 270.075 356.058 262.61 354.564C254.558 353.386 246.261 357.772 241.274 363.923C237.541 368.605 236.307 375.006 238.131 380.72C240.427 388.371 247.158 395.455 255.552 395.408C255.631 395.963 255.937 396.396 256.375 396.756C256.16 397.696 255.916 398.632 255.702 399.571C252.385 413.079 249.504 426.947 243.084 439.413C241.317 442.72 239.606 446.064 237.283 448.995C233.381 453.807 228.513 457.674 224.393 462.305C223.526 463.371 222.489 464.354 221.588 465.446C221.672 463.884 221.756 462.322 221.899 460.768C222.618 452.757 224.583 444.939 225.834 437.027C228.475 420.829 226.643 412.634 221.999 397.264C219.281 387.289 216.47 377.332 213.939 367.321C217.604 367.076 221.195 365.793 224.445 364.103C230.994 360.577 235.287 353.246 236.006 345.93C236.377 339.869 233.453 333.769 228.668 330.086C221.279 324.549 209.073 327.574 201.965 332.357C189 341.151 191.886 362.309 208.073 364.948C208.085 366.008 208.91 366.873 210.022 367.17C210.676 374.878 212.345 382.689 213.923 390.276C215.48 398.253 217.913 406.013 219.72 413.933C220.078 415.825 220.308 417.761 220.453 419.655C219.913 418.465 219.372 417.275 218.735 416.133C215.395 410.432 211.238 405.198 206.521 400.525C199.953 394.279 193.783 387.299 186.573 381.786C186.745 381.173 186.856 380.552 186.756 379.934C188.301 376.931 188.374 373.372 187.369 370.185C184.877 361.721 177.107 354.017 167.896 354.29C161.234 354.746 156.159 360.19 152.683 365.45C145.132 376.376 151.874 388.452 162.878 393.435C170.97 396.615 180.873 392.682 185.041 385.154C185.697 385.693 186.361 386.174 186.945 386.795C191.638 391.645 196.129 396.651 200.788 401.527C204.556 405.349 208.155 409.3 211.272 413.701C215.603 419.23 217.98 425.803 220.205 432.386C219.541 439.286 218.245 446.163 217.355 452.943C216.382 460.588 216.246 468.313 216.233 476.025C216.114 483.389 215.277 490.689 214.737 498.029C214.311 503.811 213.647 509.561 212.894 515.3C210.872 510.86 208.978 506.377 206.34 502.25C201.933 494.533 194.456 489.438 188.716 482.878C184.067 477.458 180.041 471.455 177.467 464.765C176.968 463.49 176.443 462.181 175.945 460.906C177.07 460.872 178.099 460.644 178.801 459.678C182.051 457.987 185.652 456.161 187.939 453.043C192.483 447.258 193.668 439.156 191.837 432.111C189.328 423.312 180.629 417.15 171.742 416.104C162.127 414.842 152.719 420.079 148.214 428.562C142.519 438.491 149.527 450.391 157.746 456.521C161.57 459.684 166.642 460.259 171.466 460.651C171.856 462.063 172.276 463.479 172.729 464.869C176.853 478.205 185.751 487.933 195.907 497.069C201.822 502.988 205.478 510.666 209.101 518.129C209.932 519.871 210.83 521.562 211.81 523.324C210.268 533.919 208.551 544.461 207.396 555.108C206.865 559.151 206.334 563.195 205.803 567.239C197.818 557.48 189.182 548.301 179.953 539.709C175.924 536.035 171.316 533.071 166.814 529.999C166.284 529.658 165.809 529.353 165.383 528.904C170.062 526.252 170.946 519.744 172.664 515.191C174.889 509.312 175.792 503.593 172.882 497.616C168.607 488.888 157.513 485.284 148.524 488.248C141.98 490.353 136.426 495.522 133.662 501.813C128.987 513.207 135.256 527.036 147.016 530.879C151.731 532.556 156.993 532.612 161.63 530.74C162.448 531.423 163.301 532.079 164.031 532.749C168.234 536.023 172.58 539.134 176.49 542.793C184.262 550.256 191.441 558.306 198.696 566.246C200.85 568.525 202.82 571.052 205.044 573.249C201.58 599.411 198.052 625.595 196.05 651.918C195.121 663.835 195.272 675.832 196.653 687.688C196.958 690.208 197.293 692.733 197.844 695.225C198.062 696.796 198.948 698.122 200.479 698.686C202.508 699.376 204.87 697.992 205.206 695.889C205.262 693.386 204.529 690.9 204.466 688.381C203.457 677.148 203.276 665.843 203.999 654.565C205.138 637.353 207.67 620.143 209.706 603.019C210.711 594.44 211.716 585.861 212.636 577.24C213.303 571.006 212.896 564.42 215.426 558.521C217.56 553.569 221.843 549.775 225.308 545.754C229.835 540.571 234.142 535.208 239.046 530.377C242.287 527.143 245.879 524.227 249.146 521.026C251.203 518.967 253.178 516.837 255.046 514.602C255.135 514.614 255.221 514.655 255.34 514.671C262.06 515.614 268.767 516.192 275.483 517.164C273.905 516.957 275.122 528.217 275.577 529.366C277.079 533.374 280.877 536.05 284.654 537.725C293.898 542.508 306.505 541.048 311.729 531.238C314.173 526.689 316.417 521.358 315.436 516.148C313.592 505.743 302.419 500.889 292.74 502.885L292.7 502.728Z" fill="#29514B"/>
<path fill-rule="evenodd" clip-rule="evenodd" d="M568.881 368.112L570.523 366.526C571.843 365.252 573.031 362.537 573.877 358.774C574.711 355.062 575.177 350.501 575.177 345.719V294.163C575.177 289.38 574.711 284.819 573.877 281.108C573.031 277.345 571.843 274.63 570.523 273.356L568.881 271.77H583.966C586.549 271.77 588.457 271.37 590.508 270.941L590.682 270.904C592.811 270.459 595.09 270 598.301 270C607.684 270 616.343 272.61 622.673 278.006C629.024 283.419 632.94 291.562 632.94 302.422C632.94 314.054 627.482 323.352 619.382 328.471C620.155 329.964 620.769 331.543 621.373 333.26L621.376 333.27L626.658 348.827C630.032 357.698 634.297 363.658 637.875 366.464L639.975 368.112H621.73L610.239 334.218L610.237 334.213C609.372 331.605 607.792 327.811 605.52 324.688C603.231 321.541 600.385 319.27 597.008 319.27C595.511 319.27 594.103 319.617 592.824 320.41C591.542 321.205 590.337 322.478 589.297 324.406C587.202 328.289 585.824 334.742 585.824 344.893V345.719C585.824 350.501 586.29 355.062 587.124 358.774C587.969 362.537 589.158 365.252 590.478 366.526L592.12 368.112H568.881ZM585.824 321.878C588.044 317.78 592.209 314.477 597.948 314.477C605.004 314.477 611.114 317.135 615.69 322.649C619.585 317.395 621.497 308.994 620.185 299.003C618.858 289.039 615.156 282.865 610.796 279.177C606.424 275.479 601.301 274.203 597.008 274.203C594.315 274.203 592.33 274.863 590.844 275.931C589.353 277.003 588.289 278.542 587.535 280.424C586.01 284.231 585.824 289.248 585.824 294.045V321.878Z" fill="#C9D691"/>
<path d="M708.38 359.625C707.822 356.16 706.467 351.807 704.764 346.853L704.762 346.845L685.269 292.964C684.399 290.869 683.464 288.838 682.512 286.921L660.088 349.553C658.74 353.85 657.709 357.607 657.339 360.595C656.959 363.659 657.324 365.562 658.325 366.525L659.979 368.112H642.957L644.6 366.526C647.551 363.677 652.998 356.601 656.948 346.225L656.951 346.216L679.827 282.111C677.342 277.972 674.905 274.889 673.279 273.365L671.577 271.77H689.118L716.356 346.921C720.196 356.38 725.532 363.805 728.354 366.526L730 368.112H705.817L707.461 366.526C707.71 366.286 707.922 365.993 708.096 365.643C708.227 365.38 708.336 365.084 708.422 364.752C708.456 364.621 708.486 364.484 708.513 364.342C708.534 364.228 708.553 364.11 708.57 363.988C708.73 362.816 708.659 361.357 708.38 359.625Z" fill="#C9D691"/>
<path fill-rule="evenodd" clip-rule="evenodd" d="M483.244 319.882C483.244 336.68 487.784 349.212 494.968 357.559C502.157 365.913 511.933 370 522.231 370C532.528 370 542.361 365.913 549.609 357.562C556.852 349.215 561.452 336.683 561.452 319.882C561.452 303.197 556.852 290.724 549.608 282.408C542.36 274.086 532.527 270 522.231 270C511.933 270 502.158 274.087 494.969 282.41C487.785 290.728 483.244 303.2 483.244 319.882ZM507.314 355.779C501.476 348.971 496.759 337.68 495.3 319.807C493.839 301.973 496.545 290.774 501.064 284.061C505.551 277.395 511.908 275.029 518.119 275.029C524.395 275.029 531.449 277.406 537.313 284.151C543.192 290.914 547.939 302.145 549.397 319.957C550.858 337.849 548.122 349.106 543.56 355.864C539.029 362.575 532.612 364.971 526.343 364.971C520.131 364.971 513.136 362.568 507.314 355.779Z" fill="#C9D691"/>
<path d="M417.316 368.112L418.959 366.526C420.279 365.252 421.467 362.537 422.313 358.774C423.147 355.062 423.612 350.501 423.612 345.719V294.163C423.612 289.38 423.147 284.819 422.313 281.108C421.467 277.345 420.279 274.63 418.959 273.356L417.316 271.77H440.556L438.913 273.356C437.593 274.63 436.405 277.345 435.559 281.108C434.725 284.819 434.26 289.38 434.26 294.163V345.719C434.26 350.6 434.329 355.203 435.542 358.591C436.139 360.258 436.993 361.567 438.201 362.464C439.403 363.359 441.043 363.909 443.329 363.909H456.606C464.217 363.909 469.527 362.203 473.246 360.159C476.968 358.113 479.145 355.702 480.475 354.192L482.046 355.053L479.224 365.089L478.321 368.112H417.316Z" fill="#C9D691"/>
<path d="M367.944 294.163V315.648C370.785 312.585 375.029 311.272 380.522 311.174H381.83C386.551 311.174 391.072 310.393 394.761 309.239C398.486 308.075 401.246 306.569 402.553 305.204L404.132 303.554V322.996L402.553 321.346C401.246 319.981 398.486 318.475 394.761 317.311C391.072 316.158 386.551 315.377 381.83 315.377H381.361C376.625 315.377 373.35 316.282 371.232 318.423C369.108 320.568 367.944 324.156 367.944 330.028V345.719C367.944 350.501 368.409 355.062 369.243 358.774C370.089 362.537 371.277 365.252 372.597 366.526L374.24 368.112H351L352.643 366.526C353.963 365.252 355.151 362.537 355.997 358.774C356.831 355.062 357.296 350.501 357.296 345.719V294.163C357.296 289.38 356.831 284.819 355.997 281.108C355.151 277.345 353.963 274.63 352.643 273.356L351 271.77H412.24V284.182L410.66 282.532C409.231 281.04 407.543 279.431 404.509 278.174C401.454 276.907 396.971 275.973 389.938 275.973H376.896C374.641 275.973 373.025 276.522 371.839 277.414C370.647 278.311 369.803 279.619 369.212 281.288C368.013 284.678 367.944 289.283 367.944 294.163Z" fill="#C9D691"/>
</g>
<defs>
<clipPath id="clip0_163_1217">
<rect width="1080" height="600" fill="white"/>
</clipPath>
</defs>
</svg>
