<svg width="1440" height="600" viewBox="0 0 1440 600" fill="none" xmlns="http://www.w3.org/2000/svg">
<g style="mix-blend-mode:darken" clip-path="url(#clip0_14_3216)">
<rect width="1440" height="600" fill="white"/>
<rect width="1440" height="875" fill="#90A74D"/>
<path d="M2614.79 251.697C2682.33 212.136 2742.82 160.217 2792.14 99.2772C2794.62 96.1198 2797.44 91.9411 2795.65 88.3846C2793.86 84.828 2786.36 87.3362 2788.66 90.635C2836.84 64.4402 2854.97 5.64132 2868.49 -47.4395C2877.48 -82.317 2886.29 -117.109 2895.27 -151.986C2897.58 -161.003 2899.72 -170.784 2895.64 -178.913C2891.56 -187.042 2878.01 -190.189 2873.23 -182.261C2885.13 -235.162 2891.91 -289.307 2893.33 -343.504C2883.1 -336.648 2873.03 -329.877 2862.8 -323.021C2865.46 -349.622 2866.6 -376.298 2866.2 -403.05C2866.05 -420.801 2864.1 -440.409 2851.5 -452.734C2838.73 -464.973 2811.7 -461.753 2808.96 -444.24C2803.46 -482.428 2797.78 -520.53 2792.28 -558.718C2791.27 -566.271 2788.8 -575.429 2781.39 -577.423C2776.7 -578.669 2771.59 -576.515 2766.98 -577.592C2758.89 -579.666 2756.6 -589.76 2755.58 -598.162C2753.47 -620.233 2751.28 -642.473 2749 -664.457C2747.48 -678.972 2745.79 -694.25 2736.34 -705.405C2726.89 -716.56 2707.12 -719.754 2698.41 -708.15C2681.04 -724.014 2683.96 -751.38 2680.15 -774.715C2676.34 -798.049 2651.9 -823.298 2632.54 -809.507C2620.65 -853.177 2602.87 -895.369 2580.15 -934.642C2573.92 -926.196 2567.69 -917.75 2561.55 -909.559C2539.34 -954.612 2517.14 -999.664 2495.11 -1044.8C2493.09 -982.872 2438.83 -933.029 2431.95 -871.409C2429.97 -854.495 2427.56 -831.634 2410.68 -829.069C2406.76 -828.366 2402.76 -829.106 2398.83 -828.403C2387.15 -826.125 2382.11 -812.335 2379.29 -800.937C2371.16 -767.763 2362.94 -734.759 2354.98 -701.671C2351.64 -687.892 2344.64 -671.202 2330.57 -670.693C2321.11 -670.381 2310.98 -678.219 2302.87 -673.075C2298.44 -670.415 2296.9 -664.97 2295.62 -659.866C2282.27 -606.871 2273.43 -552.545 2269.37 -498.077C2258.13 -501.322 2246.71 -504.48 2235.46 -507.725C2226.88 -455.863 2229.05 -402.197 2241.61 -351.226C2232.07 -355.756 2222.53 -360.285 2213.16 -364.9C2223.06 -299.22 2241.75 -234.781 2268.88 -174.385C2258.06 -176.358 2247.07 -178.246 2236.33 -180.05C2261.58 -116.585 2293.49 -55.6232 2331.28 1.31138C2322.16 -5.3438 2314.9 12.5363 2317.79 23.3906C2345.89 133.808 2453.56 201.789 2552.3 258.782C2563.33 394.358 2562.77 531.956 2559.91 667.955C2504.93 582.331 2566.76 456.935 2511.79 371.31C2509.99 377.521 2508.11 383.563 2506.14 389.86C2490.93 348.503 2471.27 308.532 2447.87 271.301C2439.77 277.295 2435.5 287.937 2437.45 297.778L2329.31 185.039C2330.49 196.753 2331.5 208.553 2332.77 220.436C2289.83 193.684 2246.98 166.677 2204.05 139.926C2203.96 148.25 2203.61 156.491 2203.51 164.815C2170.98 137.916 2130.51 120.747 2088.32 115.904C2094.19 125.891 2099.98 136.134 2105.85 146.121C2063.34 118.517 2011.79 104.813 1960.98 107.921C1963.28 118.014 1965.65 128.277 1968.11 138.285C1949.55 122.598 1928.43 106.078 1904.05 106.904C1879.67 107.73 1856.54 137.001 1871.01 156.449C1843.24 139.035 1812.65 125.799 1780.87 117.836C1781.28 128.875 1781.87 139.828 1782.28 150.867C1765.93 142.132 1747.52 137.401 1728.94 137.003C1737.96 149.859 1714.94 161.039 1699.25 160.454C1677.52 159.735 1655.7 159.271 1633.96 158.552C1665.97 198.45 1701.65 235.437 1740.32 269.009C1733.5 267.776 1726.25 269.094 1720.11 272.613C1738.07 304.526 1761.31 333.349 1788.64 357.562C1776.63 354.067 1763.67 354.229 1751.74 358.123C1771.39 392.574 1798.13 422.82 1829.98 446.665C1817.88 448.522 1806.03 450.462 1793.92 452.318C1821.33 490.289 1856.25 522.779 1896.11 547.681C1886.14 549.1 1876.25 550.264 1866.27 551.682C1899.81 597.176 1950.75 629.231 2006.32 640.278C1994.89 644.764 1983.38 649.504 1971.95 653.989C2013.27 675.4 2058.69 688.377 2105.23 692.09C2097.38 699.866 2089.7 707.556 2081.93 715.502C2139.53 742.505 2205.66 750.771 2268.41 738.673C2257.41 742.307 2254.41 758.038 2260.8 767.767C2267.01 777.582 2278.85 782.013 2290.19 784.153C2324.02 790.66 2360.51 781.183 2387.3 759.193L2376.71 781.085C2411.82 789.283 2445.08 764.452 2475.45 744.905C2505.81 725.357 2549.13 710.743 2575.18 735.387C2613.01 928.133 2635.83 1121.65 2661.9 1316.5C2629.83 1251.38 2597.58 1186.34 2565.51 1121.22C2560.99 1127.53 2556.38 1133.68 2552.03 1139.9C2529.56 1103.26 2503.09 1069.28 2473.45 1038.37C2471.74 1047.72 2469.94 1056.91 2468.23 1066.26C2440.21 1040.69 2407.75 1019.91 2372.74 1005.08C2375.28 1013.56 2377.83 1022.04 2380.64 1030.6C2349.63 1012.7 2309.91 1010.22 2276.91 1024.52C2287.22 1025.05 2297.19 1030.85 2302.72 1039.73C2265.73 1038 2228.39 1045.36 2194.7 1060.85C2204.5 1065.04 2214.39 1068.97 2224.19 1073.16C2189.14 1081.27 2155.72 1095.99 2125.86 1116.13C2134.38 1121.18 2142.73 1126.31 2151.33 1131.52C2112.88 1139.23 2075.54 1153.38 2041.42 1172.7C2048.66 1177.75 2055.9 1182.8 2063.14 1187.86C2025.97 1193.85 1989.74 1205.96 1956.31 1223.66C1958.94 1232.73 1964.64 1240.68 1972.14 1246.24C1941.71 1245.24 1910.85 1251.88 1883.39 1265.29C1919.67 1293.7 1962.35 1314 2007.35 1324.43L1978.86 1339.63C2004.5 1356.63 2032.53 1369.89 2062.1 1378.54C2054.26 1384.19 2046.58 1389.76 2038.82 1395.58C2071.7 1415.94 2108.68 1429.99 2146.94 1436.38L2120.41 1456.76C2173.07 1476.91 2232.14 1480.89 2287.3 1467.73C2274.59 1477.32 2285.9 1499.84 2301.58 1502.13C2317.27 1504.41 2332.02 1494.64 2345.07 1485.3C2358.12 1475.97 2372.96 1466.37 2388.64 1469.08C2382.67 1479.3 2381.97 1492.39 2386.91 1503.06C2431.67 1492.6 2473.63 1470.18 2507.58 1439.06C2507.66 1449 2507.9 1458.85 2508.06 1468.95C2562.98 1442.55 2607.69 1394.97 2630.17 1338.44C2634.1 1328.39 2647.64 1335.36 2655.56 1342.62C2663.48 1349.87 2665.6 1361.33 2667.47 1371.85C2683.73 1470.62 2699.49 1569.64 2710.99 1669.12C2718.59 1735.74 2735.07 1793.66 2735 1862.88C2734.85 1933.63 2730 2004.41 2725.5 2075.02C2717.19 2201.88 2714.68 2329.21 2717.8 2456.26C2718.12 2470.52 2719.39 2486.65 2730.63 2495.42C2750.39 2510.93 2778.88 2488.93 2788.88 2465.85C2802.63 2433.66 2802.32 2397.74 2802.02 2363.09C2800.59 2251.32 2813.49 2143.8 2804.73 2032.76C2800.69 1982.16 2750.14 1814.72 2833 1803.52C2861.64 1799.69 2889.67 1816.76 2907.38 1839.25C2925.17 1861.91 2934.94 1889.45 2945.91 1915.97C2957.05 1942.4 2970.49 1969.16 2993.24 1986.78C2994.7 1974.37 2995.99 1962.05 2997.45 1949.64C3020.42 1994.51 3054.13 2033.98 3094.76 2063.8C3091.97 2045.47 3088.92 2027.06 3086.12 2008.73C3109.01 2047.92 3148.19 2077.41 3192.34 2088.69C3195.08 2075 3197.99 2061.23 3200.73 2047.53C3232.75 2074.27 3266.82 2098.27 3302.69 2119.46C3309.69 2103.62 3313.89 2086.44 3314.76 2069.02C3351.98 2091.22 3387.59 2115.72 3421.4 2142.61C3428.57 2134.33 3432.67 2123.35 3432.6 2112.56C3467.26 2135.63 3497.75 2165.26 3521.5 2199.34C3527.86 2144.35 3520.42 2087.83 3500.35 2036.39C3515.94 2039.78 3531.45 2043 3547.22 2046.3C3528.42 2003.78 3501.19 1964.87 3467.72 1932.71C3482.56 1927.36 3497.48 1922.17 3512.32 1916.82C3488.12 1900.15 3464.02 1883.64 3439.83 1866.97C3429.61 1859.81 3418.53 1851.81 3415.99 1839.51C3413.53 1827.38 3426.24 1812.69 3437.32 1818.57C3403.42 1789.39 3359.54 1771.82 3314.62 1769.62C3322.9 1757.6 3331.18 1745.57 3339.46 1733.54C3305.37 1730.78 3271.11 1731.07 3237.09 1734.84C3243.84 1721.04 3254.25 1709.43 3265.17 1698.83C3236.63 1688.81 3157.89 1664.82 3133.65 1698.68C3143.29 1685.12 3152.94 1671.56 3162.59 1658C3116.91 1647.91 3044.5 1688.43 3005.78 1710.07C3011.34 1695.6 3016.89 1681.12 3022.28 1666.74C2972.65 1682.41 2947.05 1718.66 2907.04 1747.1C2871.13 1772.63 2823.98 1786.84 2780.59 1790.67C2774.45 1791.21 2755.81 1678.36 2754.12 1670.3C2733.42 1566.55 2707.35 1463.17 2702.17 1357.54C2700.83 1332.75 2706.8 1328.04 2726.25 1312.3C2744.51 1297.58 2771.27 1304.47 2793.51 1312.15C2875.99 1340.61 2958.47 1369.08 3040.87 1397.38C3027.07 1383.53 3018.14 1364.9 3016.11 1345.55C3063.29 1389.69 3129.07 1413.41 3193.86 1409.63C3176.74 1396.82 3166.44 1375.48 3166.98 1353.99C3221.5 1386.36 3288.99 1396.48 3350.98 1381.59C3333.69 1367.17 3320.41 1347.97 3313.36 1326.69C3374.11 1345.52 3441.28 1343.51 3501.14 1321.4C3488.71 1308.57 3476.19 1295.56 3463.67 1282.56C3501.44 1278.59 3538.95 1271.57 3575.52 1261.84C3594.96 1256.71 3618.93 1240.18 3609.57 1222.82C3603.45 1211.48 3584.36 1204.97 3588.63 1192.62C3590.52 1187.01 3596.91 1184.42 3602.45 1182.69C3623.77 1176.62 3647.38 1175.54 3665.72 1163.11C3684.23 1150.6 3692.01 1119.3 3673.1 1107.61C3680.87 1094.56 3701.75 1096.14 3711.4 1084.27C3715.32 1079.32 3716.69 1073.12 3718.57 1067.07C3731.57 1028.27 3772.08 1006.36 3809.09 988.56C3771.18 971.8 3730.01 962.195 3688.42 960.661C3701.99 948.094 3715.72 935.441 3729.29 922.874L3623.69 908.814C3618.66 908.165 3612.7 906.927 3610.49 902.099C3608.95 899.05 3609.72 895.478 3609.98 892.164C3610.51 874.07 3592.2 860.166 3574.13 858.66C3556.06 857.155 3538.58 864.904 3522.12 872.563C3523.6 848.687 3497.1 830.84 3472.98 832.174C3448.86 833.508 3427.88 847.903 3408.17 861.866C3404.35 850.847 3405.3 838.27 3411.02 827.959C3356.29 837.715 3302.4 852.988 3250.56 873.174C3253.72 859.905 3256.8 846.892 3259.97 833.623C3224.33 850.739 3191.15 873.191 3162.05 899.95C3161.98 887.041 3161.74 874.217 3161.67 861.307C3127.72 884.784 3093.86 908.429 3059.91 931.905L3061.22 898.773C3008.51 929.156 2963.21 972.575 2930.68 1023.99C2930.52 1014.73 2930.36 1005.47 2930.37 996.129C2895.55 1033.63 2866.28 1076.18 2843.56 1122.02C2846.13 1110.53 2848.69 1099.05 2851.26 1087.57C2809.79 1136.06 2815.93 1215.95 2766.63 1256.51C2745.9 1273.53 2718.1 1280.75 2699.25 1299.8C2669.51 1116.78 2639.68 933.579 2609.95 750.552C2606.81 731.121 2627.62 722.757 2647.39 723.402C2667.17 724.048 2683.78 737.113 2700.39 748.055C2741.27 774.989 2789.08 791.859 2838.08 796.236C2828.72 784.826 2823.36 770.334 2823.04 755.642C2875.17 784.122 2932.95 802.121 2992.09 808.391C2976.85 794.214 2966.64 774.74 2963.42 754.29C3024.77 778.978 3092.27 788.679 3158.33 782.337C3148.03 768.215 3137.65 754.348 3127.35 740.225C3182.15 747.625 3237.98 748.989 3293.13 744.326C3281.13 730.639 3269.29 716.865 3257.29 703.178C3325.99 701.661 3394.62 684.687 3456.02 653.741L3415.65 624.851C3464.5 614.875 3510.98 593.362 3549.96 562.041C3536.77 543.86 3498.07 541.714 3503.8 519.936C3506.28 510.408 3517.2 506.181 3526.32 502.643C3563.16 488.323 3595.49 462.479 3617.51 429.731C3602.18 417.083 3591.29 399.227 3586.88 379.803C3613.57 370.81 3646.66 347.763 3634.16 322.867C3631.18 316.939 3625.73 311.621 3626.67 304.991C3627.44 299.296 3632.82 295.526 3637.6 292.27C3669.5 270.675 3696.03 241.382 3714.39 207.723C3670.08 198.646 3623.88 199.008 3579.63 208.787C3587.91 198.885 3592.52 185.946 3592.03 173.039C3566.62 177.778 3540.96 182.434 3515.55 187.173C3509.5 188.314 3502.42 189.121 3498.08 184.73C3490.93 177.723 3498.1 165.195 3494.36 156.044C3489.6 144.012 3472.12 146.24 3459.84 150.306C3438.87 157.482 3418.06 164.571 3397.09 171.747C3398.46 161.291 3399.92 150.581 3401.3 140.126C3361.74 146.054 3323.62 161.656 3291.13 185.039C3293.52 171.944 3296.01 158.594 3298.41 145.5C3259.53 153.632 3222.86 171.689 3193 197.773C3192.59 185.46 3195.07 172.96 3200.63 161.885C3168.4 167.515 3138.21 184.003 3116.19 208.257C3116.8 197.976 3117.41 187.696 3118.1 177.584C3075.64 191.769 3036.4 216.211 3004.67 247.912C3009.1 246.102 3007.15 238.809 3002.72 237.222C2998.28 235.635 2993.42 237.873 2989.33 239.936C2949.85 260.472 2913 286.259 2880.15 316.184C2882.38 306.573 2878.55 295.979 2870.89 290.079C2850.06 317.978 2834.26 349.499 2824.34 382.938C2818.73 367.089 2815.68 350.375 2815.35 333.56C2792.12 379.65 2770.77 426.492 2751.29 474.088C2757.26 463.01 2738.52 452.506 2728.03 459.704C2717.71 466.815 2715.65 481.012 2714.62 493.418C2711.25 531.829 2708.06 570.155 2704.7 608.566C2701.05 594.063 2687.93 582.421 2673.02 580.812C2685.35 605.369 2683.11 636.639 2667.32 659.242C2651.53 681.844 2622.62 694.928 2595.17 691.781C2591.37 573.149 2587.74 454.431 2583.93 335.799C2582.61 296.567 2582.38 271.427 2616.4 251.517L2614.79 251.697Z" fill="#C9D691"/>
<path d="M1355.99 1338.54C1349.99 1341.86 1346.94 1340.8 1344.34 1333.69C1324.82 1281.08 1309.55 1227.21 1294.61 1173.2C1290.82 1159.36 1286.51 1145.57 1282.63 1131.73C1281.3 1126.77 1277.76 1124.35 1273.95 1121.87C1252.3 1107.83 1229.2 1096.96 1204.73 1087.73C1197.7 1094.16 1194.15 1103.9 1184.16 1107.76C1157.33 1118.18 1138.93 1103.87 1122.03 1086.12C1113.62 1077.2 1104.85 1074.23 1093.81 1077.94C1090.48 1079.02 1087.18 1081.06 1084.51 1083.39C1067.32 1098.28 1049.17 1096.98 1030.59 1086.47C1026 1083.91 1021.6 1080.79 1017.22 1077.85C1012.38 1074.6 1008.31 1074.44 1002.72 1077.54C985.072 1087.64 963.387 1084 947.79 1069.37C931.045 1053.72 917.61 1051.45 898.767 1064.67C879.603 1078.11 859.195 1079.7 837.662 1075.88C831.427 1074.82 827.154 1075.12 822.415 1079.71C807.35 1094.36 788.939 1099.16 768.897 1094.81C753.01 1091.41 739.877 1094.12 727.398 1104.95C716.333 1114.57 702.124 1117.67 687.886 1118.22C671.853 1118.88 664.55 1107.54 670.129 1092.02C674.256 1080.46 681.686 1072.22 693.226 1068.36C699.45 1066.25 704.031 1062.56 706.658 1056.8C714.95 1038.6 730.525 1031.56 748.483 1029.62C760.391 1028.28 770.04 1024.46 778.148 1015.35C791.359 1000.3 808.389 1000.84 825.146 1006.62C836.885 1010.67 844.522 1007.35 853.601 999.978C875.924 981.691 900.626 975.383 927.86 989.319C935.078 992.999 942.181 991.054 948.768 987.58C972.993 974.717 995.618 974.459 1016.99 994.518C1023.93 1001.05 1033.36 1001.4 1042.27 997.926C1066.94 988.273 1088.6 994.026 1106.5 1012.98C1113.92 1020.78 1121.13 1022.87 1131.23 1021.56C1168.85 1016.7 1190.65 1030.64 1203.97 1067.11C1206.57 1074.22 1211.87 1079.17 1217.7 1082.04C1235.56 1090.69 1253.96 1098.04 1274.15 1106.78C1268.12 1084.55 1259.84 1064.52 1257.61 1043.88C1253.19 1003.06 1221.19 991.862 1194.21 974.9C1189.47 977.11 1188.02 981.149 1185.64 984.414C1166.38 1010.81 1142.72 1011.1 1122.74 985.069C1111.05 969.91 1110.81 969.32 1093.89 977.395C1079.74 984.1 1067.13 980.762 1054.83 973.249C1050.67 970.722 1046.46 967.76 1043.3 964.151C1030.11 948.72 1015.96 942.385 995.237 950.359C980.12 956.116 962.555 943.909 956.334 928.398C951.573 916.687 941.112 915.575 931.091 916.087C917.384 916.751 903.679 918.207 890.262 920.688C872.471 924.103 857.542 919.265 844.45 906.995C839.934 902.834 835.418 898.673 831.053 894.319C823.764 886.946 816.372 884.783 805.872 888.698C785.043 896.508 766.645 889.153 751.715 873.566C736.985 858.22 721.642 851.226 699.042 853.244C670.223 855.875 642.083 847.679 620.068 825.754C615.124 820.848 610.692 818.968 603.873 821.146C590.576 825.464 578.113 822.639 567.528 813.523C555.132 802.849 541.097 796.765 525.118 794.072C503.423 790.349 493.7 778.933 494.854 760.828C496.096 741.215 511.662 726.421 532.151 726.315C543.856 726.229 555.875 726.637 566.233 732.959C575.017 738.314 582.519 736.852 591.108 732.8C612.865 722.506 629.858 725.79 645.038 745.138C659.41 763.431 676.49 769.789 698.398 764.677C713.674 761.105 727.683 765.43 736.117 778.401C746.225 794.003 759.316 795.524 774.02 790.695C799.443 782.367 819.021 791.792 835.853 810.513C851.309 827.715 853.098 828.307 874.366 819.037C896.787 809.286 914.169 812.966 929.5 832.121C938.513 843.352 950.309 844.843 961.29 840.61C990.607 829.376 1013.22 839.78 1033.72 860.467C1038.1 864.908 1042.17 866.652 1048.8 864.319C1076.95 854.186 1098.32 861.911 1114.03 887.543C1118.14 894.217 1122.76 897.044 1130.87 896.394C1164.17 893.787 1188.15 913.994 1193.07 948.596C1194.05 955.799 1196.64 960.441 1202.61 964.526C1216.42 973.984 1229.63 984.214 1243.91 994.765C1246.16 988.783 1242.47 984.265 1241.58 979.431C1234.79 941.957 1227.16 904.665 1221.64 867.046C1218.83 848.155 1213.59 832.973 1195.13 825.096C1181.2 819.176 1169.58 806.917 1152.53 810.072C1147.3 811.014 1142.54 812.344 1137.74 814.911C1117.99 825.419 1097.82 828.396 1078.06 815.027C1067.16 807.709 1056.74 806.152 1045.22 812.56C1036.95 817.105 1028.88 815.019 1020.87 811.251C1010.6 806.417 1000.39 801.4 989.969 796.847C982.904 793.766 975.432 793.198 969.211 798.393C945.598 818.236 923.674 810.926 902.009 794.423C897.77 791.2 893.683 787.784 889.445 784.561C884.068 780.409 877.58 777.087 871.359 779.991C848.507 790.496 829.199 782.715 812.002 767.647C790.499 748.748 765.737 743.784 738.222 741.157C707.842 738.325 678.683 727.954 660.161 699.554C653.087 688.721 643.881 681.916 631.36 678.569C611.56 673.311 596.747 661.059 587.95 641.784C582.374 629.725 573.559 621.026 561.343 615.794C554.648 612.936 548.355 609.063 542.073 605.278C525.727 595.489 520.123 583.168 524.632 567.329C529.822 549.122 544.955 537.372 561.976 537.833C583.138 538.356 599.559 548.048 610.932 565.71C621.03 581.225 632.337 591.405 652.359 590.207C665.451 589.436 676.095 599.074 683.565 609.599C693.392 623.47 706.218 627.224 721.672 626.011C752.562 623.411 775.967 634.695 790.38 664.086C798.086 679.783 813.992 677.99 827.699 679.618C840.62 681.157 852.693 678.211 865.414 674.134C888.949 666.636 908.699 679.125 926.292 693.884C935.036 701.181 943.391 708.081 955.224 706.836C961.604 706.117 968.095 704.857 974.034 702.513C998.119 693.015 1019.61 698.787 1036.08 717.373C1048.51 731.392 1062.09 734.179 1078.31 731.381C1101.88 727.228 1123.2 730.641 1141.52 748.049C1150.98 757.116 1157.76 767.63 1161.81 779.95C1166.01 792.781 1173.1 802.203 1185.54 807.938C1195.08 812.326 1203.8 818.657 1212.96 827.317C1214.15 818.019 1212.78 810.42 1211.27 803.101C1206.74 781.936 1204.76 760.484 1201.93 739.127C1198.97 717.345 1185.15 704.011 1167.34 694.211C1159.81 690.038 1152.46 692.892 1145.37 696.423C1122.03 707.953 1096.62 703.414 1079.52 683.842C1067.37 669.968 1053.55 671.173 1038.61 676.205C1012.62 684.86 994.854 679.285 976.463 658.184C964.404 644.388 951.028 637.26 931.301 644.153C908.506 652.097 886.763 647.939 869.303 628.231C855.299 612.451 847.74 611.1 829.988 620.237C819.569 625.641 808.534 627.854 797.185 627.282C783.937 626.66 773.562 620.957 767.481 607.456C760.265 591.528 752.919 589.008 735.325 589.581C707.937 590.376 682.21 585.257 663.224 561.932C657.126 554.425 648.543 552.396 639.836 550.029C625.09 546.052 611.631 539.727 603.231 525.518C596.733 514.444 598.592 505.687 609.253 499.376C634.774 484.252 660.094 478.844 685.155 501.043C693.853 508.698 704.228 506.736 714.119 504.3C737.093 498.715 757.138 503.858 773.918 521.351C791.467 539.551 808.329 543.202 831.034 533.683C847.905 526.671 866.199 531.57 879.085 546.595C891.466 560.972 898.518 563.173 915.079 554.17C941.293 539.849 968.383 547.899 984.008 567.373C993.306 578.837 1005.29 581.98 1019.98 576.272C1047.88 565.462 1070.71 573.198 1086.99 599.207C1094.01 610.398 1102.29 612.726 1113.55 609.518C1129.66 604.884 1145.55 610.67 1154.82 624.87C1161.04 634.301 1165.07 644.86 1164.8 656.257C1164.45 670.042 1170.3 679.869 1180.53 688.144C1186.11 692.625 1190.96 698.158 1196.17 703.209C1198.38 702.168 1197.57 700.321 1197.41 698.841C1191.51 654.04 1189.3 609.001 1189.14 563.905C1189.09 551.136 1177.05 545.972 1168.4 541.836C1152.47 534.203 1135.74 527.894 1117.09 531.318C1099.02 534.587 1083.84 526.694 1070.59 514.617C1059.26 504.176 1048.42 496.674 1030.97 497.759C1013.52 498.845 998.294 486.727 983.829 476.815C973.289 469.632 963.155 467.602 950.67 471.476C940.762 474.531 929.882 472.761 919.661 469.948C914.237 468.444 908.785 466.68 903.483 464.722C885.693 458.18 868.603 451.735 848.651 458.918C828.037 466.351 807.16 458.395 787.056 452.73C778.519 450.344 770.851 450.327 762.285 453.054C741.99 459.483 722.526 457.975 705.197 443.275C689.956 430.278 690.694 412.308 706.896 400.878C714.799 395.318 723.915 392.881 732.863 391.256C741.811 389.631 748.074 385.577 754.224 378.98C769.048 362.948 784.988 359.918 806.005 369.885C817.38 375.3 826.677 376.014 837.457 368.456C854.772 356.195 872.818 360.418 888.348 372.149C904.153 384.025 919.832 387.104 938.363 381.844C955.639 376.902 970.11 386.109 983.27 395.904C993.528 403.647 1003.69 405.938 1016.13 403.92C1048.71 398.751 1076.09 407.825 1095.24 437.211C1099.81 444.185 1105.61 450.58 1113.91 452.376C1137.99 457.416 1151.41 473.35 1156 496.622C1159.99 516.791 1168.27 532.952 1187.24 543.149C1191.77 535.149 1188.26 525.412 1188.49 516.664C1188.97 495.639 1188.76 474.604 1189.15 453.502C1189.41 436.643 1163.22 403.645 1146.98 399.396C1142.1 398.183 1137.42 399.415 1132.77 400.996C1103.41 411.089 1087.53 405.39 1070.86 378.897C1068.02 374.37 1065.42 369.641 1062.51 365.211C1057.75 358.082 1051.46 352.711 1042.59 352.741C1020.9 352.807 1003.59 342.95 988.959 327.682C978.319 316.545 966.807 309.912 950.817 309.423C930.675 308.785 916.202 296.495 906.164 279.211C901.453 271.018 895.754 266.286 886.015 266.238C863.786 266.188 848.174 252.968 835.123 236.464C828.891 228.531 822.197 223.382 811.948 223.392C809.197 223.437 805.962 223.009 803.81 221.49C789.051 211.258 773.457 202.794 757.683 194.262C748.512 189.304 745.066 180.089 749.415 169.73C753.408 160.029 761.341 160.104 769.888 162.577C773.446 163.586 777.428 163.754 780.54 161.553C794.828 151.484 808.575 156.543 821.32 164.183C834.16 171.899 845.734 177.556 861.877 173.269C882.791 167.741 900.406 178.091 912.344 195.426C922.639 210.39 933.395 217.196 952.071 212.448C972.493 207.151 988.242 219.298 1000.32 234.766C1011.49 249.103 1023.86 255.727 1042.46 256.451C1064 257.283 1077.62 273.459 1085.47 293.544C1089.44 303.582 1095.27 310.238 1106.34 311.37C1139.47 314.863 1156.22 329.098 1156.73 362.7C1157.11 389.178 1170.14 405.421 1187.69 422.122C1191.27 407.181 1189.08 392.36 1190.05 377.977C1191.96 350.448 1191.87 322.791 1194.04 295.321C1194.86 285.007 1191.38 278.614 1185.39 271.271C1172.32 255.386 1158.37 248.5 1137.67 256.735C1114.92 265.819 1096.29 257.169 1083.49 235.262C1080.4 229.971 1076.25 225.24 1073.08 219.959C1069.91 214.765 1066.33 213.582 1060.87 216.313C1052.54 220.423 1044.84 217.853 1038.35 212.154C1031.94 206.531 1026.06 200.146 1020.42 193.644C1010.93 182.818 999.775 177.026 985.125 178.501C974.983 179.468 964.951 176.81 955.95 171.832C944.922 165.674 934.251 158.858 923.364 152.419C915.698 147.82 908.104 142.332 898.597 143.58C881.794 145.825 867.74 139.567 854.59 129.859C844.91 122.667 835.108 118.221 822.11 119.069C798.762 120.554 780.981 108.725 768.654 88.7027C761.168 76.5058 767.136 61.3831 779.55 63.773C797.953 67.3383 812.655 59.4258 828.207 53.7083C840.69 49.0416 852.25 50.7347 863.222 57.1638C875.114 64.1063 886.602 66.6887 899.903 60.8725C911.391 55.7891 922.423 60.4492 931.583 67.6114C946.688 79.3902 961.651 86.0746 981.798 82.9233C998.637 80.2327 1013.13 91.1991 1024.2 103.786C1035.16 116.296 1047.02 122.977 1063.84 123.902C1083.69 125.013 1097.86 138.483 1108.56 154.723C1114.58 163.825 1120.66 169.66 1132.13 171.363C1152.11 174.311 1169.12 196.184 1169.75 221.753C1170.26 242.402 1181.65 254.863 1195.64 269.763C1197.55 251.485 1199.17 235.179 1200.97 219.028C1202.76 203.495 1204.55 187.963 1206.68 172.479C1209.81 149.658 1195.51 135.85 1181.7 121.811C1179.27 119.353 1175.49 119.427 1172.43 120.564C1153.09 127.854 1140.32 116.957 1129.57 103.278C1123.56 95.7612 1117.7 90.4291 1107.85 90.1297C1093.15 89.5839 1083.4 80.2849 1075.16 69.0539C1070.29 62.4662 1066.26 54.9901 1060.54 49.2909C1053.46 42.2468 1045.45 38.3916 1034.22 41.9479C1022.99 45.5041 1012.01 40.5733 1002.18 34.2805C995.315 29.9432 988.5 25.2484 981.93 20.4378C968.79 10.8165 953.838 7.30282 938.367 9.13437C919.323 11.3684 904.206 4.08447 890.848 -8.24376C874.891 -23.0104 856.54 -33.0138 836.722 -40.7371C824.025 -45.6503 812.775 -53.0174 803.679 -63.4469C797.365 -70.5773 793.637 -79.2325 797.698 -88.325C802.171 -98.3451 811.673 -101.178 821.883 -101.536C835.355 -101.996 847.117 -96.9778 857.99 -89.1276C866.987 -82.652 875.893 -80.0431 887.375 -84.4208C902.907 -90.3123 918.932 -87.9767 928.942 -73.2447C942.535 -53.4536 959.499 -55.8059 980.069 -62.0889C968.952 -66.7395 962.946 -74.9619 956.168 -82.3924C949.884 -89.2618 942.145 -92.9715 932.528 -93.4737C918.749 -94.2119 906.582 -99.0086 897.378 -110.395C890.986 -118.222 882.395 -122.628 872.496 -124.861C857.659 -128.123 845.087 -134.989 838.565 -150.114C835.428 -157.338 829.05 -161.201 823.059 -165.46C816.793 -169.865 813.453 -175.832 814.919 -183.487C816.44 -191.412 821.677 -196.936 829.34 -198.505C840.451 -200.814 851.98 -202.466 862.786 -197.516C881.87 -188.653 904.531 -187.065 919.158 -168.8C924.268 -162.415 931.429 -161.548 939.147 -163.387C959.033 -168.095 977.371 -166.637 993.558 -151.367C1000.1 -145.232 1009.25 -143.532 1018.74 -144.954C1030.94 -146.769 1042.18 -143.365 1051.47 -134.985C1061.93 -125.501 1073.27 -119.642 1087.59 -120.991C1091.16 -121.394 1095.69 -121.728 1098.3 -119.908C1129.15 -98.3604 1170.36 -91.1096 1188.54 -51.9227C1192.86 -42.6288 1196.16 -32.4272 1203.52 -25.1508C1210.49 -18.358 1218.84 -13.0432 1227.98 -6.05508C1231.94 -29.8507 1238.56 -52.9767 1238.53 -76.2349C1238.48 -86.6266 1224.51 -96.7706 1212.82 -101.886C1207.03 -104.405 1200.76 -105.726 1193.3 -103.123C1179.88 -98.3505 1162.25 -106.584 1154.36 -119.265C1149.95 -126.345 1146.19 -132.178 1135.87 -132.071C1127.35 -131.993 1121.12 -139.925 1116.23 -147.393C1108.85 -158.72 1100.71 -168.288 1085.55 -168.254C1076.25 -168.263 1069.21 -174.959 1062.42 -180.978C1055.43 -187.152 1048.06 -190.726 1038.33 -190.687C1021.45 -190.636 1007.83 -198.353 998.835 -213.287C992.908 -223.105 984.638 -230.015 975.105 -235.901C956.238 -247.432 943.507 -264.148 937.547 -285.769C935.545 -292.857 931.488 -298.303 926.459 -303.199C920.557 -308.966 915.277 -315.332 911.77 -322.778C906.025 -334.819 913.148 -344.257 926.295 -343.007C937.882 -341.845 945.003 -333.66 952.01 -325.727C955.96 -321.238 960.174 -316.69 965.745 -316.173C980.528 -314.931 991.137 -307.139 1000.47 -296.12C1006.53 -288.96 1015.37 -286.168 1024.07 -283.888C1041.37 -279.405 1055.02 -269.842 1064.66 -254.54C1068.24 -248.775 1073.09 -245.445 1079.29 -244.733C1094.2 -243.066 1105.92 -235.399 1115.53 -224.234C1119.99 -219.01 1124.98 -217.545 1131.66 -217.858C1154.08 -219.151 1166.04 -211.6 1175.41 -190.363C1177.61 -185.324 1181.02 -182.537 1185.65 -180.502C1206.76 -171.163 1218.13 -155.087 1217.79 -131.258C1217.51 -113.076 1232.06 -104.671 1242.28 -90.4026C1246.45 -122.328 1250.37 -151.846 1254.2 -181.355C1254.38 -182.872 1254.58 -184.922 1253.84 -186.073C1246.34 -196.858 1239.39 -208.146 1230.71 -217.918C1227.46 -221.604 1220.43 -224.336 1214.9 -222.215C1191.44 -213.228 1176.32 -225.974 1162.64 -242.672C1158.45 -247.751 1155.06 -253.448 1150.96 -258.449C1147.87 -262.242 1144.62 -267.339 1140.54 -268.464C1124.42 -273.168 1114.8 -285.125 1106.01 -298.232C1098.67 -309.124 1089.57 -317.262 1077.68 -322.706C1067.78 -327.23 1060.25 -335.28 1055.85 -345.27C1049.46 -359.97 1040.25 -372.236 1029.03 -383.131C1016.07 -395.769 1008.37 -411.378 1003.17 -428.59C1001.5 -434.217 1001.79 -439.273 1005.7 -443.59C1009.68 -448.004 1015.72 -449.477 1020.1 -446.534C1039.21 -433.621 1061.51 -424.503 1073.67 -402.876C1078.09 -395.003 1083.11 -388.609 1091.29 -384.86C1108.27 -377.081 1120.69 -364.648 1128.66 -347.395C1131.86 -340.354 1137.36 -335.864 1145 -333.817C1162.67 -329.111 1174.99 -317.548 1181.49 -300.306C1184.8 -291.603 1190.35 -287.383 1198.78 -285.161C1218.58 -279.903 1230.73 -266.116 1232.16 -245.66C1233.54 -226.518 1245.86 -214.955 1256.51 -197.651C1260.2 -226.087 1265.84 -251.041 1265.96 -276.078C1266.08 -301.027 1250.85 -318.606 1228.61 -329.406C1219.87 -333.619 1211.19 -338.103 1203.42 -344.365C1196.13 -350.24 1190.05 -357.573 1188.46 -366.381C1185.82 -380.623 1178.25 -391.311 1169.11 -401.383C1168.32 -402.264 1166.68 -403.048 1166.57 -404.005C1162.52 -431.656 1133.84 -452.303 1144.48 -484.164C1146.53 -490.387 1143.14 -496.084 1140.59 -501.877C1130.7 -524.729 1140.36 -545.377 1148.31 -565.834C1150.38 -571.178 1156.35 -571.762 1162.02 -568.789C1171.71 -563.801 1176.05 -555.039 1177.03 -544.839C1178.45 -529.845 1184.16 -517.36 1193.4 -505.625C1203.36 -492.913 1210.34 -478.281 1210.93 -461.518C1211.51 -446.428 1216.33 -433.402 1227.03 -422.536C1232.47 -416.983 1237.75 -409.911 1237.93 -402.178C1238.56 -375.11 1260.66 -353.9 1257.38 -325.599C1256.49 -318.185 1265.21 -312.647 1269.32 -303.682C1275.96 -332.715 1276.72 -359.762 1270.78 -386.496C1268.68 -396.039 1258.57 -402.477 1258.05 -413.961C1257.69 -423.348 1258.28 -431.874 1262.95 -440.154C1271.44 -455.032 1272.5 -470.131 1264.17 -486.021C1257.38 -498.913 1260.64 -512.057 1267.51 -523.756C1273.79 -534.597 1275.4 -544.822 1270.03 -556.553C1265.59 -566.186 1268.43 -576.198 1274.7 -583.248C1283.88 -593.535 1284.45 -605.318 1284.35 -617.73C1284.3 -619.75 1284.05 -621.925 1284.53 -623.829C1286.42 -630.739 1288.98 -638.606 1296.89 -638.791C1304.45 -638.939 1307.96 -632.198 1310.25 -624.878C1313.68 -613.545 1314.67 -602.379 1312.54 -590.684C1310.94 -581.957 1312.42 -573.4 1316.92 -565.537C1326.64 -548.746 1329.32 -530.986 1320.43 -513.507C1311.68 -496.309 1322.49 -477.526 1312.3 -458.579C1324.2 -462.299 1329.93 -467.262 1332.36 -477.14C1337.71 -499.242 1344.52 -504.591 1366.55 -504.783C1373.18 -504.825 1378.24 -507.333 1382.1 -512.791C1386.72 -519.215 1392.24 -524.507 1399.99 -526.878C1407.65 -529.239 1415.91 -533.871 1421.93 -524.769C1427.95 -515.666 1427.53 -505.575 1420.28 -497.268C1415.77 -492.178 1410.07 -487.747 1404.05 -484.601C1395.84 -480.24 1392.6 -473.795 1391.69 -464.97C1389.7 -445.89 1381.16 -436.029 1363.08 -432.141C1356.1 -430.649 1352.74 -426.041 1350.66 -419.992C1344.57 -402.124 1334.18 -391.085 1313.85 -393.463C1307.65 -394.175 1303.81 -389.248 1300.79 -383.973C1287.06 -359.694 1280.7 -333.513 1281.02 -305.353C1295.64 -314.755 1304.82 -326.539 1307.02 -345.377C1309.32 -365.463 1318.18 -382.497 1342.07 -384.484C1350.27 -385.144 1356.73 -390.541 1361.32 -397.932C1371.69 -414.52 1383.34 -428.873 1404.36 -432.739C1416 -434.932 1424.71 -443.227 1430.01 -455.103C1433.31 -462.523 1439.15 -468.82 1447.48 -471.345C1458.65 -474.718 1465.66 -482.821 1471.35 -492.802C1476.09 -501.178 1482.16 -508.471 1491.69 -511.043C1504.97 -514.742 1512.94 -505.947 1508.97 -492.195C1507.99 -488.649 1506.58 -485.141 1504.87 -481.953C1499.59 -472.194 1495.31 -462.725 1494.3 -450.981C1492.98 -435.941 1483.5 -424.475 1470.75 -416.783C1463.17 -412.228 1457.92 -405.998 1453.82 -398.046C1443.3 -377.476 1426.85 -364.432 1407.35 -351.661C1382.79 -335.677 1360.32 -324.069 1329.76 -323.886C1310.9 -323.788 1294.72 -305.311 1280.55 -290.322C1278.55 -288.246 1277.62 -285.762 1277.2 -282.631C1273.78 -257.046 1270.02 -231.51 1266.07 -203.751C1280.51 -213.22 1293.65 -221.221 1305.98 -230.364C1310.75 -233.897 1313.04 -240.324 1313.88 -246.674C1316.95 -269.929 1332.55 -279.088 1352.77 -282.336C1359.88 -283.489 1367.24 -285.464 1371.14 -290.574C1383.98 -307.439 1402.63 -309.277 1420.8 -312.382C1431.04 -314.064 1439.07 -318.494 1445.31 -326.598C1452.6 -336.055 1461.98 -341.517 1473.58 -344.058C1481.99 -345.887 1488.78 -350.617 1492.97 -359.284C1498.63 -371.023 1506.78 -380.576 1520.08 -384.101C1525.69 -385.526 1528.17 -390.3 1531.01 -394.937C1536.31 -403.728 1544.17 -407.346 1553.76 -403.228C1563.36 -399.111 1564.66 -390.535 1562.25 -381.364C1559.66 -371.381 1557.19 -361.233 1550.15 -353.303C1543.58 -345.866 1542.05 -336.443 1539.28 -327.407C1532.86 -306.33 1519.41 -291.862 1498.83 -284.873C1492.44 -282.743 1487.38 -279.442 1483.06 -274.197C1474.43 -263.62 1463.65 -256.854 1449.73 -256.52C1440.62 -256.374 1433.62 -251.972 1427.13 -246.13C1415.23 -235.45 1403.23 -224.935 1385.69 -226.218C1381 -226.57 1377.87 -222.252 1374.17 -219.897C1360.93 -211.268 1347.19 -209.28 1332.93 -216.66C1321.31 -222.664 1311.34 -221.011 1299.76 -215.213C1274.29 -202.651 1258.29 -185.605 1259.49 -154.196C1260.12 -138.584 1255.79 -122.764 1253.61 -106.042C1277.72 -116.16 1299.16 -125.448 1307.71 -153.551C1314.24 -175.169 1334.3 -183.772 1356.57 -179.497C1368.02 -177.263 1377.69 -180.115 1385.08 -188.702C1395.97 -201.384 1408.98 -206.021 1425.15 -202.381C1439.46 -199.235 1452.18 -201.021 1462.2 -213.781C1467.24 -220.253 1474.67 -222.411 1483.08 -220.363C1488.13 -219.082 1493.51 -218.807 1498.62 -217.709C1509.02 -215.621 1517.79 -218.107 1524.78 -226.384C1534.59 -237.975 1546.83 -244.111 1562.06 -243.449C1569.94 -243.103 1577.22 -244.981 1584.09 -249.015C1598.38 -257.499 1613.78 -256.15 1628.72 -252.018C1645.79 -247.245 1649.91 -230.527 1637.87 -217.276C1631.97 -210.795 1624.75 -206.81 1616.11 -204.692C1605.13 -202.044 1593.95 -198.758 1586.99 -188.634C1575.73 -172.385 1563.57 -158.68 1541.69 -157.889C1530.45 -157.504 1520.97 -149.915 1511.44 -143.467C1495.43 -132.674 1478.14 -125.528 1458.31 -125.672C1443.57 -125.774 1429.94 -119.832 1416.43 -114.344C1406.63 -110.332 1396.98 -109.598 1386.85 -113.126C1377.26 -116.451 1367.75 -115.996 1358.64 -111.181C1347.58 -105.353 1335.69 -104.629 1324.68 -109.821C1309.05 -117.135 1295.51 -112.614 1280.62 -107.147C1257.88 -98.7687 1246.68 -84.2021 1245.79 -59.1661C1245.28 -42.9846 1241.14 -26.9226 1238.51 -9.70868C1255.98 -15.9946 1269.4 -23.7634 1279.83 -38.3309C1292.77 -56.5306 1310.06 -68.259 1334.13 -58.7239C1339.99 -56.3886 1345.15 -58.7327 1349.82 -62.4305C1365.32 -74.7504 1381.93 -78.7366 1400.67 -69.8349C1416.33 -62.3475 1432.22 -64.2268 1447.79 -70.5629C1463.11 -76.7832 1478.35 -77.6195 1493.75 -70.896C1500.46 -67.9509 1506.06 -68.6705 1511.06 -74.7848C1519.99 -85.7479 1531.84 -88.4045 1545.04 -85.1342C1557.17 -82.1839 1568.78 -82.3468 1580.64 -87.2074C1589.45 -90.8433 1598.9 -89.5294 1607.96 -86.3211C1614.24 -84.1207 1618.78 -80.4914 1620.06 -73.6751C1621.42 -66.1627 1617.51 -61.1397 1612.04 -56.9109C1603.56 -50.3166 1593.4 -47.233 1583.51 -44.0041C1575.53 -41.4307 1569.03 -37.1741 1563.45 -30.9058C1550.13 -16.0125 1533.73 -7.11536 1513.83 -5.6651C1494.95 -4.24284 1477.57 2.03347 1461.11 11.2011C1450.97 16.8367 1440.62 18.1803 1429.52 15.202C1415.39 11.4184 1401.75 13.3965 1387.83 17.5205C1370.16 22.772 1352.19 24.6205 1334.75 15.0434C1328.6 11.6832 1321.72 10.2555 1314.74 11.7472C1304.99 13.9032 1297.63 9.79754 1290.61 3.27545C1275.11 -11.2781 1253.15 -11.2701 1238.23 3.18666C1236.45 4.97332 1235.53 8.24939 1235.14 10.9364C1230.37 50.5073 1225.69 90.1557 1221.1 129.794C1220.92 131.312 1221.7 132.898 1222.17 135.489C1237.36 125.76 1251.31 116.522 1259.47 99.4776C1269.99 77.322 1287.03 63.4183 1312.95 64.9028C1320.59 65.3644 1325.94 60.8843 1331.31 56.5781C1340.79 48.9021 1351 46.2535 1363.01 49.6581C1376.55 53.5957 1389.58 51.5106 1400.53 42.4344C1412.74 32.2477 1425.35 31.7955 1438.68 39.2807C1453.48 47.5695 1467.24 48.1339 1481.53 37.3595C1491.06 30.1186 1502.31 29.1145 1513.54 35.5149C1521.19 39.94 1528.3 41.1646 1536.85 35.1794C1546.74 28.1612 1558.01 28.8293 1568.78 35.7224C1577.69 41.415 1586.57 44.5556 1596.04 35.2943C1601.47 30.0119 1609.8 29.7782 1616.62 32.9747C1624.53 36.6653 1632.14 36.9528 1640.24 35.4236C1643.78 34.7599 1647.51 34.1642 1651.08 34.5543C1660.67 35.5882 1669.89 38.6904 1673.76 48.5638C1677.49 58.0118 1673.71 66.5437 1666.61 73.1586C1662.79 76.6737 1660.11 81.9975 1654.76 83.394C1636.69 88.1618 1621.61 97.35 1610.33 114.217C1623.86 108.198 1637.52 107.1 1651.5 109.578C1657.56 110.657 1663.31 112.741 1667.64 117.54C1677.17 128.008 1675.29 135.798 1662.08 140.193C1645.64 145.658 1633.44 155.139 1626.33 172.329C1620.03 187.577 1606.29 194.853 1590.28 194.983C1578.41 195.087 1568.14 194.923 1558.6 205.073C1550.97 213.07 1538.64 215.253 1526.99 214.362C1510.58 213.128 1495.67 215.424 1481.11 225.348C1468.22 234.026 1452.93 239.009 1436.31 236.74C1425.81 235.28 1415.57 236.962 1406.58 244.32C1394.76 254.11 1380.98 253.372 1367.46 248.816C1354.49 244.55 1343.05 243.901 1333.85 256.304C1332.05 258.71 1328.5 260.079 1325.5 260.946C1311.38 264.828 1296.54 264.65 1282.64 270.533C1275.66 273.523 1268.43 268.257 1262.66 263.622C1256.87 258.899 1250.57 258.023 1244.4 260.569C1230.81 266.153 1219.16 275.132 1207.79 284.343C1205.82 285.975 1204.85 288.11 1204.82 290.846C1203.6 323.76 1202.22 356.693 1201.19 389.675C1200.71 403.033 1200.76 416.509 1200.59 432.652C1215.71 418.524 1231.28 409.897 1245.62 399.558C1252.16 394.856 1254.99 387.841 1254.52 379.083C1253.15 349.985 1261.94 340.094 1290.92 337.357C1297.48 336.706 1301.12 332.244 1304.04 327.597C1312.61 314.207 1325.49 312.315 1339.16 313.594C1346.81 314.23 1354.46 314.779 1361.98 315.782C1371.51 317.086 1377.6 313.051 1382.6 306.144C1395.1 288.611 1411.03 282.411 1431.3 290.347C1441.3 294.243 1448.15 288.536 1453.76 282.442C1470.32 264.275 1488.73 256.385 1513.47 264.171C1528.2 268.767 1540.05 259.238 1549.24 248.333C1564.36 230.328 1581.75 224.845 1603.09 235.392C1607.11 237.407 1610.62 237.275 1614.49 234.9C1621.02 230.905 1627.75 227.151 1634.59 223.648C1656.33 212.475 1670.77 214.461 1688.79 230.757C1698.67 239.689 1699.26 251.077 1689.58 260.802C1679.75 270.633 1667.84 276.557 1653.9 276.718C1638.33 276.887 1628.08 285.354 1621.1 298.301C1613.96 311.441 1603.74 317.879 1589.18 319.344C1576.23 320.627 1564.45 324.685 1556 336.828C1548.58 347.532 1536.11 350.7 1523.86 351.375C1504.16 352.361 1487.08 357.459 1472.78 372.815C1465.33 380.88 1453.78 383.15 1442.38 382.056C1428.53 380.709 1416.71 382.834 1406.8 395.053C1394.31 410.382 1376.34 409.939 1358.6 406.916C1353.07 405.954 1347.55 404.373 1342.31 402.232C1332.29 398.162 1323.34 399.7 1315.25 406.691C1302.38 417.921 1288.34 419.416 1272.4 413.987C1250.99 406.707 1210.21 424.783 1201.78 445.558C1197 457.463 1200.83 470.865 1199.75 483.498C1198.87 494.082 1200.7 504.979 1200 515.631C1199.36 526.012 1200.42 536.202 1200.76 547.706C1217.07 542.607 1233.09 537.983 1249.53 534.809C1255.26 533.635 1260.06 528.864 1263.23 523.308C1265.45 519.357 1267.5 515.338 1269.91 511.454C1281.13 493.272 1299.9 490.1 1316.06 503.61C1328.99 514.488 1333.62 515.024 1344.65 502.768C1358.82 487.073 1373.42 482.079 1392.88 493.543C1402.1 498.936 1412.8 497.555 1420.59 488.746C1430.53 477.494 1442.36 473.958 1456.7 477.364C1474.23 481.557 1488.46 475.636 1496.74 459.635C1508.15 437.732 1525.46 430.76 1548.18 435.247C1560.07 437.521 1569.35 435.065 1576.2 423.896C1583.85 411.491 1596.89 410.286 1609.53 410.095C1622.68 409.847 1631.69 405.66 1638.6 392.81C1646.71 377.622 1660.86 367.833 1678.19 364.911C1685.54 363.642 1689.54 360.108 1692.22 353.286C1696.29 342.782 1705.51 338.924 1715.34 338.257C1724.74 337.637 1731.99 340.786 1733.22 353.248C1736 381.129 1730.46 393.12 1705.36 405.112C1698.01 408.672 1691.31 412.687 1689.37 420.747C1683.28 446.281 1666.45 459.808 1642.67 465.13C1634.19 467.056 1629.13 471.855 1625.56 479.131C1618.26 493.962 1607.63 504.325 1590.85 506.831C1588.98 507.042 1586.69 508.094 1585.74 509.611C1573.57 527.811 1553.9 529.058 1535.45 532.811C1525.26 534.841 1518.28 540.914 1511.24 548.051C1496.02 563.6 1479.01 573.976 1456.15 566.066C1448.18 563.351 1441.24 565.984 1435.2 572.039C1427.16 580.171 1419.17 588.032 1408.42 592.768C1398.49 597.147 1389.15 598.375 1379.58 592.141C1375.29 589.275 1370.99 587.821 1365.97 590.591C1341.39 604.197 1321.48 591.815 1302.47 577.48C1294.1 571.198 1287.89 561.941 1279.88 555.002C1261.73 539.16 1241.83 545.28 1222.37 551.438C1198.5 559.062 1200 559.334 1200.59 585.261C1201.66 627.08 1205.05 668.727 1208.53 710.452C1208.99 716.04 1208.27 721.936 1211.8 728.058C1222.49 718.924 1234.7 712.614 1245.7 704.678C1253.42 699.05 1258.17 689.968 1261.85 680.565C1270.81 657.529 1279.39 651.891 1303.87 652.04C1314.13 652.118 1322.1 649.458 1328.83 640.329C1341.44 623.047 1361.66 617.421 1380.18 629.696C1391.34 637.073 1401.95 635.701 1412.09 626.276C1430.2 609.522 1450.55 607.405 1472.69 618.214C1487.45 625.362 1496.13 623.679 1505.31 610.309C1516.05 594.736 1529.62 588.979 1548.08 591.568C1562.43 593.563 1574.01 587.764 1581.35 574.074C1591.18 555.784 1605.06 542.854 1626.44 540.709C1630.95 540.201 1635.28 540.418 1639.71 541.504C1660.33 546.406 1675.41 539.509 1683.72 519.98C1691.16 502.664 1703.44 492.294 1721.82 492.602C1736.92 492.839 1744.81 484.9 1750.96 472.929C1758.8 457.596 1770.55 445.61 1783.68 435.231C1795.32 426.078 1807.86 425.81 1818.45 433.428C1828.67 440.823 1831.15 451.382 1826.32 466.641C1824.49 472.574 1822.4 478.537 1817.99 482.998C1808.17 493.004 1803.34 504.386 1802.3 518.953C1801.15 535.56 1790.34 545.854 1774.16 548.294C1766.02 549.475 1762.27 553.686 1759.44 560.701C1757.16 566.422 1754.06 571.794 1750.95 577.078C1745.29 586.527 1737.19 591.845 1726.11 592.125C1721.29 592.226 1716.33 592.521 1711.62 593.493C1700.24 595.744 1690.95 599.699 1685.29 612.144C1674.7 635.276 1657.18 643.331 1632.76 637.624C1619.66 634.518 1610.85 638.067 1604.6 649.96C1600.9 656.898 1595.79 662.76 1589.92 668.004C1578.42 678.375 1565.99 680.48 1551.93 673.342C1534.3 664.403 1528.03 666.871 1516.73 682.859C1503.95 700.952 1485.22 708.262 1464.11 706.676C1453.68 705.912 1445.45 707.015 1437.85 714.481C1427.06 725.036 1413.32 726.937 1399.42 724.362C1383.77 721.543 1369.96 724.334 1356.92 733.205C1338.18 745.889 1319.92 745.127 1302.38 730.011C1297.7 725.956 1292.88 722.181 1287.83 718.609C1275.11 709.646 1262.39 706.85 1247.45 714.965C1210.69 735.056 1210 735.838 1215.92 777.817C1219.01 799.937 1221 822.269 1223.91 848.198C1245.8 824.497 1272.32 812.874 1291.26 791.355C1294.94 787.24 1296.89 782.438 1298.74 777.384C1308.13 752.095 1329.16 740.738 1354.9 748.235C1364.25 750.969 1371.68 750.397 1377.71 742.756C1386.08 732.121 1396.83 728.883 1409.09 732.965C1435.58 741.787 1455.71 735.465 1476.15 715.01C1494.36 696.835 1514.98 697.154 1536.28 711.23C1542.06 715.073 1547.92 718.994 1554.31 721.446C1564.93 725.448 1574.47 724.549 1582.07 713.913C1594.04 697.056 1601.42 695.255 1621.49 702.157C1631.16 705.473 1637.62 700.868 1643.45 693.691C1651.32 683.993 1657.82 672.863 1671.48 669.474C1679.69 667.403 1687.64 668.358 1695.54 668.965C1718.24 670.901 1734.89 661.095 1740.7 639.206C1746.39 617.771 1759.2 605.313 1780.13 600.664C1792.4 597.959 1799.46 591.083 1800.02 576.835C1800.59 561.968 1809.79 551.856 1822.9 551.26C1833.78 550.738 1837.41 545.483 1839.06 535.605C1841.91 518.807 1851.01 507.825 1867.79 503.027C1882.73 498.788 1892.97 504.859 1901.63 515.955C1910.28 527.051 1906.6 538.744 1901.91 549.934C1898.87 557.326 1893.55 563.652 1887.1 567.639C1875.66 574.655 1873.45 584.156 1875.14 596.83C1877.42 614.9 1874.88 618.358 1859.4 625.477C1847.06 631.156 1843.37 640.999 1848.33 655.008C1856.28 652.087 1864.43 650.287 1872.96 650.295C1888.38 650.319 1896.75 661.183 1892.77 676.346C1891.79 679.893 1890.49 683.652 1888.3 686.453C1878.43 699.02 1871.34 711.803 1874.78 729.39C1876.29 737.501 1867.75 742.781 1860.84 746.38C1845.92 753.964 1837.41 765.585 1836.08 782.916C1834.65 801.581 1820.59 808.363 1805.88 812.312C1791.33 816.242 1780.36 821.355 1773.35 837.125C1766.2 853.261 1748.87 859.267 1732.64 863.476C1718.24 867.213 1706.14 873.774 1697.9 886.246C1683.09 908.62 1661.6 916.681 1636.64 917.556C1620.51 918.14 1606.99 923.54 1595.27 934.994C1582.31 947.732 1566.17 954.309 1548.08 954.32C1529.74 954.361 1515.03 961.481 1504.12 976.28C1488.43 997.609 1467.16 1003.09 1442.78 998.435C1422.27 994.491 1404.95 998.293 1390.03 1014.25C1375.42 1029.9 1356.75 1030.86 1338.82 1021.52C1322.73 1013.2 1310.1 1018.14 1297.26 1027.26C1295.66 1028.41 1294.7 1030.54 1293.2 1031.77C1266.31 1053.92 1274.74 1079.84 1283.88 1107.54C1301.78 1161.82 1317.52 1216.88 1334.59 1271.44C1340.1 1289.05 1347.02 1306.25 1353.54 1323.58C1355.49 1328.73 1356.75 1333.79 1355.73 1339.28L1355.99 1338.54ZM1698.43 772.17C1682.48 781.193 1666.28 779.582 1649.57 778.116C1638.26 777.1 1624.6 772.824 1615.62 784.85C1602.74 802.161 1585.36 806.939 1565.25 804.977C1549.66 803.473 1535.92 803.876 1524.58 818.723C1515.57 830.488 1500.98 833.277 1487.08 826.12C1471.19 818.043 1457.2 819.267 1443.08 830.109C1422.71 845.798 1401.67 846.406 1380.62 830.716C1378.73 829.255 1376.47 828.276 1373.88 826.717C1371.46 829.721 1369.01 832.465 1366.84 835.353C1346.94 861.386 1329.38 863.099 1305.56 841.2C1278.76 816.554 1271.77 816.46 1243.88 840.397C1233.91 849.01 1226.69 856.079 1230.14 873.753C1239.92 924.02 1248.85 974.382 1260.82 1024.14C1262.73 1031.94 1262.73 1041.19 1269.31 1048.38C1277.7 1035.63 1286.34 1024.35 1296.1 1013.91C1301.4 1008.11 1304.2 1000.13 1303.58 992.27C1301.82 969.735 1315.04 957.055 1331.59 947.172C1336.84 944.026 1340.63 940.956 1343.12 935.564C1354.85 909.572 1376.8 897.935 1402.78 899.236C1425.56 900.369 1440.53 891.722 1453.32 874.508C1463.56 860.579 1477.1 853.061 1494.7 852.489C1506.63 852.113 1518.04 854 1529.22 857.674C1541.47 861.668 1551.27 858.449 1559.81 849.38C1563.74 845.237 1567.76 841.171 1571.88 837.183C1585.84 823.45 1602.06 814.485 1621.86 816.66C1638.25 818.425 1652.77 812.736 1667.77 808.226C1672.52 806.81 1676.2 803.488 1678.7 798.889C1683.89 789.14 1690.1 780.069 1698.52 772.16L1698.43 772.17ZM1206.43 269.165C1213.96 264.88 1219.45 261.618 1224.97 258.617C1237.62 251.553 1246.37 242.107 1247.59 226.11C1248.3 217.043 1254.7 211.211 1263.86 210.62C1269.16 210.287 1271.86 208.308 1273.56 203.447C1279.04 187.85 1290.94 181.839 1306.2 180.384C1323.41 178.709 1340.37 177.063 1355.76 166.87C1364.99 160.808 1376.3 160.326 1386.17 169.17C1392 174.328 1398.87 174.876 1404.76 169.101C1420.68 153.563 1440.21 151.097 1461.01 152.19C1476.94 152.95 1493.45 156.465 1507.34 144.414C1520.52 132.972 1534.96 130.376 1551.07 138.076C1558.9 141.776 1567.28 143.563 1575.14 137.654C1583.4 131.437 1591.75 125.21 1600.01 118.992C1584.55 120.205 1569.49 121.022 1554.71 116.784C1547.77 114.834 1540.53 114.769 1534.35 117.228C1520.34 122.86 1506.71 120.43 1492.8 117.768C1481.18 115.553 1469.46 113.966 1458.8 120.984C1441.47 132.364 1424.84 133.093 1407.09 120.818C1391.97 110.364 1376.23 110.638 1361.24 122.901C1352.49 130.055 1342.02 133.526 1330.58 129.793C1322.35 127.107 1315.9 129.508 1309.44 134.819C1297.99 144.126 1284.33 143.64 1273.26 136.341C1259.48 127.144 1248.21 127.269 1236.29 137.774C1230.33 142.94 1220.13 144.97 1219.05 153.727C1214.25 191.539 1210.5 229.496 1206.11 269.377L1206.43 269.165ZM1209.07 139.256C1209.67 137.691 1210.24 136.657 1210.38 135.584C1215.49 95.1822 1220.51 54.7898 1225.44 14.3199C1225.7 12.0001 1225.21 9.14821 1224.13 7.24284C1215.81 -7.06221 1192.11 -15.5819 1177.2 -9.49654C1160.81 -2.80356 1145.68 -1.01048 1131.2 -14.8864C1115.85 -29.6332 1096.36 -26.0269 1074.4 -26.7246C1085.93 -18.4195 1093.78 -10.582 1098.61 -0.552952C1105.13 12.9867 1116.25 19.9285 1129.75 22.8124C1161.42 29.4645 1177.02 52.5539 1180.65 81.8379C1183.58 105.563 1195.33 122.036 1209.08 139.343L1209.07 139.256ZM999.253 -56.9373C1011.61 -25.1123 1037.27 -25.9771 1063.21 -31.9843C1047.09 -52.1065 1037.71 -55.8081 999.253 -56.9373ZM1705.03 768.783C1718.76 761.421 1737.6 763.527 1746.66 746.029C1724.29 738.506 1716.03 756.266 1705.03 768.783ZM1801.75 711.89C1814.32 701.926 1817.18 689.798 1821.9 678.869C1807.4 683.94 1805.09 696.359 1801.75 711.89Z" fill="#29514B"/>
<path d="M-110.83 747.294C-108.264 704.612 -101.933 662.24 -102.852 619.339C-102.588 604.401 -103.253 589.466 -102.479 574.385C-100.171 536.73 -88.1931 500.245 -86.1182 462.358C-83.9569 377.564 -96.4765 293.2 -100.541 208.524C-102.407 184.054 -105.992 159.638 -114.311 136.45C-132.33 93.3387 -159.718 54.2663 -189.138 18.0873C-227.664 -28.9909 -264.014 -77.9857 -300.64 -126.607C-309.474 -139.276 -317.288 -152.693 -325.149 -165.97C-333.002 -177.386 -338.889 -196.674 -353.353 -200.2C-371.292 -201.152 -368.183 -179.525 -369.155 -167.143C-370.887 -136.424 -372.945 -105.656 -370.821 -74.9055C-368.754 -24.1912 -340.416 19.9961 -323.822 66.9759C-303.763 109.056 -315.744 155.917 -321.511 199.869C-326.927 250.288 -338.975 303.478 -322.417 352.925C-313.283 382.112 -296.218 407.87 -284.859 435.931C-270.326 478.824 -263.493 524.913 -239.728 564.186C-216.105 602.947 -183.769 636.369 -168.861 680.005C-159.272 706.864 -150.889 734.1 -143.899 761.806C-141.303 771.801 -139.171 781.797 -136.574 791.791C-135.536 795.696 -134.265 799.833 -130.863 802.192C-141.659 832.25 -152.734 862.216 -165.763 891.539C-201.676 971.722 -243.407 1049.37 -274.572 1131.58C-276.194 1121.44 -278 1111.4 -278.228 1101.25C-279.407 1040.3 -282.538 979.165 -276.98 918.416C-273.098 856.649 -262.338 795.134 -261.523 733.286C-262.473 682.94 -275.637 633.991 -286.57 585.314C-297.359 526.305 -327.54 474.54 -354.704 422.065C-368.568 395.037 -378.955 366.367 -389.016 337.649C-406.254 292.161 -423.262 246.439 -432.705 198.407C-437.877 183.536 -438.368 143.1 -458.165 142.155C-464.858 141.81 -469.76 147.32 -470.896 153.607C-483.363 195.352 -498.713 236.457 -504.995 279.619C-518.692 395.312 -541.92 509.415 -557.988 624.792C-562.503 656.919 -568.595 689.61 -565.069 722.217C-560.359 783.251 -509.777 824.231 -481.46 874.608C-455.686 916.711 -454.451 968.546 -431.413 1011.92C-415.058 1045.96 -384.484 1068.73 -357.064 1093.1C-339.947 1108.81 -323.153 1125.03 -307.008 1141.81C-301.547 1147.79 -294.834 1153.25 -291.783 1160.92C-290.936 1163.52 -289.07 1165.38 -286.88 1166.72C-299.089 1203.43 -311.298 1240.15 -322.809 1277.1C-343.632 1354.66 -367.476 1432.01 -374.813 1512.31C-377.065 1529.53 -383.335 1552.87 -363.597 1562.01C-353.171 1566.53 -339.945 1562.52 -334.364 1552.58C-330.071 1545.63 -331.405 1537.45 -329.532 1529.86C-325.281 1501.36 -324.749 1472.41 -319.94 1444.1C-306.949 1382.86 -290.889 1322.16 -272.457 1262.24C-269.762 1262.04 -267.162 1261.66 -264.653 1261.56C-249.328 1259.64 -233.774 1257.01 -218.875 1253.09C-167.955 1263.36 -122.081 1289.47 -71.7581 1301.55C14.3492 1326.66 107.153 1319.12 191.27 1289.51C246.993 1270.07 301.575 1244.21 344.991 1203.37C391.978 1161.07 444.382 1125.35 497.302 1090.89C537.115 1066.67 580.249 1047.88 616.414 1017.82C626.926 1009.35 637.812 1001.17 647.344 991.449C649.426 989.347 651.088 986.641 651.772 983.614C652.816 977.606 649.118 970.967 643.072 969.595C600.185 969.255 556.831 968.451 513.963 972.765C466.542 977.282 419.933 987.334 372.658 993.294C314.367 998.413 258.018 1012.69 202.662 1031.02C158.486 1044.97 113.084 1054.64 69.237 1069.48C10.0759 1089.02 -46.4981 1116.24 -96.4318 1153.85C-134.56 1180.95 -172.572 1213.82 -217.915 1226.61C-222.565 1225.7 -227.622 1227.44 -230.58 1231.27C-233.596 1232.44 -237.265 1232.78 -240.468 1233.59C-248.5 1234.97 -256.623 1237.1 -264.886 1238.71C-247.18 1182.89 -227.614 1127.53 -206.325 1073.05C-181.11 1012.73 -155.197 952.643 -130.774 891.91C-124.571 874.901 -118.787 857.753 -113.142 840.559C-102.188 837.816 -89.5764 831.437 -83.1729 829.364C-81.9206 828.847 -82.5249 828.803 -81.3585 829.961C-76.9704 834.969 -69.4883 835.265 -63.6241 837.661C-46.5973 842.805 -30.628 850.698 -14.9357 858.965C74.3798 907.283 174.567 932.848 276 933.419C350.478 932.702 422.766 907.563 497.64 912.707C565.334 911.924 633.394 920.866 700.924 913.987C732.689 910.044 739.058 888.287 707.695 876.872C598.687 830.588 496.393 767.153 381.729 735.27C336.379 723.586 289.48 719.446 242.726 716.748C204.527 715.319 166.139 713.053 128.154 718.51C61.5094 725.989 5.03265 765.63 -54.748 792.72C-71.4422 800.698 -88.1364 808.676 -104.972 816.142C-92.8111 779.098 -81.0689 741.917 -67.0933 705.471C-48.9361 657.701 -27.5666 611.453 -5.49922 565.435C-1.45143 566.768 2.86584 565.866 6.2005 563.247C13.1987 558.891 20.3843 554.907 27.5699 550.923C37.3539 546.091 46.9047 541.027 56.595 536.009C85.0845 549.111 113.161 563.47 141.974 576.059C208.633 606.226 269.031 627.669 343.33 617.133C395.301 611.946 446.497 598.758 499.1 600.13C623.781 604.796 750.578 638.351 845.016 530.664C853.66 519.88 865.756 512.247 874.542 501.974C875.049 500.902 874.765 499.879 874.947 498.854C880.291 499.066 885.024 497.372 885.925 490.388C886.208 480.103 874.08 479.825 866.59 477.668C836.452 470.53 807.551 459.151 778.974 447.26C706.089 417.211 633.542 379.064 552.746 380.179C522.031 379.511 491.088 380.007 460.581 384.829C413.032 392.093 368.32 411.444 321.62 421.776C275.113 433.875 225.562 428.861 180.049 445.47C136.671 461.233 97.37 485.775 56.5226 507.018C53.1383 508.847 49.7537 510.675 46.3694 512.504C42.2795 512.241 38.1515 513.979 36.4019 517.895C27.5471 522.723 18.7403 527.877 10.2125 533.123C21.7768 509.205 33.4806 485.332 44.9054 461.368C56.7928 436.936 68.5865 412.319 80.4739 387.887C80.753 387.979 80.8009 388.305 80.9405 388.351C87.8717 390.324 93.9808 384.436 100.619 383.06C116.673 377.505 133.149 373.018 149.629 369.462C221.253 352.469 295.579 348.449 366.021 326.575C409.729 311.695 452.152 289.421 488.135 260.379C504.649 242.583 517.481 221.87 533.996 204.075C560.205 170.884 598.138 152.863 633.504 131.827C674.42 104.72 711.956 69.0636 732.773 24.0279C738.758 10.509 784.411 -96.5171 753.194 -94.7168C751.051 -96.1974 748.493 -96.8851 745.848 -95.8973C731.944 -87.4654 719.165 -76.339 704.561 -68.6023C656.582 -41.6529 609.912 -12.5681 561.464 13.4526C523.401 33.7544 481.303 44.6724 442.113 62.2798C400.602 80.3618 363.353 106.663 324.557 129.667C319.227 132.713 314.081 135.666 308.936 138.618C315.85 125.095 321.787 111.251 324.46 105.935C342.566 68.2161 350.434 26.8154 351.89 -14.8387C355.289 -46.8681 341.23 -76.1285 331.445 -105.685C322.734 -133.804 317.365 -162.68 308.329 -190.751C294.406 -232.204 275.008 -271.587 257.142 -311.396C245.982 -336.293 235.007 -361.285 226.491 -387.171C225.026 -393.075 219.573 -397.194 213.491 -396.1C209.592 -395.06 207.276 -393.19 205.892 -390.857C195.035 -386.998 197.989 -369.141 194.591 -359.262C189.901 -336.022 184.048 -313.011 177.637 -290.183C135.71 -135.614 34.6641 3.50982 29.6207 167.285C30.1176 197.809 37.9989 227.513 41.5608 257.653C44.4899 280.769 46.7689 303.981 49.2334 327.099C49.6578 328.633 49.7112 330.354 49.7648 332.076C46.8049 335.438 47.1491 340.044 46.9808 344.325C46.9291 354.377 46.692 364.523 45.386 374.626C43.4452 388.547 40.2022 402.195 36.6801 415.751C35.8139 419.803 33.7431 424.697 32.9725 429.4C-2.79116 500.648 -38.3217 572.128 -70.7335 644.944C-85.7434 678.416 -98.241 712.715 -110.505 747.247L-110.83 747.294Z" fill="#C9D691"/>
<path d="M1389.23 1144.68C1377.37 1074.3 1359.32 1005.1 1353.2 933.732C1350.11 908.985 1348.55 884.077 1344.58 859.186C1334.05 797.1 1307.67 738.685 1297.48 676.173C1278.79 535.822 1284.55 393.564 1276.22 252.296C1274.96 211.35 1276.56 170.185 1286.24 130.213C1308.47 55.4397 1346.97 -14.3032 1389.36 -79.6071C1444.92 -164.627 1496.53 -252.44 1548.66 -339.683C1561.07 -362.287 1571.65 -385.952 1582.33 -409.394C1593.33 -429.744 1599.67 -462.809 1623.05 -471.244C1652.65 -476.029 1651.35 -439.58 1655.16 -419.202C1663.51 -368.525 1672.4 -317.827 1674.35 -266.409C1679.95 -181.867 1640.78 -103.465 1621.61 -22.5256C1595.81 50.8997 1624.04 126.537 1641.43 198.456C1659.4 281.17 1688.87 367.3 1670.19 452.327C1660.23 502.401 1636.49 548.202 1622.63 596.806C1606.15 670.594 1603.01 748.309 1570.56 817.738C1538.26 886.293 1490.54 947.541 1473.56 1022.63C1462.43 1068.92 1453.37 1115.62 1446.7 1162.86C1444.17 1179.91 1442.41 1196.88 1439.88 1213.93C1438.85 1220.6 1437.48 1227.69 1432.25 1232.22C1455.52 1280.18 1479.24 1327.93 1506.09 1374.27C1579.97 1500.94 1663.06 1622.36 1729.42 1753.24C1730.31 1736.13 1731.52 1719.13 1730.09 1702.26C1721.19 1600.88 1715.51 1498.85 1695.46 1399.01C1678.02 1297.19 1649.21 1197.01 1636.85 1094.51C1629.46 1010.78 1642.59 927.183 1652.07 844.437C1659.47 744.57 1700.35 653.261 1736.09 561.313C1754.29 513.977 1766.42 464.537 1778.01 415.075C1798.52 336.496 1818.61 257.572 1825.73 176.163C1831.66 150.558 1825.28 83.3566 1857.97 78.2521C1869.01 76.4832 1878.13 84.7537 1881.14 94.9851C1909.26 162.043 1942.06 227.525 1960.17 298.041C2003.5 487.615 2062.37 672.846 2109.59 861.471C2122.8 913.987 2138.73 967.159 2138.69 1021.91C2141.73 1124.05 2065.08 1201.1 2027.05 1289.77C1991.77 1364.26 1998.95 1450.51 1968.43 1526.61C1947.35 1586.04 1900.66 1629.3 1859.49 1674.64C1833.87 1703.77 1808.89 1733.69 1785.08 1764.42C1777.08 1775.33 1766.91 1785.59 1763.21 1798.86C1762.27 1803.33 1759.5 1806.74 1756.11 1809.36C1782.91 1868.12 1809.71 1926.88 1835.39 1986.15C1883.77 2111.17 1937.11 2235.28 1963.59 2367.24C1970.39 2395.43 1984.96 2433.05 1953.82 2451.74C1937.32 2461.1 1914.66 2456.81 1903.62 2441.32C1895.26 2430.55 1896.02 2416.73 1891.56 2404.46C1879.43 2357.92 1873.39 2309.97 1860.37 2263.84C1827.9 2164.51 1790.44 2066.64 1749.18 1970.48C1744.67 1970.64 1740.29 1970.47 1736.1 1970.74C1710.33 1970.29 1684.04 1968.72 1658.62 1964.87C1575.93 1991.01 1504.44 2042.53 1423.07 2071.58C1284.62 2128.64 1129.25 2132.71 984.366 2098.59C888.418 2076.28 793.222 2043.11 713.891 1983.08C628.372 1921.26 535.035 1871.34 441.065 1823.6C370.674 1790.52 295.737 1767.04 230.359 1723.6C211.404 1711.43 191.879 1699.79 174.329 1685.36C170.499 1682.24 167.259 1678.05 165.584 1673.15C162.782 1663.36 167.737 1651.68 177.527 1648.33C248.649 1640.1 320.462 1631.02 392.38 1630.52C471.891 1629.55 551.039 1637.9 630.565 1639.35C728.225 1637.43 824.291 1651.07 919.431 1671.59C995.236 1686.85 1072.31 1694.8 1147.73 1711.59C1249.4 1733.46 1348.15 1768.53 1437.72 1822.04C1505.83 1860.2 1574.77 1907.96 1652.31 1921.09C1659.86 1918.74 1668.57 1920.73 1674.16 1926.56C1679.37 1927.97 1685.52 1927.88 1690.98 1928.64C1704.56 1929.5 1718.42 1931.58 1732.42 1932.78C1693.1 1843.3 1650.76 1754.91 1605.73 1668.28C1553.14 1572.68 1499.43 1477.58 1448.08 1381.14C1434.76 1354.02 1422.1 1326.59 1409.67 1299.06C1391 1296.47 1368.94 1288.13 1357.94 1285.83C1355.77 1285.2 1356.76 1285.02 1355.03 1287.15C1348.64 1296.25 1336.28 1298.07 1326.97 1303.1C1299.63 1314.68 1274.53 1330.63 1249.95 1347.16C1110.32 1443.31 948.582 1503.64 780.331 1522.7C656.589 1534.82 532.134 1506.01 408.778 1527.93C296.284 1538.72 184.915 1565.72 71.6074 1566.37C18.1835 1565.5 3.7379 1530.52 53.7606 1505.97C226.444 1409.68 384.932 1286.12 569.567 1212.72C642.756 1185.22 719.859 1169.97 796.978 1157.14C860.124 1147.95 923.435 1137.33 987.452 1139.6C1099.4 1140.11 1200.19 1195.81 1304.24 1230.09C1333.36 1240.35 1362.49 1250.61 1391.77 1259.99C1364.99 1200.68 1338.88 1141.07 1309.19 1083.08C1270.55 1007.03 1226.85 934.092 1182.03 861.656C1175.55 864.592 1168.22 863.867 1162.22 860.116C1149.83 854.136 1137.19 848.807 1124.56 843.478C1107.46 837.206 1090.7 830.507 1073.73 823.91C1028.77 850.745 984.731 879.594 939.151 905.636C833.884 967.613 737.458 1013.99 612.265 1009.78C525.082 1010.46 437.762 997.713 350.7 1009.39C144.592 1039.41 -59.885 1117.75 -235.801 955.891C-252.069 939.536 -273.504 929.027 -289.915 913.547C-290.947 911.858 -290.66 910.11 -291.143 908.442C-299.976 909.747 -308.132 907.78 -310.87 896.35C-313.171 879.33 -293.092 876.703 -281.045 871.785C-232.295 854.553 -186.353 830.504 -141.039 805.662C-25.4183 742.768 88.1983 666.494 222.497 653.91C273.358 647.314 324.803 642.609 376.295 645.163C456.508 648.724 534.163 672.854 613.513 681.659C692.857 693.432 774.206 676.259 852.703 695.694C927.508 714.107 997.106 747.818 1068.68 775.78C1074.63 778.21 1080.57 780.64 1086.51 783.07C1093.25 781.903 1100.42 784.051 1104.02 790.238C1119.57 796.67 1135.11 803.651 1150.2 810.834C1126.74 773.202 1103.07 735.67 1079.84 697.937C1055.76 659.51 1031.8 620.758 1007.72 582.332C1007.27 582.534 1007.25 583.083 1007.03 583.185C995.876 587.698 984.687 579.017 973.424 577.919C945.79 571.567 917.645 567.063 889.659 564.105C767.756 548.697 643.679 555.302 522.869 531.582C447.675 514.693 373.298 485.303 308.404 443.529C277.826 416.943 252.84 384.858 222.262 358.272C172.852 307.866 106.683 284.732 44.2401 256.136C-28.4971 218.455 -97.1459 165.981 -139.716 94.9521C-152.056 73.5833 -246.884 -95.8965 -194.753 -98.4853C-191.459 -101.325 -187.335 -102.924 -182.771 -101.757C-158.191 -90.2462 -135.002 -74.0621 -109.384 -63.8303C-24.9525 -27.6727 57.6858 12.2632 142.73 46.7956C209.52 73.6914 281.336 84.2916 349.516 106.514C421.633 129.11 488.14 166.109 556.627 197.358C566.017 201.462 575.082 205.443 584.148 209.424C570.264 188.215 557.946 166.297 552.562 157.952C515.796 98.5828 495.365 31.274 485.532 -37.6012C474.186 -90.1543 492.311 -141.231 503.29 -192.036C512.742 -240.261 516.511 -289.148 526.51 -337.352C542.238 -408.641 567.421 -477.473 589.986 -546.736C604.076 -590.054 617.842 -633.494 627.367 -677.979C628.747 -688.04 637.064 -695.852 647.354 -695.121C654.01 -694.093 658.186 -691.402 660.899 -687.778C679.606 -683.312 677.882 -653.146 685.281 -637.356C697.204 -599.623 711.015 -562.475 725.721 -525.733C822.831 -276.678 1015.31 -63.8196 1052.84 207.104C1057.45 257.855 1049.66 308.564 1049.12 359.225C1048.37 398.115 1048.72 437.048 1048.75 475.857C1048.32 478.479 1048.53 481.346 1048.75 484.213C1054.26 489.265 1054.51 496.97 1055.55 504.047C1057.43 520.721 1059.63 537.518 1063.6 554.053C1069.3 576.812 1077.11 598.885 1085.37 620.754C1087.53 627.325 1091.84 635.078 1093.95 642.746C1166 754.61 1237.69 866.901 1304.46 981.967C1335.33 1034.84 1362.18 1089.54 1388.68 1144.66L1389.23 1144.68Z" fill="#4E7637"/>
<path d="M363.231 511.885C356.076 513.46 348.155 517.55 343.567 523.351C336.995 522.79 330.372 522.357 323.809 521.73C327.528 516.921 330.919 511.801 333.803 506.446C334.739 504.692 335.774 500.637 337.309 499.43C339.599 497.585 345.626 497.437 348.387 496.861C365.465 493.336 380.075 479.966 371.868 461.69C364.879 446.658 347.358 447.174 334.72 454.466C328.79 458.214 323.608 463.937 322.084 470.945C320.384 481.082 325.563 492.256 334.319 497.663C334.273 497.757 334.194 497.848 334.148 497.942C332.072 501.224 330.371 504.722 328.263 507.999C323.954 514.742 318.929 521.056 313.433 526.872C307.436 532.924 300.61 538.13 294.994 544.601C291.421 548.557 288.023 552.705 284.626 556.852C282.143 559.912 279.541 562.856 277.272 566.078C277.23 566.14 277.184 566.235 277.143 566.296C277.59 560.588 278.004 554.876 278.315 549.184C279.845 528.833 282.172 508.553 283.731 488.239C284.067 483.892 283.706 478.715 286.517 475.195C289.57 471.371 294.652 467.948 298.308 464.639C318.703 447.603 322.662 419.491 326.947 394.774C334.445 393.915 342.21 391.011 345.967 384.129C349.239 378.121 349.375 370.696 347.47 364.244C344.576 356.622 338.152 349.308 329.878 347.652C320.953 346.346 311.755 351.207 306.228 358.025C302.09 363.215 300.722 370.311 302.744 376.644C305.289 385.125 312.75 392.978 322.055 392.925C322.142 393.54 322.482 394.021 322.966 394.419C322.729 395.461 322.458 396.499 322.221 397.54C318.544 412.513 315.351 427.885 308.234 441.703C306.276 445.368 304.379 449.075 301.804 452.325C297.479 457.658 292.083 461.945 287.516 467.078C286.555 468.26 285.405 469.349 284.407 470.559C284.5 468.828 284.593 467.097 284.752 465.374C285.549 456.494 287.727 447.828 289.113 439.058C292.04 421.104 290.011 412.02 284.863 394.983C281.85 383.926 278.734 372.889 275.928 361.792C279.991 361.521 283.971 360.099 287.573 358.225C294.833 354.317 299.592 346.191 300.388 338.081C300.8 331.363 297.559 324.601 292.255 320.519C284.065 314.381 270.534 317.734 262.655 323.036C248.285 332.784 251.483 356.236 269.426 359.162C269.439 360.337 270.354 361.295 271.586 361.625C272.311 370.168 274.162 378.827 275.911 387.237C277.636 396.079 280.334 404.681 282.336 413.46C282.732 415.557 282.988 417.703 283.149 419.802C282.55 418.483 281.951 417.164 281.244 415.898C277.543 409.578 272.934 403.777 267.706 398.598C260.425 391.674 253.586 383.937 245.595 377.826C245.784 377.146 245.908 376.459 245.797 375.774C247.509 372.445 247.591 368.499 246.477 364.967C243.714 355.585 235.101 347.045 224.891 347.348C217.508 347.854 211.882 353.888 208.029 359.718C199.659 371.829 207.132 385.215 219.33 390.739C228.299 394.263 239.276 389.904 243.896 381.559C244.623 382.157 245.359 382.69 246.007 383.378C251.209 388.755 256.186 394.303 261.351 399.708C265.527 403.944 269.517 408.324 272.972 413.203C277.773 419.331 280.408 426.617 282.874 433.914C282.138 441.563 280.701 449.186 279.715 456.7C278.636 465.175 278.485 473.738 278.471 482.285C278.339 490.448 277.411 498.541 276.813 506.676C276.341 513.085 275.605 519.459 274.77 525.82C272.529 520.899 270.429 515.93 267.505 511.355C262.62 502.801 254.332 497.154 247.969 489.881C242.817 483.874 238.354 477.22 235.501 469.805C234.948 468.391 234.366 466.94 233.813 465.527C235.06 465.489 236.201 465.237 236.979 464.166C240.582 462.292 244.573 460.268 247.108 456.812C252.145 450.399 253.459 441.419 251.429 433.609C248.648 423.856 239.005 417.025 229.155 415.866C218.497 414.467 208.068 420.273 203.075 429.675C196.763 440.681 204.53 453.871 213.641 460.666C217.88 464.173 223.502 464.81 228.849 465.244C229.281 466.809 229.747 468.379 230.249 469.92C234.82 484.702 244.683 495.485 255.94 505.612C262.497 512.173 266.549 520.684 270.565 528.956C271.486 530.887 272.482 532.761 273.569 534.714C271.859 546.459 269.956 558.144 268.675 569.945C268.087 574.428 267.498 578.91 266.91 583.392C258.059 572.575 248.486 562.4 238.257 552.877C233.79 548.804 228.683 545.518 223.692 542.114C223.104 541.735 222.578 541.398 222.106 540.9C227.292 537.96 228.273 530.746 230.177 525.699C232.644 519.183 233.644 512.844 230.418 506.218C225.68 496.544 213.383 492.549 203.419 495.835C196.164 498.168 190.008 503.897 186.945 510.871C181.762 523.501 188.712 538.83 201.747 543.089C206.974 544.948 212.806 545.01 217.946 542.935C218.853 543.692 219.798 544.419 220.607 545.162C225.266 548.791 230.083 552.24 234.418 556.296C243.032 564.568 250.991 573.491 259.032 582.291C261.42 584.817 263.603 587.619 266.069 590.054C262.229 619.054 258.318 648.077 256.099 677.256C255.07 690.464 255.237 703.763 256.768 716.905C257.106 719.699 257.477 722.496 258.088 725.259C258.329 727 259.311 728.47 261.008 729.095C263.257 729.86 265.875 728.326 266.248 725.995C266.31 723.22 265.497 720.465 265.428 717.673C264.31 705.222 264.109 692.69 264.91 680.189C266.173 661.111 268.979 642.034 271.236 623.052C272.35 613.543 273.464 604.034 274.484 594.478C275.223 587.568 274.772 580.267 277.577 573.729C279.942 568.239 284.69 564.035 288.531 559.577C293.548 553.832 298.322 547.888 303.758 542.533C307.35 538.948 311.332 535.716 314.953 532.168C317.233 529.885 319.423 527.524 321.494 525.047C321.592 525.06 321.687 525.106 321.819 525.123C329.268 526.168 336.702 526.809 344.147 527.886C342.398 527.657 343.747 540.138 344.251 541.411C345.916 545.854 350.126 548.821 354.312 550.678C364.559 555.979 378.533 554.36 384.324 543.487C387.033 538.445 389.521 532.535 388.433 526.76C386.389 515.227 374.005 509.846 363.276 512.059L363.231 511.885Z" fill="#29514B"/>
<path fill-rule="evenodd" clip-rule="evenodd" d="M763.108 371.57L765.574 369.201C767.556 367.297 769.34 363.242 770.609 357.619C771.861 352.075 772.561 345.261 772.561 338.116V261.097C772.561 253.952 771.861 247.139 770.609 241.595C769.34 235.972 767.556 231.917 765.574 230.013L763.108 227.644H785.757C789.634 227.644 792.498 227.047 795.578 226.405L795.839 226.351C799.036 225.686 802.457 225 807.277 225C821.364 225 834.365 228.899 843.868 236.959C853.403 245.047 859.282 257.212 859.282 273.435C859.282 290.813 851.088 304.703 838.928 312.351C840.087 314.581 841.01 316.939 841.916 319.505L841.921 319.519L849.851 342.759C854.916 356.012 861.319 364.916 866.69 369.108L869.844 371.57H842.452L825.2 320.936L825.197 320.927C823.898 317.032 821.527 311.363 818.116 306.698C814.679 301.998 810.407 298.604 805.337 298.604C803.089 298.604 800.976 299.123 799.055 300.308C797.13 301.495 795.321 303.396 793.76 306.277C790.615 312.079 788.546 321.718 788.546 336.883V338.116C788.546 345.261 789.245 352.075 790.497 357.619C791.767 363.242 793.551 367.297 795.532 369.201L797.998 371.57H763.108ZM788.546 302.5C791.879 296.378 798.132 291.444 806.748 291.444C817.342 291.444 826.514 295.416 833.384 303.652C839.232 295.804 842.103 283.253 840.133 268.327C838.14 253.442 832.582 244.22 826.036 238.709C819.473 233.186 811.781 231.279 805.337 231.279C801.293 231.279 798.313 232.264 796.082 233.86C793.844 235.462 792.246 237.76 791.115 240.572C788.825 246.26 788.546 253.754 788.546 260.921V302.5ZM972.542 358.891C971.703 353.715 969.67 347.212 967.112 339.81L967.109 339.799L937.845 259.306C936.539 256.176 935.135 253.143 933.706 250.278L900.04 343.844C898.017 350.264 896.468 355.877 895.912 360.339C895.343 364.917 895.89 367.761 897.394 369.198L899.876 371.57H874.321L876.788 369.201C881.218 364.945 889.396 354.374 895.325 338.872L895.33 338.859L929.675 243.093C925.943 236.91 922.285 232.304 919.844 230.027L917.288 227.644H943.623L984.516 339.912C990.281 354.042 998.292 365.136 1002.53 369.2L1005 371.57H968.694L971.161 369.201C971.535 368.841 971.854 368.405 972.115 367.881C972.312 367.488 972.476 367.045 972.604 366.55C972.655 366.354 972.701 366.15 972.741 365.937C972.773 365.767 972.802 365.591 972.826 365.409C973.067 363.657 972.961 361.478 972.542 358.891ZM670.678 353.146C661.913 342.976 654.83 326.108 652.64 299.406C650.446 272.764 654.51 256.035 661.294 246.006C668.03 236.048 677.574 232.513 686.898 232.513C696.321 232.513 706.912 236.064 715.716 246.141C724.542 256.244 731.668 273.021 733.857 299.631C736.051 326.36 731.943 343.177 725.095 353.272C718.292 363.298 708.657 366.877 699.246 366.877C689.92 366.877 679.418 363.288 670.678 353.146ZM634.541 299.519C634.541 324.613 641.356 343.334 652.142 355.804C662.936 368.284 677.612 374.39 693.072 374.39C708.531 374.39 723.294 368.285 734.176 355.809C745.05 343.34 751.956 324.618 751.956 299.519C751.956 274.594 745.049 255.959 734.174 243.536C723.293 231.104 708.53 225 693.072 225C677.612 225 662.937 231.105 652.144 243.54C641.358 255.965 634.541 274.598 634.541 299.519ZM535.562 371.57L538.028 369.201C540.01 367.297 541.793 363.242 543.063 357.619C544.315 352.075 545.014 345.261 545.014 338.116V261.097C545.014 253.952 544.315 247.139 543.063 241.595C541.793 235.972 540.01 231.917 538.028 230.013L535.562 227.644H570.452L567.985 230.013C566.004 231.917 564.221 235.972 562.95 241.595C561.698 247.139 561 253.952 561 261.097V338.116C561 345.408 561.104 352.285 562.925 357.346C563.821 359.836 565.103 361.792 566.916 363.133C568.722 364.469 571.183 365.292 574.615 365.292H594.549C605.975 365.292 613.947 362.743 619.53 359.688C625.118 356.632 628.387 353.03 630.384 350.775L632.742 352.062L628.505 367.053L627.149 371.57H535.562ZM461.438 261.097V293.194C465.704 288.618 472.075 286.657 480.321 286.51H480.334H482.286C489.374 286.51 496.16 285.343 501.699 283.62C507.292 281.88 511.435 279.631 513.397 277.591L515.769 275.127V304.171L513.397 301.707C511.435 299.667 507.292 297.417 501.699 295.678C496.16 293.956 489.374 292.789 482.286 292.789H481.581C474.471 292.789 469.555 294.141 466.374 297.339C463.187 300.543 461.438 305.904 461.438 314.676V338.116C461.438 345.261 462.137 352.075 463.389 357.619C464.659 363.242 466.442 367.297 468.424 369.201L470.891 371.57H436L438.467 369.201C440.448 367.297 442.231 363.242 443.502 357.619C444.754 352.075 445.452 345.261 445.452 338.116V261.097C445.452 253.952 444.754 247.139 443.502 241.595C442.231 235.972 440.448 231.917 438.467 230.013L436 227.644H527.94V246.186L525.568 243.722C523.423 241.492 520.889 239.089 516.334 237.211C511.747 235.319 505.017 233.922 494.458 233.922H474.878C471.493 233.922 469.066 234.743 467.286 236.076C465.497 237.416 464.229 239.37 463.343 241.863C461.542 246.927 461.438 253.807 461.438 261.097Z" fill="#C9D691"/>
</g>
<defs>
<clipPath id="clip0_14_3216">
<rect width="1440" height="600" fill="white"/>
</clipPath>
</defs>
</svg>
