<svg width="16" height="15" viewBox="0 0 16 15" fill="none" xmlns="http://www.w3.org/2000/svg">
<path d="M7.76705 2.61341L7.08813 1.91973C6.69456 1.50647 6.2321 1.23097 5.70078 1.09321C5.16945 0.945622 4.63812 0.921024 4.10679 1.01942C3.57546 1.11781 3.07857 1.32936 2.61612 1.65406C2.15366 1.96892 1.79452 2.38218 1.5387 2.89383C1.28287 3.37596 1.15496 3.96633 1.15496 4.66493C1.15496 5.36352 1.38127 6.1556 1.83388 7.04115C2.05035 7.47408 2.32585 7.92178 2.66039 8.38423C3.00477 8.85652 3.41803 9.34357 3.90016 9.84538C4.38229 10.3472 4.94314 10.8687 5.5827 11.4099C6.22226 11.9412 6.95038 12.4873 7.76705 13.0481C8.58373 12.4873 9.31184 11.9412 9.95141 11.4099C10.591 10.8687 11.1518 10.3472 11.6339 9.84538C12.1161 9.34357 12.5293 8.85652 12.8737 8.38423C13.2083 7.92178 13.4838 7.47408 13.7002 7.04115C14.1528 6.1556 14.3791 5.36352 14.3791 4.66493C14.3791 3.96633 14.2512 3.37596 13.9954 2.89383C13.7396 2.38218 13.3804 1.96892 12.918 1.65406C12.4555 1.32936 11.9586 1.11781 11.4273 1.01942C10.896 0.921024 10.3647 0.945622 9.83333 1.09321C9.302 1.23097 8.83955 1.50647 8.44598 1.91973L7.76705 2.61341ZM7.76705 14.1846C4.14615 11.7936 1.89784 9.57972 1.02213 7.54296C0.15626 5.51604 0.0308069 3.85809 0.645771 2.56913C1.26074 1.28016 2.30617 0.46841 3.78209 0.13387C5.258 -0.21051 6.53221 0.109271 7.6047 1.09321C7.63422 1.12273 7.66128 1.14979 7.68588 1.17439C7.71048 1.19899 7.73754 1.22605 7.76705 1.25556C7.79657 1.22605 7.82363 1.19899 7.84823 1.17439C7.87283 1.14979 7.89989 1.12273 7.92941 1.09321C9.0019 0.109271 10.2761 -0.21051 11.752 0.13387C13.2279 0.46841 14.2734 1.28016 14.8883 2.56913C15.5033 3.85809 15.3778 5.51604 14.512 7.54296C13.6363 9.57972 11.388 11.7936 7.76705 14.1846Z" fill="#1F1F1F"/>
</svg>
