<svg width="40" height="40" viewBox="0 0 40 40" fill="none" xmlns="http://www.w3.org/2000/svg">
<path d="M20 12.8125C18.5784 12.8125 17.1888 13.234 16.0068 14.0238C14.8249 14.8136 13.9036 15.9361 13.3596 17.2495C12.8156 18.5628 12.6733 20.008 12.9506 21.4022C13.2279 22.7964 13.9125 24.0771 14.9177 25.0823C15.9229 26.0875 17.2036 26.7721 18.5978 27.0494C19.992 27.3267 21.4372 27.1844 22.7505 26.6404C24.0639 26.0964 25.1864 25.1751 25.9762 23.9932C26.766 22.8112 27.1875 21.4216 27.1875 20C27.185 18.0945 26.427 16.2678 25.0796 14.9204C23.7322 13.573 21.9055 12.815 20 12.8125ZM20 25.3125C18.9493 25.3125 17.9222 25.0009 17.0485 24.4172C16.1749 23.8334 15.494 23.0037 15.0919 22.033C14.6898 21.0623 14.5846 19.9941 14.7896 18.9636C14.9946 17.9331 15.5005 16.9865 16.2435 16.2435C16.9865 15.5005 17.9331 14.9946 18.9636 14.7896C19.9941 14.5846 21.0623 14.6898 22.033 15.0919C23.0037 15.494 23.8334 16.1749 24.4172 17.0485C25.0009 17.9222 25.3125 18.9493 25.3125 20C25.3125 21.409 24.7528 22.7602 23.7565 23.7565C22.7602 24.7528 21.409 25.3125 20 25.3125ZM27.5 4.0625H12.5C10.263 4.06498 8.11833 4.95473 6.53653 6.53653C4.95473 8.11833 4.06498 10.263 4.0625 12.5V27.5C4.06498 29.737 4.95473 31.8817 6.53653 33.4635C8.11833 35.0453 10.263 35.935 12.5 35.9375H27.5C29.737 35.935 31.8817 35.0453 33.4635 33.4635C35.0453 31.8817 35.935 29.737 35.9375 27.5V12.5C35.935 10.263 35.0453 8.11833 33.4635 6.53653C31.8817 4.95473 29.737 4.06498 27.5 4.0625ZM34.0625 27.5C34.0625 29.2405 33.3711 30.9097 32.1404 32.1404C30.9097 33.3711 29.2405 34.0625 27.5 34.0625H12.5C10.7595 34.0625 9.09032 33.3711 7.85961 32.1404C6.6289 30.9097 5.9375 29.2405 5.9375 27.5V12.5C5.9375 10.7595 6.6289 9.09032 7.85961 7.85961C9.09032 6.6289 10.7595 5.9375 12.5 5.9375H27.5C29.2405 5.9375 30.9097 6.6289 32.1404 7.85961C33.3711 9.09032 34.0625 10.7595 34.0625 12.5V27.5ZM29.6875 11.875C29.6875 12.184 29.5959 12.4861 29.4242 12.7431C29.2525 13 29.0085 13.2003 28.7229 13.3186C28.4374 13.4368 28.1233 13.4678 27.8202 13.4075C27.5171 13.3472 27.2387 13.1984 27.0201 12.9799C26.8016 12.7613 26.6528 12.4829 26.5925 12.1798C26.5322 11.8767 26.5632 11.5626 26.6814 11.2771C26.7997 10.9915 27 10.7475 27.2569 10.5758C27.5139 10.4041 27.816 10.3125 28.125 10.3125C28.5394 10.3125 28.9368 10.4771 29.2299 10.7701C29.5229 11.0632 29.6875 11.4606 29.6875 11.875Z" fill="#F7F7F7"/>
</svg>
